<svg width="143" height="38" viewBox="0 0 143 38" fill="none" xmlns="http://www.w3.org/2000/svg">
<g clip-path="url(#clip0_218_1255)">
<path fill-rule="evenodd" clip-rule="evenodd" d="M13.8842 13.4581C15.6851 6.24816 20.1921 2.64319 27.4005 2.64319C38.2154 2.64319 39.5646 10.7505 44.9705 12.1043C48.5754 13.0063 51.7286 11.6556 54.4316 8.05065C52.6306 15.259 48.1237 18.864 40.9168 18.864C30.1019 18.864 28.7527 10.7567 23.3468 9.4029C19.7418 8.50088 16.5887 9.85159 13.8857 13.4566L13.8842 13.4581ZM0.367828 29.6789C2.17186 22.469 6.67421 18.864 13.8842 18.864C24.6991 18.864 26.0482 26.9713 31.4541 28.3251C35.0591 29.2271 38.2123 27.8764 40.9153 24.2715C39.1143 31.4814 34.6073 35.0864 27.3989 35.0864C16.584 35.0864 15.2349 26.9791 9.82895 25.6253C6.22398 24.7233 3.07078 26.074 0.367828 29.6789Z" fill="#F1F1F1"/>
<path fill-rule="evenodd" clip-rule="evenodd" d="M65.8053 3.36234H61.1611V0.580278H73.6905V3.36234H69.0484V15.9811H65.8053V3.36234ZM79.7562 14.5576C79.3265 15.0472 78.8187 15.4623 78.2535 15.7862C77.7012 16.103 76.9843 16.2614 76.105 16.2614C75.6197 16.2638 75.1365 16.1981 74.6693 16.0664C74.2145 15.9365 73.8164 15.7354 73.4793 15.4633C73.1422 15.1912 72.8701 14.8439 72.6711 14.4175C72.4721 13.991 72.3665 13.4874 72.3665 12.8945C72.3665 12.1187 72.5391 11.4852 72.8864 10.9958C73.2344 10.5044 73.7029 10.1107 74.247 9.85247C74.8074 9.57832 75.4369 9.38541 76.1355 9.26966C76.8404 9.15359 77.5519 9.08169 78.2657 9.0544L79.7116 8.98943V8.42895C79.7116 7.73851 79.5227 7.26333 79.1389 7.00746C78.7551 6.75159 78.3063 6.62162 77.7905 6.62162C76.5924 6.62162 75.9101 7.07447 75.7395 7.9822L72.9778 7.7243C73.1768 6.54649 73.6966 5.69359 74.5312 5.16561C75.3659 4.63763 76.4909 4.3777 77.9022 4.3777C78.7653 4.3777 79.5004 4.47924 80.1055 4.69043C80.7107 4.90162 81.198 5.1981 81.5636 5.58394C81.9382 5.98519 82.2124 6.46956 82.3637 6.99731C82.5302 7.54966 82.6114 8.17511 82.6114 8.86555V15.9832H79.7562V14.5617V14.5576ZM79.6913 10.9551L78.351 11.0201C77.7174 11.0465 77.2057 11.1135 76.8178 11.2151C76.43 11.3166 76.1274 11.4425 75.9243 11.5928C75.7212 11.743 75.573 11.9177 75.504 12.1208C75.4349 12.3238 75.3963 12.5472 75.3963 12.7909C75.3963 13.1645 75.5263 13.461 75.7822 13.6742C76.038 13.8875 76.4015 13.9992 76.8584 13.9992C77.6382 13.9992 78.2718 13.8205 78.7592 13.459C79.0333 13.2559 79.2587 13.0001 79.4293 12.6934C79.5999 12.3868 79.6872 11.9989 79.6872 11.54V10.9572L79.6913 10.9551ZM85.0645 4.72088H88.0903V15.9791H85.0645V4.72088ZM85.0239 0.578247H88.1309V3.29533H85.0239V0.578247ZM90.6774 0.578247H93.7031V15.9791H90.6774V0.578247ZM95.0576 4.72088H98.3392L99.9171 12.1837L102.074 4.82851H104.71L106.74 12.2061L108.318 4.74322H111.472L108.188 16.0014H105.25L103.239 8.58125L101.209 16.0014H98.3372L95.0556 4.74322L95.0576 4.72088ZM112.847 4.72088H115.872V15.9791H112.847V4.72088ZM112.806 0.578247H115.913V3.29533H112.806V0.578247ZM118.439 4.72088H121.378V6.27437C121.824 5.61439 122.352 5.13108 122.961 4.82851C123.571 4.52593 124.21 4.37566 124.87 4.37566C126.154 4.37566 127.104 4.71073 127.723 5.37883C128.343 6.04693 128.654 7.10086 128.654 8.5386V15.9791H125.63V8.95084C125.63 8.13856 125.48 7.62073 125.175 7.33237C124.87 7.04401 124.47 6.90186 123.967 6.90186C123.581 6.90186 123.244 6.96278 122.961 7.07447C122.679 7.18616 122.417 7.3547 122.174 7.56996C121.971 7.77303 121.802 8.01265 121.666 8.29289C121.53 8.57886 121.46 8.89201 121.463 9.20873V15.9811H118.417V4.72291L118.439 4.72088ZM138.909 14.4926C138.138 15.6681 136.815 16.3617 135.41 16.3263C133.826 16.3263 132.648 15.7943 131.866 14.7302C131.084 13.6661 130.7 12.1918 130.7 10.3094C130.691 9.49555 130.805 8.685 131.038 7.90502C131.261 7.17803 131.58 6.55258 131.998 6.02866C132.409 5.51012 132.933 5.0932 133.531 4.81023C134.141 4.52593 134.821 4.37972 135.582 4.37972C136.143 4.37972 136.699 4.48125 137.254 4.68433C137.808 4.8874 138.33 5.29354 138.821 5.84995V0.586369H141.847V15.9872H138.911V14.4987L138.909 14.4926ZM138.844 10.2221C138.844 9.50319 138.783 8.9285 138.641 8.49596C138.498 8.06342 138.32 7.71414 138.048 7.43999C137.788 7.18209 137.503 7.03385 137.195 6.93232C136.896 6.85407 136.588 6.81447 136.279 6.81454C135.955 6.81306 135.635 6.87951 135.339 7.00949C135.042 7.13946 134.786 7.34049 134.561 7.61261C134.335 7.88472 134.161 8.24619 134.033 8.68888C133.905 9.13157 133.838 9.66362 133.838 10.285C133.838 10.9592 133.899 11.5237 134.041 11.9786C134.183 12.4335 134.331 12.799 134.549 13.0793C134.766 13.3595 135.016 13.5605 135.304 13.6824C135.592 13.8042 135.903 13.8855 136.234 13.8855C136.953 13.8855 137.544 13.6763 138.005 13.26C138.296 12.966 138.514 12.6078 138.641 12.2142C138.775 11.804 138.844 11.276 138.844 10.6302V10.2444V10.2221Z" fill="#F1F1F1"/>
<path fill-rule="evenodd" clip-rule="evenodd" d="M91.1931 32.065C91.12 32.8854 90.9291 33.6428 90.6205 34.3394C90.3207 35.0218 89.8879 35.6376 89.3472 36.1508C88.7741 36.6823 88.0973 37.0896 87.3592 37.3468C86.5753 37.6311 85.6656 37.7774 84.6279 37.7774C83.4622 37.7774 82.4347 37.5824 81.5493 37.1945C80.6917 36.827 79.9307 36.2661 79.3257 35.5558C78.7266 34.8511 78.2778 33.9982 77.9753 32.9971C77.6727 31.9959 77.5224 30.8933 77.5224 29.687C77.5224 28.4361 77.6849 27.3152 78.0179 26.3222C78.351 25.3291 78.8261 24.4823 79.4435 23.7777C80.0608 23.073 80.8122 22.5329 81.6894 22.1592C82.5667 21.7856 83.5638 21.5987 84.6746 21.5987C85.6534 21.5987 86.5083 21.7206 87.2333 21.9643C87.9582 22.208 88.5735 22.5613 89.071 23.0202C89.5686 23.4792 89.9645 24.0356 90.2691 24.6814C90.5856 25.3755 90.8102 26.108 90.9373 26.8603L87.7389 27.2705C87.5805 26.3648 87.2718 25.652 86.8251 25.1342C86.3783 24.6164 85.6513 24.3585 84.6725 24.3585C83.4338 24.3585 82.4936 24.8215 81.856 25.7495C81.2183 26.6775 80.8914 27.9873 80.8914 29.685C80.8914 31.3969 81.2366 32.7311 81.9189 33.6327C82.5464 34.5265 83.5809 35.0453 84.6725 35.0136C85.6676 35.0136 86.3986 34.7577 86.8657 34.248C87.3328 33.7383 87.6232 33.0093 87.7389 32.0589L91.1931 32.065ZM95.8983 32.3696C95.9693 33.3179 96.276 34.0084 96.8121 34.4409C97.3482 34.8734 98.1463 35.0907 99.1982 35.0907C99.7018 35.0907 100.128 35.0359 100.473 34.9283C100.819 34.8207 101.099 34.6765 101.316 34.4978C101.523 34.3301 101.683 34.1109 101.779 33.8622C101.875 33.6072 101.923 33.3365 101.919 33.0641C101.919 32.658 101.771 32.2823 101.468 31.931C101.166 31.5796 100.612 31.3217 99.8033 31.1654L97.7929 30.7999C96.9806 30.6577 96.3024 30.4689 95.6972 30.2394C95.0921 30.0099 94.5844 29.7114 94.1742 29.3459C93.764 28.9803 93.4513 28.5295 93.236 27.9975C93.0208 27.4654 92.9111 26.8319 92.9111 26.0988C92.8979 25.4252 93.0498 24.7587 93.3538 24.1574C93.6472 23.5995 94.069 23.1193 94.5844 22.7562C95.1124 22.3826 95.7419 22.0983 96.4729 21.9034C97.204 21.7084 98.0163 21.613 98.8936 21.613C100.017 21.613 100.953 21.7429 101.702 21.9988C102.451 22.2547 103.056 22.5978 103.517 23.0243C103.978 23.4507 104.32 23.9381 104.543 24.5026C104.766 25.0672 104.915 25.6459 104.99 26.2491L101.944 26.6349C101.785 25.7861 101.481 25.1728 101.03 24.8012C100.579 24.4295 99.8886 24.2407 98.9667 24.2407C98.4184 24.2407 97.9716 24.2874 97.6162 24.3828C97.2609 24.4783 96.9786 24.5981 96.7633 24.7484C96.5651 24.8781 96.4074 25.0611 96.3085 25.2763C96.2232 25.4794 96.1785 25.6865 96.1785 25.9018C96.1785 26.4765 96.341 26.909 96.6659 27.1954C96.9908 27.4817 97.5391 27.7071 98.3168 27.8655L100.433 28.2757C102.104 28.6067 103.329 29.1428 104.108 29.8799C104.888 30.6171 105.274 31.7076 105.274 33.0824C105.274 33.7566 105.148 34.382 104.896 34.9506C104.638 35.5252 104.254 36.034 103.771 36.4391C103.223 36.8925 102.588 37.2303 101.905 37.4321C101.158 37.6697 100.281 37.7875 99.2692 37.7875C97.1654 37.7875 95.5571 37.3408 94.4422 36.4391C93.3274 35.5375 92.7243 34.2053 92.6146 32.3737H95.8759L95.8983 32.3696ZM109.91 32.3696C109.981 33.3179 110.288 34.0084 110.824 34.4409C111.36 34.8734 112.164 35.0907 113.21 35.0907C113.718 35.0907 114.14 35.0359 114.489 34.9283C114.839 34.8207 115.115 34.6765 115.332 34.4978C115.539 34.3301 115.699 34.1109 115.795 33.8622C115.891 33.6072 115.938 33.3365 115.935 33.0641C115.929 32.6435 115.768 32.2399 115.482 31.931C115.178 31.5796 114.625 31.3217 113.817 31.1654L111.807 30.7999C110.995 30.6577 110.316 30.4689 109.711 30.2394C109.106 30.0099 108.598 29.7114 108.188 29.3459C107.778 28.9803 107.465 28.5295 107.248 27.9975C107.031 27.4654 106.923 26.8319 106.923 26.0988C106.909 25.4252 107.062 24.7587 107.366 24.1574C107.662 23.597 108.072 23.1279 108.596 22.7359C109.12 22.344 109.754 22.078 110.485 21.883C111.216 21.6881 112.028 21.5927 112.905 21.5927C114.028 21.5927 114.965 21.7226 115.714 21.9785C116.463 22.2344 117.066 22.5775 117.529 23.004C117.992 23.4304 118.333 23.9178 118.555 24.4823C118.776 25.0469 118.926 25.6256 119.002 26.2287L115.956 26.6146C115.797 25.7657 115.493 25.1525 115.042 24.7809C114.591 24.4092 113.9 24.2204 112.979 24.2204C112.43 24.2204 111.983 24.2671 111.628 24.3625C111.273 24.458 110.99 24.5778 110.775 24.7281C110.577 24.8577 110.419 25.0407 110.32 25.256C110.233 25.4591 110.19 25.6662 110.19 25.8815C110.19 26.4562 110.353 26.8887 110.678 27.1751C111.003 27.4614 111.551 27.6868 112.331 27.8452L114.467 28.2716C116.138 28.6026 117.363 29.1387 118.143 29.8759C118.922 30.613 119.308 31.7035 119.308 33.0783C119.316 33.7201 119.187 34.3561 118.931 34.9445C118.673 35.5194 118.288 36.0284 117.805 36.433C117.31 36.8595 116.689 37.1885 115.937 37.4281C115.186 37.6677 114.313 37.7834 113.303 37.7834C111.2 37.7834 109.591 37.3367 108.474 36.4351C107.358 35.5334 106.756 34.2013 106.671 32.3696H109.91Z" fill="#F1F1F1"/>
</g>
<defs>
<clipPath id="clip0_218_1255">
<rect width="141.86" height="37.6744" fill="white" transform="translate(0.209595 0.162842)"/>
</clipPath>
</defs>
</svg>
