<svg width="155" height="38" viewBox="0 0 155 38" fill="none" xmlns="http://www.w3.org/2000/svg">
<g clip-path="url(#clip0_218_1245)">
<path fill-rule="evenodd" clip-rule="evenodd" d="M7.34158 0.914185H31.4657C34.6453 0.914185 37.2228 3.49173 37.2228 6.67129V30.943C37.2228 34.1226 34.6453 36.7001 31.4657 36.7001H7.34158C4.16202 36.7001 1.58447 34.1226 1.58447 30.943V6.67129C1.58447 3.49173 4.16202 0.914185 7.34158 0.914185ZM21.743 15.7263C21.2728 16.1252 20.583 16.3201 19.6726 16.3201L16.4767 16.3203V11.6284H19.6726C20.5827 11.6284 21.2697 11.8313 21.743 12.2372C22.2132 12.6331 22.4482 13.2121 22.4482 13.9743C22.4482 14.7463 22.2132 15.3273 21.743 15.7263ZM22.478 25.2884C21.8978 25.7736 21.0275 26.0158 19.8675 26.0158L19.8678 26.0164H16.477V20.2108H19.8678C21.0378 20.2108 21.9128 20.4533 22.493 20.9383C23.0732 21.4132 23.3632 22.1306 23.3632 23.0911C23.3632 24.071 23.0681 24.8034 22.478 25.2884ZM28.1192 20.0179C27.4391 19.058 26.479 18.3996 25.2388 18.0433L25.2393 18.043C26.207 17.6736 26.9497 17.1174 27.4597 16.3652C27.9698 15.6029 28.2248 14.6826 28.2248 13.6035C28.2248 11.5546 27.5246 10.0646 26.1243 9.13426C24.7343 8.2036 22.4838 7.73869 19.3734 7.73869H10.7015V29.9066H20.2881C23.2689 29.9066 25.489 29.3821 26.9492 28.3329C28.4093 27.2836 29.1395 25.6898 29.1395 23.5518C29.1393 22.1559 28.7994 20.9778 28.1192 20.0179Z" fill="#F1F1F1"/>
<path d="M50.7347 16.8339V22.8551H54.3022C55.4974 22.8551 56.3837 22.6092 56.9565 22.1176C57.5361 21.6181 57.8247 20.8582 57.8247 19.84C57.8247 18.8252 57.5349 18.0562 56.9565 17.5713C56.3837 17.0797 55.4997 16.8339 54.3022 16.8339H50.7347ZM50.7347 10.0731V15.0287H54.0271C55.1141 15.0287 55.9214 14.8257 56.4491 14.4232C56.9847 14.0116 57.2531 13.3881 57.2531 12.5515C57.2531 11.7216 56.9847 11.1014 56.4491 10.691C55.9135 10.2806 55.113 10.0742 54.0271 10.0742L50.7347 10.0731ZM48.51 8.24758H54.1929C55.8887 8.24758 57.1955 8.60051 58.1134 9.30523C59.0312 10.0099 59.489 11.0123 59.489 12.3113C59.489 13.3171 59.2545 14.1176 58.7843 14.713C58.3141 15.3083 57.6229 15.6782 56.7141 15.8248C57.8078 16.0593 58.6557 16.552 59.2578 17.2906C59.8667 18.0325 60.1599 18.9593 60.1599 20.0756C60.1599 21.5437 59.6604 22.678 58.6625 23.4786C57.6646 24.2792 56.2439 24.6783 54.4003 24.6783H48.4987V8.24194" fill="#F1F1F1"/>
<path d="M68.5479 13.7716C68.0462 13.7547 67.5483 13.8626 67.0986 14.0856C66.6489 14.3086 66.2616 14.6396 65.9714 15.0491C65.34 15.8948 65.0242 17.0528 65.0242 18.5287C65.0242 20.0047 65.3366 21.1672 65.9601 22.0196C66.5915 22.8653 67.4541 23.2859 68.5479 23.2859C69.0478 23.3019 69.5438 23.1935 69.9915 22.9705C70.4392 22.7476 70.8246 22.417 71.113 22.0084C71.7445 21.1571 72.0602 19.9968 72.0602 18.5287C72.0602 17.0674 71.7445 15.9128 71.113 15.0604C70.4816 14.2012 69.6269 13.7716 68.5479 13.7716ZM68.5479 12.0543C70.3091 12.0543 71.705 12.6271 72.6995 13.7716C73.694 14.9161 74.2082 16.5025 74.2082 18.5299C74.2082 20.5572 73.7053 22.1347 72.6995 23.2881C71.6937 24.4337 70.3091 25.0054 68.5479 25.0054C66.7776 25.0054 65.3907 24.4326 64.3759 23.2881C63.378 22.1358 62.8785 20.5504 62.8785 18.5299C62.8785 16.5037 63.378 14.9183 64.3759 13.7716C65.3817 12.626 66.7686 12.0543 68.5479 12.0543Z" fill="#F1F1F1"/>
<path d="M82.2217 13.7716C81.7201 13.7547 81.2221 13.8626 80.7724 14.0856C80.3228 14.3086 79.9354 14.6396 79.6452 15.0491C79.0138 15.8948 78.6981 17.0528 78.6981 18.5287C78.6981 20.0047 79.0104 21.1672 79.6339 22.0196C80.2654 22.8653 81.128 23.2859 82.2217 23.2859C82.7216 23.3019 83.2176 23.1935 83.6653 22.9705C84.1131 22.7476 84.4984 22.417 84.7869 22.0084C85.4183 21.1571 85.734 19.9968 85.734 18.5287C85.734 17.0674 85.4183 15.9128 84.7869 15.0604C84.1554 14.2012 83.3008 13.7716 82.2217 13.7716ZM82.2217 12.0543C83.9829 12.0543 85.3788 12.6271 86.3733 13.7716C87.3678 14.9161 87.882 16.5025 87.882 18.5299C87.882 20.5572 87.3791 22.1347 86.3733 23.2881C85.3676 24.4337 83.9829 25.0054 82.2217 25.0054C80.4514 25.0054 79.0645 24.4326 78.0497 23.2881C77.0518 22.1358 76.5523 20.5504 76.5523 18.5299C76.5523 16.5037 77.0518 14.9183 78.0497 13.7716C79.0555 12.626 80.4424 12.0543 82.2217 12.0543Z" fill="#F1F1F1"/>
<path d="M93.1196 8.84867V12.3497H97.2916V13.9238H93.1196V20.6192C93.1196 21.625 93.2549 22.2711 93.5255 22.5586C93.804 22.845 94.3655 22.9871 95.2101 22.9871H97.2916V24.6829H95.209C93.645 24.6829 92.566 24.3931 91.9729 23.8147C91.3787 23.2284 91.0708 22.1628 91.0708 20.6215V13.9238H89.5847V12.3497H91.0708V8.85092H93.1083M107.706 12.715V14.6319C107.14 14.3407 106.541 14.1189 105.922 13.9711C105.305 13.8246 104.667 13.7513 104.005 13.7513C102.999 13.7513 102.243 13.9057 101.736 14.2023C101.237 14.5101 100.988 14.9735 100.988 15.5892C100.988 16.0594 101.168 16.4292 101.529 16.701C101.89 16.9648 102.611 17.2196 103.698 17.4609L104.392 17.6154C105.831 17.9232 106.85 18.3596 107.453 18.9256C108.062 19.4838 108.355 20.2652 108.355 21.2709C108.371 21.8007 108.256 22.3262 108.02 22.8007C107.784 23.2752 107.434 23.684 107.002 23.9906C106.1 24.6581 104.855 25.0054 103.281 25.0054C102.62 25.0054 101.93 24.9377 101.211 24.8069C100.498 24.6942 99.7451 24.4912 98.9536 24.2341V22.1425C99.7023 22.5315 100.44 22.8247 101.167 23.022C101.871 23.21 102.596 23.3062 103.325 23.3084C104.279 23.3084 105.013 23.1472 105.527 22.8236C106.041 22.4932 106.298 22.0309 106.298 21.4367C106.298 20.8864 106.111 20.4636 105.737 20.1704C105.369 19.8773 104.559 19.6067 103.304 19.3225L102.599 19.1579C101.344 18.894 100.437 18.4904 99.8793 17.9469C99.3212 17.3967 99.0426 16.6434 99.0426 15.6895C99.0426 14.5282 99.4542 13.634 100.276 13.0026C101.098 12.3711 102.265 12.0554 103.777 12.0554C104.485 12.052 105.192 12.1071 105.891 12.2201C106.516 12.3203 107.129 12.4862 107.719 12.715M113.507 8.84753V12.3486H117.679V13.9227H113.507V20.6181C113.507 21.6239 113.642 22.2699 113.913 22.5575C114.191 22.8439 114.753 22.9859 115.597 22.9859H117.681V24.6818H115.6C114.036 24.6818 112.957 24.392 112.364 23.8136C111.769 23.2272 111.462 22.1617 111.462 20.6203V13.9227H109.975V12.3486H111.462V8.85092H113.509M127.378 14.2463C127.145 14.1121 126.892 14.0154 126.629 13.9599C126.342 13.8903 126.046 13.8569 125.75 13.8606C124.604 13.8606 123.724 14.235 123.107 14.9837C122.498 15.7256 122.205 16.7934 122.205 18.1882V24.6852H120.167V12.3497H122.205V14.2666C122.631 13.5179 123.186 12.9631 123.868 12.6034C124.55 12.2358 125.379 12.0532 126.357 12.0532C126.511 12.0542 126.666 12.0651 126.819 12.0859L127.38 12.1625L127.392 14.244M135.03 18.4836C133.392 18.4836 132.258 18.6708 131.627 19.0451C130.995 19.4195 130.68 20.0577 130.68 20.962C130.68 21.6814 130.914 22.2542 131.384 22.6792C131.861 23.0964 132.507 23.3073 133.324 23.3073C134.447 23.3073 135.347 22.9104 136.022 22.1177C136.704 21.3284 137.046 20.2573 137.046 18.9358V18.4847H135.031M139.072 17.6481V24.684H137.046V22.8123C136.595 23.561 136.008 24.1158 135.317 24.4754C134.627 24.8272 133.784 25.0054 132.785 25.0054C131.522 25.0054 130.516 24.6536 129.767 23.9489C129.025 23.2363 128.656 22.2857 128.656 21.0962C128.656 19.7093 129.107 18.6629 130.043 17.9582C130.978 17.2535 132.362 16.9017 134.214 16.9017H137.056V16.7032C137.056 15.7707 136.748 15.0513 136.131 14.5451C135.522 14.0309 134.663 13.7738 133.555 13.7738C132.85 13.7738 132.163 13.8584 131.496 14.0275C130.824 14.198 130.176 14.4534 129.569 14.7875V12.9158C130.311 12.6294 131.03 12.4162 131.727 12.2776C132.397 12.1338 133.08 12.0601 133.765 12.0577C135.548 12.0577 136.881 12.5087 137.762 13.4446C138.642 14.3804 139.083 15.7719 139.083 17.6504M145.116 22.8326V29.3724H143.078V12.3508H145.116V14.2226C145.542 13.4897 146.077 12.9451 146.724 12.5933C147.378 12.2325 148.156 12.052 149.058 12.052C149.763 12.0358 150.463 12.1894 151.097 12.4998C151.731 12.8102 152.282 13.2684 152.702 13.8358C153.641 15.0254 154.111 16.5871 154.111 18.5265C154.111 20.4659 153.641 22.0275 152.702 23.2171C152.282 23.7845 151.731 24.2427 151.097 24.5531C150.463 24.8635 149.763 25.0171 149.058 25.0009C148.156 25.0009 147.366 24.825 146.724 24.4709C146.077 24.1101 145.542 23.5644 145.116 22.8303M152.008 18.5253C152.008 17.0347 151.701 15.8677 151.084 15.0243C150.475 14.173 149.634 13.7468 148.563 13.7468C148.067 13.7301 147.576 13.8384 147.133 14.0617C146.69 14.2849 146.311 14.616 146.03 15.0243C145.421 15.8699 145.128 17.0358 145.128 18.5253C145.128 20.0148 145.432 21.1864 146.03 22.0377C146.647 22.8833 147.491 23.3039 148.563 23.3039C149.634 23.3039 150.475 22.8822 151.084 22.0377C151.701 21.1864 152.008 20.0148 152.008 18.5253Z" fill="#F1F1F1"/>
</g>
<defs>
<clipPath id="clip0_218_1245">
<rect width="153.347" height="37.2093" fill="white" transform="translate(0.862305 0.395386)"/>
</clipPath>
</defs>
</svg>
