<svg width="97" height="38" viewBox="0 0 97 38" fill="none" xmlns="http://www.w3.org/2000/svg">
<g clip-path="url(#clip0_218_1218)">
<path d="M8.80117 0.535156L9.7904 2.39562C10.0058 2.73122 10.2565 3.04277 10.5382 3.32495C11.3668 4.15353 12.1555 5.02205 12.8615 5.95229C14.5387 8.1549 15.6704 10.6007 16.479 13.2489C16.9636 14.8662 17.2268 16.5234 17.2468 18.2005C17.3285 23.2129 15.6096 27.5173 12.1337 31.0949C11.5705 31.662 10.9622 32.1825 10.315 32.6513C9.97009 32.6513 9.80945 32.3791 9.66788 32.1458C9.39561 31.6921 9.24315 31.1956 9.16238 30.691C9.04076 30.0848 8.95999 29.4785 9.00083 28.8514V28.5683C8.98087 28.5075 8.67775 0.677641 8.79845 0.536064L8.80117 0.535156Z" fill="#D9D9D9"/>
<path d="M8.80122 0.475228C8.76038 0.393549 8.71954 0.455262 8.67961 0.495194C8.69957 0.899051 8.558 1.26298 8.33474 1.60693C8.09243 1.9518 7.76843 2.21317 7.44535 2.49633C5.6466 4.05277 4.23264 5.93229 3.10003 8.03416C1.60439 10.8639 0.816647 13.8951 0.595206 17.0887C0.495376 18.2413 0.958224 22.3035 1.32306 23.4751C2.31228 26.588 4.09107 29.1945 6.4053 31.4579C6.97161 32.0024 7.57785 32.5088 8.20405 32.9934C8.38556 32.9934 8.40644 32.8319 8.44637 32.7103C8.526 32.4522 8.58666 32.1886 8.62788 31.9216C8.80939 30.9115 8.91103 29.9005 9.03173 28.8904L8.80939 0.475228H8.80122Z" fill="#F1F1F1"/>
<path d="M9.79302 33.8837C9.83386 33.4191 10.0653 33.0352 10.2985 32.6513C10.0562 32.5514 9.8738 32.3481 9.73222 32.1249C9.61061 31.9225 9.50987 31.6711 9.4291 31.4578C9.14595 30.6093 9.08423 29.7199 9.00437 28.8505V28.3241C8.90454 28.4058 8.88276 29.0919 8.88276 29.1935C8.82195 30.1228 8.70125 31.0331 8.51974 31.9216C8.45894 32.2846 8.41991 32.6495 8.19666 32.9725C8.19666 33.0134 8.19666 33.0542 8.21662 33.1141C8.57964 34.185 8.68128 35.2768 8.743 36.3885V36.7924C8.743 37.277 8.72303 37.1763 9.12689 37.3369C9.28843 37.3977 9.47175 37.4186 9.63239 37.5393C9.754 37.5393 9.77397 37.4395 9.77397 37.3578L9.71316 36.6907V34.8303C9.6932 34.5072 9.754 34.1832 9.79484 33.8801L9.79302 33.8837Z" fill="#F1F1F1"/>
<path d="M25.1404 25.4312V27.356C25.1383 27.4322 25.1426 27.5085 25.1534 27.584C25.1784 27.8119 25.3183 27.9509 25.5241 28.0149C25.716 28.0654 25.911 28.1035 26.1079 28.1289C26.2219 28.1418 26.2599 28.1919 26.2729 28.3142C26.2858 28.7451 26.2478 28.7961 25.8299 28.7702C24.855 28.7192 23.8791 28.7071 22.9042 28.7702H22.8116C22.5076 28.7831 22.4826 28.7572 22.4826 28.4532C22.4826 28.4022 22.4956 28.3392 22.4956 28.2883C22.4956 28.1956 22.5586 28.1493 22.6475 28.1493C22.8514 28.1242 23.0405 28.0733 23.2314 28.0353C23.4973 27.9722 23.6484 27.8073 23.6743 27.5413C23.7114 27.2503 23.7114 26.9464 23.7114 26.6545L23.7244 23.2608C23.7286 23.1624 23.7046 23.0648 23.6554 22.9795C23.6062 22.8941 23.5337 22.8246 23.4464 22.7789C23.2172 22.6516 22.9748 22.5497 22.7235 22.475C22.6475 22.45 22.5716 22.4379 22.5085 22.399C22.3232 22.31 22.3186 22.146 22.4956 22.0441C22.5586 22.007 22.6346 21.981 22.7106 21.9681C23.4791 21.8546 24.2342 21.6637 24.9643 21.3981C25.1163 21.3472 25.1543 21.3611 25.1682 21.5121C25.1812 21.6048 25.1682 21.716 25.1552 21.8031C25.1302 21.9681 25.1302 22.1321 25.1302 22.285C25.1302 22.348 25.1432 22.412 25.2062 22.45C25.2692 22.4879 25.3332 22.45 25.3915 22.4129C25.6575 22.209 25.9235 22.02 26.2145 21.8569C26.6315 21.6289 27.0763 21.4259 27.5582 21.3629C28.142 21.2869 28.6471 21.4389 29.091 21.8189C29.2745 21.9831 29.4362 22.1703 29.572 22.3758C29.6989 22.5612 29.711 22.5658 29.8759 22.4388C30.3578 22.0839 30.8638 21.7679 31.4087 21.5399C31.9786 21.299 32.5615 21.2619 33.1435 21.4639C33.7385 21.6789 34.1444 22.0969 34.3853 22.6668C34.5892 23.1227 34.6763 23.5935 34.6763 24.0847V27.4783C34.6763 27.7063 34.769 27.849 34.9932 27.9602C35.2342 28.0529 35.5002 28.0992 35.7531 28.1502C35.9181 28.1872 35.9181 28.1872 35.9181 28.3541C35.8931 28.7711 35.8551 28.797 35.4492 28.7711C34.4328 28.7141 33.4139 28.7141 32.3975 28.7711C32.1936 28.7841 32.1936 28.7841 32.1825 28.5811V28.5181C32.1695 28.1752 32.1695 28.1752 32.4995 28.1011L32.8284 28.0121C32.9399 27.9859 33.0393 27.9229 33.1105 27.8333C33.1818 27.7437 33.2209 27.6327 33.2214 27.5182L33.2584 26.5683L33.2334 24.0865C33.2237 23.8649 33.1767 23.6466 33.0944 23.4406C32.7775 22.6677 32.0815 22.3897 31.4096 22.4657C30.9027 22.5167 30.4598 22.7187 30.0418 23.0106C29.9528 23.0736 29.8898 23.1496 29.9028 23.2766C30.0168 24.0875 29.9399 24.8983 29.9538 25.7083V27.469C29.9538 27.786 30.0807 27.938 30.3847 28.014L30.9685 28.1409C31.0575 28.1539 31.1075 28.1919 31.1075 28.2929V28.3856C31.0945 28.7405 31.0705 28.7562 30.7146 28.7525C29.7017 28.7016 28.6879 28.7155 27.6879 28.7525C27.3451 28.7655 27.3173 28.7275 27.333 28.3819C27.346 28.178 27.3701 28.1669 27.561 28.1289L27.978 28.0529C28.3487 27.9769 28.4849 27.8379 28.5099 27.4449L28.547 26.5961L28.522 24.0504C28.497 23.7335 28.4293 23.4295 28.256 23.1385C28.003 22.6696 27.6073 22.4296 27.0652 22.4036C26.5203 22.3665 26.0393 22.5686 25.5825 22.8206C25.2655 23.006 25.1265 23.2256 25.1515 23.5935V25.4423L25.1404 25.4312ZM49.0005 25.5081V27.2939C49.0026 27.4209 49.0109 27.5477 49.0256 27.6738C49.031 27.7579 49.0635 27.838 49.1183 27.902C49.1732 27.966 49.2473 28.0105 49.3295 28.0288C49.548 28.0925 49.7732 28.1307 50.0005 28.1428C50.1274 28.1557 50.1524 28.2058 50.1654 28.3077V28.3967C50.1524 28.8397 50.1024 28.8906 49.6715 28.8656C48.7077 28.8026 47.7467 28.8146 46.7838 28.8656L46.4131 28.8786C46.3372 28.8786 46.3205 28.8415 46.2992 28.7896C46.2622 28.6142 46.2622 28.4331 46.2992 28.2577C46.3121 28.1817 46.3622 28.165 46.4382 28.1437C46.6235 28.1187 46.7811 28.0807 46.9571 28.051C47.2741 27.975 47.3881 27.8471 47.4001 27.5191L47.4372 26.4552V23.3396C47.4372 23.1116 47.3482 22.9726 47.1462 22.8707C46.9182 22.7437 46.6773 22.6557 46.4233 22.5667C46.3473 22.5417 46.2714 22.5158 46.2083 22.4778C46.0434 22.3638 46.023 22.1997 46.1833 22.0728C46.2552 22.0137 46.3435 21.9781 46.4363 21.9708C47.2472 21.8439 48.0321 21.6669 48.792 21.3629C48.881 21.3258 48.919 21.3499 48.957 21.4259C48.995 21.5019 49.0079 21.5909 48.994 21.6789L48.957 22.2739C48.957 22.3499 48.9199 22.4592 48.982 22.4889C49.058 22.5398 49.109 22.4259 49.172 22.3962C49.5459 22.0825 49.959 21.8187 50.4008 21.6113C50.7937 21.4259 51.1978 21.3073 51.6546 21.3333C52.5035 21.3842 53.1114 21.8152 53.5034 22.5621C53.7073 22.955 53.7944 23.385 53.8324 23.8289L53.8695 24.7556L53.8825 27.5543C53.8954 27.7693 53.9714 27.9092 54.1864 27.9852C54.4093 28.0595 54.6381 28.1147 54.8703 28.1502C55.0742 28.1752 55.0853 28.2132 55.0983 28.4032V28.4662C55.0733 28.8971 55.0474 28.9092 54.6164 28.8832C53.6716 28.8326 52.7246 28.8326 51.7798 28.8832C51.6528 28.8962 51.5268 28.8832 51.4091 28.8962C51.3331 28.8962 51.2821 28.8832 51.2701 28.8072C51.245 28.6423 51.2191 28.4782 51.2571 28.3003C51.2701 28.2243 51.3081 28.1863 51.3961 28.1733L51.9799 28.0807C52.1838 28.0297 52.2969 27.8953 52.3228 27.71L52.3478 27.3551L52.3349 24.7084C52.3349 24.4044 52.3219 24.1004 52.2589 23.7965C52.1069 23.1478 51.6129 22.6844 50.9429 22.6195C50.3591 22.5565 49.8309 22.7085 49.3471 23.0245C49.1062 23.1765 49.0042 23.3915 49.0042 23.6575V25.5702C49.0042 25.5331 49.0042 25.5331 49.0172 25.5331L49.0005 25.5081Z" fill="#F1F1F1"/>
<path d="M86.0932 21.9236C85.9542 20.9987 85.6113 20.1758 85.0164 19.4539C84.498 18.8161 83.827 18.3195 83.0656 18.01C82.2687 17.6811 81.4189 17.5791 80.5579 17.5541C80.203 17.5411 75.3656 17.6171 75.0106 17.5541C74.9217 17.5411 74.8586 17.5671 74.8067 17.6431C74.7437 17.7357 74.6798 17.833 74.6418 17.934C74.4898 18.2769 74.4898 18.251 74.8568 18.301C75.1608 18.352 75.4517 18.377 75.7437 18.466C76.0096 18.555 76.1996 18.7069 76.2626 18.9979C76.2876 19.1369 76.3136 23.5944 76.3136 25.6721L76.2626 27.1549C76.2496 27.2689 76.2376 27.3828 76.1996 27.4838C76.1486 27.6358 76.0606 27.7619 75.9086 27.8267C75.7414 27.9054 75.561 27.9525 75.3767 27.9657C75.0338 28.0028 74.9838 28.0167 74.8698 28.3967L74.8327 28.5357C74.8077 28.7006 74.8197 28.7256 74.9847 28.7256L78.7712 28.7627L80.254 28.7377L81.2799 28.6107C82.4447 28.3957 83.4836 27.9138 84.3695 27.1419C84.8756 26.6949 85.2888 26.1527 85.5854 25.5461C85.9403 24.8372 86.0923 24.0633 86.1303 23.2793C86.1933 22.8364 86.1673 22.3804 86.0932 21.9245V21.9236ZM84.2565 23.7214C84.2055 24.5323 84.0415 25.3172 83.6235 26.0261C83.0916 26.951 82.3317 27.5969 81.2808 27.824C80.8248 27.9166 80.3689 27.963 79.8907 27.8999C79.5478 27.8629 79.2198 27.824 78.9028 27.71C78.3329 27.5061 78.13 27.1539 78.1179 26.5979L78.1049 18.9618C78.1049 18.5058 78.3088 18.4057 78.6369 18.3918C79.1308 18.3548 79.6377 18.3668 80.1317 18.4169C80.6575 18.4677 81.1735 18.5925 81.6644 18.7876C82.0292 18.9396 82.3671 19.1492 82.6653 19.4085C83.3492 19.9923 83.8052 20.7244 84.0554 21.5862C84.2592 22.2831 84.2963 22.9921 84.2592 23.701L84.2565 23.7214ZM96.6188 24.9632C96.6188 24.8872 96.6188 24.8242 96.6059 24.7482C96.4919 24.0513 96.124 23.5194 95.555 23.1144C95.188 22.8484 94.77 22.6714 94.3391 22.5445C94.2631 22.5194 94.2001 22.4935 94.1241 22.4814C94.1371 22.4184 94.1751 22.4054 94.2131 22.3925C94.4661 22.2655 94.707 22.1265 94.922 21.9365C95.315 21.6075 95.5707 21.2016 95.707 20.7077C95.7829 20.4417 95.7829 20.1758 95.7579 19.8968C95.7373 19.5705 95.6434 19.253 95.4833 18.968C95.3232 18.6829 95.101 18.4375 94.8331 18.2501C94.2492 17.8191 93.5662 17.6421 92.8573 17.6292C91.4895 17.6041 90.1096 17.6292 88.7427 17.6292C88.3498 17.6292 87.9578 17.6542 87.5519 17.5921C87.4759 17.5791 87.3665 17.555 87.3109 17.6431C87.2182 17.808 87.107 17.972 87.07 18.162C87.057 18.251 87.0829 18.301 87.184 18.314L88.0579 18.441C88.4007 18.4919 88.6417 18.6819 88.6658 18.9859C88.6906 19.1959 88.703 19.4073 88.7028 19.6188L88.6778 21.9866L88.6648 26.672C88.6648 26.9501 88.6278 27.217 88.5759 27.495C88.5634 27.5832 88.5257 27.666 88.4674 27.7334C88.409 27.8008 88.3325 27.8499 88.2469 27.8749C87.9939 27.9509 87.753 28.0269 87.487 28.0269C87.4159 28.0202 87.3446 28.0378 87.2849 28.0768C87.2251 28.1159 87.1804 28.1741 87.158 28.2419C87.107 28.3559 87.0653 28.4828 87.044 28.5968C87.019 28.7488 87.057 28.8007 87.209 28.7822C87.323 28.7692 91.5024 28.8711 92.2874 28.7951C92.7563 28.7442 93.2141 28.6812 93.6802 28.5422C94.4772 28.2892 95.213 27.9213 95.795 27.3004C96.2769 26.7934 96.5549 26.1855 96.5799 25.4766C96.617 25.3116 96.617 25.1476 96.617 24.9697L96.6188 24.9632ZM90.4766 19.7736L90.5136 18.7607C90.5136 18.5707 90.5896 18.4827 90.7796 18.4437C91.0836 18.3807 91.3875 18.4067 91.6915 18.4187C91.9955 18.4437 92.2864 18.4817 92.5904 18.5707C93.1464 18.7357 93.5783 19.0526 93.8322 19.5836C93.9474 19.8251 94.0078 20.089 94.0092 20.3565C94.0222 20.7114 93.9962 21.0534 93.8572 21.3944C93.6422 21.8633 93.3012 22.1673 92.8063 22.2562C92.3115 22.3452 90.9066 22.3072 90.6916 22.3072C90.5016 22.3072 90.4877 22.2822 90.4877 22.0922V20.8995C90.4579 20.5287 90.4536 20.1562 90.4747 19.7847L90.4766 19.7736ZM94.5912 26.5868C94.3762 27.1567 93.9833 27.5506 93.4263 27.7637C93.1223 27.8777 92.8184 27.9491 92.4996 27.9287C92.1067 27.9157 91.7147 27.9287 91.3227 27.8527C90.7907 27.7387 90.5498 27.2318 90.5118 26.8648C90.4488 26.2189 90.4868 25.56 90.4747 25.079V23.4072C90.4747 23.2034 90.4997 23.1413 90.7157 23.1413L91.9065 23.1542L92.7174 23.2469C93.2873 23.3739 93.8063 23.5898 94.2122 24.0318C94.5411 24.3868 94.7191 24.8168 94.7571 25.2857C94.7941 25.7287 94.7701 26.1596 94.6051 26.5775L94.5912 26.5868Z" fill="#F1F1F1"/>
<path d="M62.4127 22.7716L62.7417 22.8225C63.0966 22.8355 63.5146 22.7086 63.6406 22.2146C63.7101 21.9787 63.7101 21.7277 63.6406 21.4918C63.5646 21.4918 63.5266 21.5548 63.4886 21.5807C63.2987 21.7327 63.0837 21.8217 62.8557 21.8467C62.3998 21.8977 61.9438 21.8717 61.5008 21.7077L60.8799 21.4927C60.4469 21.3509 59.9912 21.2912 59.5362 21.3166C58.8903 21.3676 58.2824 21.5826 57.7124 21.8866C57.1045 22.2155 56.6745 22.7095 56.4706 23.3813C56.3566 23.7743 56.3437 24.1783 56.3946 24.5842C56.5216 25.5091 57.0026 26.155 57.8635 26.497C57.9145 26.5099 57.9524 26.534 58.0025 26.5479C58.1165 26.611 58.1295 26.6749 58.0275 26.7629L57.7106 26.9779L56.9507 27.4468C56.7607 27.5608 56.7357 27.6507 56.7987 27.8518C56.8741 28.0884 57.0144 28.299 57.2037 28.4597C57.3774 28.6089 57.5743 28.7287 57.7866 28.8147C57.9256 28.8777 57.9256 28.9074 57.7995 29.0186L57.0767 29.5375C56.8358 29.7229 56.5948 29.9082 56.3928 30.1454C56.2523 30.2958 56.151 30.4785 56.098 30.6773C56.045 30.8761 56.0418 31.085 56.0888 31.2853C56.183 31.7249 56.4132 32.1237 56.7468 32.4252C57.0761 32.7301 57.4766 32.9477 57.9117 33.0581C58.6206 33.262 59.3555 33.2731 60.0774 33.1341C61.1153 32.9441 62.0235 32.4854 62.7371 31.7032C63.231 31.1843 63.522 30.5764 63.548 29.8498C63.5756 29.4296 63.4533 29.0133 63.2029 28.6747C62.9524 28.3362 62.59 28.0975 62.1801 28.001L61.4962 27.8741L59.4065 27.6887C59.1785 27.6757 58.9505 27.6378 58.7605 27.5238C58.5196 27.3718 58.4566 27.0808 58.6086 26.8908C58.7225 26.7518 58.8616 26.6628 59.0395 26.6499L59.4445 26.6128C60.2453 26.5313 60.9972 26.1888 61.5842 25.6379C61.8977 25.3478 62.1218 24.9742 62.2302 24.5611C62.3821 24.0161 62.3821 23.449 62.2552 22.893C62.2181 22.754 62.2302 22.741 62.4072 22.766L62.4127 22.7716ZM59.3082 29.0797C59.3842 29.0927 59.4602 29.0797 59.5362 29.0797C60.0681 29.1047 60.613 29.1427 61.132 29.2836C61.3014 29.3337 61.4666 29.3972 61.6259 29.4736C62.1329 29.7516 62.3228 30.2335 62.2589 30.7524C62.1829 31.3224 61.866 31.7273 61.372 31.9942C61.043 32.1796 60.6751 32.2602 60.2952 32.2982C60.1562 32.3112 60.0292 32.2982 59.8902 32.2982C59.4472 32.3112 59.0163 32.2611 58.5984 32.0832C58.3074 31.9692 58.0664 31.8052 57.8514 31.5763C57.4085 31.1333 57.2027 30.3224 57.8644 29.6635C58.2694 29.2929 58.7263 29.0306 59.3082 29.0797ZM60.7521 25.1282C60.4861 25.7992 59.9032 26.0021 59.3212 25.9131C58.7893 25.8371 58.3963 25.5462 58.1443 25.0643C57.8153 24.4183 57.7273 23.7483 57.9163 23.0505C58.0553 22.5316 58.3722 22.1386 58.9292 22.0497C59.6381 21.9227 60.3193 22.1766 60.677 22.8856C60.8623 23.2284 60.943 23.6455 60.943 24.2404C60.93 24.4814 60.8799 24.8103 60.753 25.1273L60.7521 25.1282ZM44.7959 24.2664C44.6819 23.5824 44.4289 22.9615 43.96 22.4426C43.2631 21.6697 42.3772 21.3305 41.3763 21.3277C40.5024 21.3148 39.6804 21.5687 38.9446 22.0246C38.2212 22.4575 37.691 23.1509 37.4628 23.9624C37.2478 24.6973 37.2589 25.4451 37.4257 26.1912C37.8687 28.1929 39.4144 29.0528 41.2623 28.9268C41.8072 28.8897 42.3262 28.7118 42.8192 28.4709C43.5541 28.128 44.086 27.584 44.453 26.8621C44.744 26.2671 44.87 25.6333 44.858 24.9114L44.7949 24.2654L44.7959 24.2664ZM42.998 27.078C42.9075 27.363 42.7358 27.6153 42.5041 27.8043C42.2724 27.9932 41.9906 28.1105 41.6932 28.1419C41.1372 28.2179 40.6164 28.0789 40.1484 27.749C39.8105 27.5004 39.537 27.1748 39.3505 26.7991C38.8315 25.7352 38.7426 24.6213 39.0076 23.4814C39.0929 23.1287 39.2775 22.8077 39.5396 22.5566C40.0085 22.1257 40.5524 22.0246 41.1613 22.1516C41.7451 22.2786 42.1872 22.5946 42.5514 23.0765C42.9156 23.5584 43.0833 24.1144 43.1843 24.6982C43.2353 24.9892 43.2353 25.2932 43.2473 25.4831C43.2473 26.0911 43.1964 26.5952 43.0064 27.0789L42.998 27.078ZM72.4676 24.3683C72.3749 23.6334 72.1006 22.9625 71.5807 22.4055C70.8968 21.6586 70.0099 21.3417 69.023 21.3287C68.1741 21.3157 67.3892 21.5566 66.6673 21.9746C65.8564 22.4565 65.2994 23.1395 65.0844 24.0643C64.8277 25.0733 64.9353 26.1406 65.3884 27.078C65.8054 27.9649 66.5153 28.5348 67.4531 28.7878C68.491 29.0658 69.4799 28.9398 70.4418 28.4709C71.2777 28.0659 71.8726 27.4329 72.2146 26.5711C72.4185 26.0642 72.4926 25.5202 72.5056 24.8863C72.5186 24.7723 72.4926 24.5694 72.4685 24.3674L72.4676 24.3683ZM70.7198 26.914C70.5159 27.5979 70.0869 28.0409 69.3649 28.1428C68.833 28.2188 68.327 28.0918 67.8701 27.7879C67.4772 27.5219 67.1992 27.167 66.9963 26.75C66.7683 26.307 66.6413 25.8381 66.5913 25.3571C66.5153 24.7622 66.5153 24.1802 66.6543 23.5843C66.6808 23.4668 66.719 23.3522 66.7683 23.2423C67.1232 22.3555 67.9081 21.9505 68.833 22.1535C69.4539 22.2925 69.9219 22.6353 70.2768 23.1543C70.6197 23.6612 70.7837 24.2182 70.8607 24.8224C70.8977 25.0633 70.9116 25.3163 70.8977 25.5313C70.8977 26.0253 70.8607 26.4812 70.7124 26.9242L70.7198 26.914Z" fill="#F1F1F1"/>
</g>
<defs>
<clipPath id="clip0_218_1218">
<rect width="96.1997" height="37.2093" fill="white" transform="translate(0.499756 0.395386)"/>
</clipPath>
</defs>
</svg>
