<svg width="38" height="38" viewBox="0 0 38 38" fill="none" xmlns="http://www.w3.org/2000/svg">
<path d="M17.5484 0.405399C17.4684 0.412672 17.2138 0.43813 16.9847 0.456313C11.7005 0.932726 6.75093 3.78393 3.61606 8.1662C1.87043 10.6028 0.753947 13.3667 0.332085 16.2943C0.182979 17.3162 0.164795 17.6181 0.164795 19.0037C0.164795 20.3893 0.182979 20.6911 0.332085 21.713C1.3431 28.6992 6.31452 34.5689 13.057 36.7437C14.2644 37.1328 15.5373 37.3983 16.9847 37.5583C17.5484 37.6201 19.985 37.6201 20.5487 37.5583C23.0472 37.2819 25.1637 36.6637 27.2512 35.5981C27.5713 35.4345 27.6331 35.3908 27.5894 35.3545C27.5603 35.3326 26.1966 33.5034 24.56 31.2922L21.5852 27.2736L17.8575 21.7567C15.8064 18.7236 14.119 16.2434 14.1044 16.2434C14.0899 16.2398 14.0753 18.6909 14.068 21.684C14.0571 26.9245 14.0535 27.1354 13.988 27.2591C13.8935 27.4373 13.8207 27.51 13.668 27.59C13.5516 27.6482 13.4498 27.6591 12.9007 27.6591H12.2715L12.1042 27.5536C11.9951 27.4846 11.9151 27.3936 11.8605 27.2882L11.7842 27.1245L11.7914 19.8329L11.8024 12.5376L11.9151 12.3957C11.9733 12.3194 12.0969 12.2212 12.1842 12.1739C12.3333 12.1011 12.3915 12.0939 13.0207 12.0939C13.7626 12.0939 13.8862 12.123 14.079 12.3339C14.1335 12.3921 16.1519 15.4324 18.5667 19.0946C20.9815 22.7568 24.2836 27.7573 25.9056 30.2121L28.8514 34.6744L29.0005 34.5762C30.3206 33.7179 31.7171 32.496 32.8227 31.2231C35.1757 28.521 36.6922 25.2261 37.2013 21.713C37.3504 20.6911 37.3686 20.3893 37.3686 19.0037C37.3686 17.6181 37.3504 17.3162 37.2013 16.2943C36.1903 9.30813 31.2189 3.43844 24.4764 1.26367C23.2872 0.878175 22.0216 0.612693 20.6033 0.452676C20.2541 0.416309 17.8503 0.376305 17.5484 0.405399ZM25.1637 11.6575C25.3383 11.7447 25.4801 11.912 25.531 12.0866C25.5601 12.1812 25.5674 14.2032 25.5601 18.76L25.5492 25.2989L24.3964 23.5314L23.2399 21.764V17.0107C23.2399 13.9377 23.2544 12.2103 23.2763 12.1266C23.3345 11.9229 23.4617 11.7629 23.6363 11.6684C23.7854 11.592 23.84 11.5847 24.4109 11.5847C24.9492 11.5847 25.0437 11.592 25.1637 11.6575Z" fill="#F1F1F1"/>
</svg>
