<svg width="260" height="40" viewBox="0 0 260 40" fill="none" xmlns="http://www.w3.org/2000/svg">
<g clip-path="url(#clip0_218_1230)">
<path d="M66.3501 20.7073H56.3452V10.6455H66.8933C70.7542 10.6455 72.6847 12.3484 72.6847 15.7549C72.6847 19.0571 70.5723 20.7091 66.3501 20.7091M73.5408 10.5283C72.1613 9.30053 70.2516 8.68665 67.7865 8.68665L53.4586 8.76597V32.8384H56.3452L56.3194 22.5904H66.9813C69.6541 22.5904 71.7595 21.9765 73.2951 20.7487C74.8307 19.521 75.5989 17.8173 75.5989 15.6385C75.5989 13.4597 74.9134 11.7569 73.5425 10.5283H73.5408ZM92.2263 27.7834C91.9502 28.5708 91.4788 29.2754 90.8563 29.8311C89.563 31.0933 87.5903 31.7236 84.9364 31.7236C82.5395 31.7236 80.7013 31.12 79.4184 29.8837C78.1355 28.6473 77.4931 27.0152 77.4931 24.958C77.4931 23.8871 77.6612 22.9361 77.9966 22.1067C78.332 21.2773 78.8192 20.5772 79.4572 20.0064C80.785 18.7967 82.6111 18.1915 84.9373 18.1915C90.0898 18.1915 92.6669 20.447 92.6669 24.958C92.6669 26.0297 92.5203 26.9712 92.2358 27.7834M92.7591 18.9028C91.0002 17.2991 88.3964 16.4886 84.9459 16.4886C81.6868 16.4886 79.1675 17.3077 77.3914 18.9459C75.7877 20.4289 74.9772 22.4291 74.9772 24.9485C74.9772 27.4488 75.8049 29.4664 77.4604 31.0011C78.3743 31.8288 79.4391 32.4289 80.6556 32.7996C81.8722 33.1703 83.2991 33.3557 84.9373 33.3557C88.3688 33.3557 90.9726 32.5625 92.7764 30.9761C94.38 29.5276 95.1905 27.5273 95.1905 24.9476C95.1905 22.361 94.38 20.3435 92.7591 18.8933V18.9028ZM114.588 28.4792C114.588 31.7193 111.685 33.3393 105.88 33.3393C104.106 33.3393 102.611 33.2272 101.397 33.0014C100.183 32.7755 99.1954 32.4021 98.4375 31.8822C97.8526 31.4865 97.3733 30.9537 97.0416 30.3303C96.6967 29.6923 96.4726 28.8904 96.3691 27.9161L99.0704 27.8903C99.0704 29.1663 99.5428 30.1044 100.489 30.7079C101.503 31.4322 103.299 31.7943 105.88 31.7943C109.937 31.7943 111.967 30.7769 111.967 28.7438C111.967 27.554 111.277 26.7367 109.925 26.2866C109.649 26.2004 108.009 25.9719 105.011 25.602C102.013 25.2321 100.131 24.8993 99.3911 24.6062C97.7892 23.9682 96.9882 22.8214 96.9882 21.1678C96.9882 19.5468 97.7038 18.3398 99.1437 17.5483C99.8507 17.2206 100.734 16.9671 101.796 16.7852C102.857 16.6033 104.086 16.5136 105.483 16.5136C111.071 16.5136 113.866 18.2673 113.866 21.773H111.296C111.296 19.3071 109.33 18.0656 105.403 18.0656C103.405 18.0656 101.914 18.3242 100.932 18.8157C99.9498 19.3071 99.4592 20.0831 99.4592 21.1177C99.4592 22.0834 100.123 22.7818 101.449 23.2129C102.225 23.437 104.008 23.6957 106.8 23.9889C109.299 24.213 111.013 24.532 111.944 24.9373C113.72 25.627 114.606 26.7996 114.606 28.4524L114.588 28.4792ZM125.198 32.8703L124.099 33.0255L123.414 33.0772C121.655 33.0772 120.396 32.8229 119.609 32.3125C118.821 31.802 118.442 30.9097 118.442 29.6397V18.6424H115.247V17.0266H118.426L118.452 11.8362H120.914V17.0266H125.203V18.6683L120.914 18.6424V29.331C120.914 30.1268 121.125 30.676 121.548 30.9692C121.97 31.2623 122.724 31.4227 123.81 31.4227C123.965 31.4399 124.138 31.4348 124.327 31.4054C124.615 31.3542 124.9 31.2892 125.181 31.2106L125.207 32.8487L125.198 32.8703ZM142.231 29.2232C141.558 29.775 140.793 30.1958 139.931 30.4907C139.07 30.7855 138.079 30.9217 136.96 30.9217C131.81 30.9217 129.235 28.7947 129.235 24.5415C129.235 22.5611 129.894 21.0108 131.212 19.8908C132.53 18.7709 134.385 18.2113 136.78 18.2113C139.192 18.2113 141.022 18.776 142.271 19.9038C143.519 21.0315 144.144 22.5438 144.144 24.4389C144.144 26.5056 143.506 28.0989 142.232 29.2181M146.607 17.031H144.145L144.119 19.7469C143.033 18.6433 142.257 17.9475 141.791 17.6543C140.412 16.8956 138.629 16.5179 136.44 16.5179C133.234 16.5179 130.785 17.2508 129.097 18.7148C127.493 20.0598 126.693 22.0058 126.693 24.5553C126.693 25.8141 126.896 26.9367 127.301 27.9179C127.706 28.899 128.298 29.7483 129.075 30.4372C130.766 31.8495 133.157 32.5565 136.248 32.5565C139.959 32.5565 142.591 31.5417 144.146 29.5112V32.3219C144.146 34.1153 143.581 35.5017 142.452 36.4846C141.324 37.4675 139.467 37.9503 136.881 37.9503C134.45 37.9503 132.718 37.6055 131.685 36.9468C130.909 36.432 130.374 35.5397 130.081 34.2696H127.546C127.822 36.0432 128.581 37.3261 129.788 38.1176C131.202 39.0298 133.581 39.4859 136.944 39.4859C143.376 39.4859 146.6 37.095 146.6 32.3125V17.0378L146.607 17.031ZM159.928 18.6286C159.187 18.5079 158.499 18.4562 157.862 18.4562C153.814 18.4562 151.791 20.6763 151.791 25.1149V32.835H149.354L149.328 17.0378L151.792 17.062V19.8814H151.921C152.335 18.7709 152.99 17.9285 153.885 17.3551C154.866 16.7999 156.33 16.5223 158.277 16.5223H159.93V18.6433L159.928 18.6286ZM162.219 23.938C162.53 22.1429 163.228 20.753 164.312 19.7684C165.019 19.1994 165.821 18.7709 166.715 18.4863C167.61 18.2018 168.612 18.0587 169.74 18.0587C171.928 18.0587 173.706 18.6588 175.103 19.8589C176.5 21.0591 177.182 22.4197 177.182 23.9371L162.219 23.938ZM177.422 19.064C176.56 18.1992 175.491 17.5603 174.215 17.1448C172.939 16.7292 171.456 16.5223 169.731 16.5223C166.541 16.5223 164.067 17.2637 162.306 18.7467C160.546 20.2297 159.668 22.2472 159.668 24.801C159.668 27.3549 160.513 29.3707 162.203 30.8795C164.031 32.5349 166.6 33.3626 169.935 33.3626C171.263 33.3626 172.49 33.2117 173.619 32.9117C174.749 32.6116 175.736 32.1857 176.58 31.6356C178.063 30.5708 179.001 29.256 179.399 27.6954H176.737C175.823 30.3967 173.549 31.7477 169.913 31.7477C167.346 31.7477 165.372 31.0873 163.994 29.7664C162.805 28.6343 162.211 27.1678 162.211 25.3658H179.768C179.768 22.6861 178.992 20.5849 177.414 19.0718L177.422 19.064Z" fill="#F1F1F1"/>
<path d="M205.794 26.3831C205.794 31.0735 202.012 33.4186 194.446 33.4186C189.914 33.4186 186.604 32.6108 184.52 31.0045C182.813 29.6767 181.961 27.6523 181.961 24.9278H185.006C185.006 29.306 188.153 31.4951 194.445 31.4951C197.463 31.4951 199.644 31.0467 200.998 30.1518C202.136 29.3603 202.705 28.1196 202.705 26.4323C202.705 24.7614 201.929 23.5905 200.377 22.918C199.498 22.5559 197.359 22.0989 193.937 21.5488C189.643 20.8936 186.86 20.24 185.584 19.5856C183.739 18.62 182.825 16.9844 182.825 14.6763C182.825 12.5234 183.601 10.9214 185.178 9.87042C186.868 8.71681 189.765 8.13914 193.868 8.13914C201.282 8.13914 204.99 10.6016 204.99 15.5264H201.918C201.918 11.8362 199.165 9.99285 193.66 9.99285C190.898 9.99285 188.879 10.3636 187.602 11.1137C186.393 11.9069 185.791 13.0709 185.791 14.6056C185.791 16.2093 186.567 17.3387 188.119 17.994C188.947 18.3734 191.378 18.8993 195.413 19.5718C199.207 20.1409 201.768 20.8048 203.087 21.5549C204.898 22.486 205.803 24.0983 205.803 26.3831H205.794ZM230.539 28.7766C229.401 29.6879 228.115 30.3717 226.683 30.8286C225.251 31.2856 223.645 31.5123 221.868 31.5123C218.244 31.5123 215.316 30.5355 213.079 28.5826C210.842 26.6297 209.728 24.0268 209.728 20.7737C209.728 17.3836 210.836 14.7418 213.053 12.8484C215.271 10.9551 218.209 10.0092 221.867 10.0092C225.577 10.0092 228.494 10.999 230.617 12.9778C231.738 13.9434 232.565 15.0694 233.102 16.3602C233.638 17.6509 233.904 19.1226 233.904 20.7746C233.904 24.1475 232.781 26.8151 230.538 28.7757M232.157 30.3725C233.743 29.2534 234.917 27.898 235.677 26.3047C236.437 24.7114 236.817 22.8732 236.817 20.7884C236.817 17.0508 235.575 14.0633 233.092 11.7974C231.764 10.5576 230.161 9.63591 228.281 9.03323C226.402 8.43056 224.255 8.12793 221.841 8.12793C217.15 8.12793 213.477 9.26603 210.804 11.5379C208.132 13.8098 206.795 16.8938 206.795 20.7867C206.795 24.5751 208.144 27.6325 210.842 29.9569C213.539 32.2814 217.224 33.4445 221.895 33.4445C223.723 33.4445 225.316 33.3212 226.677 33.0738C228.039 32.8263 229.195 32.447 230.143 31.9357L234.642 35.0542L236.522 33.3281L232.165 30.3734L232.157 30.3725ZM259.618 32.8358H238.799V8.72888L241.66 8.67715V30.8157H259.635L259.609 32.828L259.618 32.8358Z" fill="#D9D9D9"/>
<g clip-path="url(#clip1_218_1230)">
<path d="M42.4455 23.893C42.9722 25.7572 40.0463 27.0446 39.1518 27.3874C38.1068 27.8054 36.3931 28.0812 34.8967 28.0812C34.5205 28.0812 34.161 28.0645 33.835 28.0227C33.5925 29.8368 33.1996 32.4367 32.9656 33.5987C32.372 36.5162 30.7419 37.9625 27.3478 38.5727C26.8044 38.6731 26.2861 38.7232 25.7929 38.7232C22.3319 38.7232 21.1616 36.2487 20.777 35.4378C20.242 34.3009 20.0999 31.283 20.0832 28.9005C19.1385 29.3352 18.0685 29.5609 16.9232 29.5609C16.2377 29.5609 15.5354 29.4857 14.8249 29.3352C14.3484 29.2349 13.0108 28.8754 12.4925 27.9391C11.6565 28.6748 10.762 29.0593 9.80901 29.0677C9.39938 29.0677 8.97304 28.9841 8.55505 28.8336C3.65623 27.0112 0.763749 13.761 0.638353 11.7797C0.420999 8.17665 1.43253 5.50152 3.63951 3.83793C5.24458 2.6174 7.4432 1.99878 10.1685 1.99878C13.1362 1.99878 15.9785 2.75116 17.1823 3.11063C18.6704 2.32481 20.4176 1.92354 22.3905 1.92354H22.566C23.6193 1.94026 24.6476 2.04894 25.634 2.24122L25.7594 2.21614C26.4449 2.03222 28.5349 1.51392 31.093 1.51392C35.3063 1.51392 38.8257 2.91 41.2584 5.55168C43.8834 8.38564 41.0996 16.9293 36.8445 22.9985C36.9532 23.0069 37.0786 23.0069 37.2123 23.0069C37.9062 23.0069 38.7589 22.9233 39.7453 22.7477C39.9125 22.7226 40.2302 22.6641 40.5813 22.6641C41.9607 22.6641 42.3452 23.5252 42.4455 23.893ZM38.8425 26.6099C39.1685 26.4845 41.9857 25.3392 41.643 24.1187C41.5092 23.6171 41.0244 23.5001 40.5813 23.5001C40.2971 23.5001 40.0296 23.5502 39.8791 23.5753C38.7422 23.776 37.8727 23.8428 37.2123 23.8428C36.1841 23.8428 35.6574 23.6756 35.4066 23.5419C40.2553 17.2303 42.897 8.55284 40.6482 6.12015C37.8727 3.11063 34.1359 2.34989 31.093 2.34989C28.6603 2.34989 26.6623 2.83476 25.9183 3.04375C25.8848 3.04375 25.843 3.04375 25.8012 3.06047V3.07719C25.8012 3.07719 25.726 3.10227 25.7009 3.11063C24.7312 2.90164 23.6862 2.77624 22.5577 2.75952H22.3905C20.4008 2.75952 18.6954 3.18587 17.2743 4.01348C16.4467 3.74597 13.387 2.83476 10.1685 2.83476C8.02002 2.83476 5.81305 3.24439 4.14109 4.50671C2.16819 5.99475 1.27369 8.42744 1.47433 11.7295C1.61645 13.995 4.60088 26.4678 8.84764 28.0478C9.11515 28.1481 9.44118 28.2317 9.80901 28.2317C10.5029 28.2234 11.3305 27.9475 12.2083 27.0613C13.7632 25.473 15.2011 24.1689 15.6525 23.7592C16.4132 24.1187 17.2576 24.3277 18.127 24.3444C17.9849 24.4865 17.8595 24.6203 17.7508 24.7373C17.1656 25.3643 17.0318 25.5148 15.1007 25.8492C14.1895 26.008 13.1362 26.3006 13.1195 27.1031C13.1028 28.0645 14.6828 28.4491 15.0004 28.5159C15.6692 28.6581 16.3129 28.7249 16.9232 28.7249C18.4781 28.7249 19.8407 28.2735 20.9191 27.4041C20.8857 30.748 21.0529 34.0668 21.5294 35.0784C21.9139 35.8893 22.8586 37.8872 25.7929 37.8872C26.2192 37.8872 26.6874 37.8454 27.1973 37.7535C30.2821 37.1934 31.6196 36.023 32.1463 33.4315C32.4138 32.1023 32.8987 28.8085 33.1244 27.0363C33.6093 27.1784 34.2279 27.2453 34.8967 27.2453C36.3011 27.2453 37.9145 26.9778 38.8425 26.6099Z" fill="#D9D9D9"/>
<path d="M13.9553 22.4468C12.8769 21.2764 12.4004 19.7298 12.6512 18.2C12.9521 16.3859 12.8435 14.7809 12.785 13.9198C12.7682 13.6941 12.7599 13.5352 12.7515 13.4266V13.3931C12.7432 13.1925 12.6261 8.41907 15.6858 5.30924C15.8446 5.15041 16.0202 4.99993 16.1874 4.84945C14.9083 4.5067 12.5843 3.97168 10.2269 3.97168C8.30412 3.97168 6.35629 4.32279 4.92677 5.40956C3.28826 6.65516 2.54424 8.75346 2.71144 11.6543C2.85355 13.9198 5.87143 25.6736 9.34073 26.9694C9.533 27.0363 9.71692 27.0781 9.90919 27.0781C10.4275 27.0781 10.9458 26.8022 11.4892 26.2504C12.8435 24.8711 14.0974 23.7091 14.7244 23.1323C14.4485 22.9316 14.1894 22.7059 13.9553 22.4468Z" fill="#F1F1F1"/>
<path d="M20.0412 12.8497C19.6316 12.2896 18.8709 12.1308 18.4445 12.089C18.3024 12.0723 18.1519 12.0555 18.0098 12.0555C17.2909 12.0555 16.8729 12.2729 16.6472 12.5237C15.4266 12.7828 14.2813 13.3179 13.9052 13.577C13.9135 13.6523 13.9135 13.7359 13.9219 13.8362C13.9804 14.6805 14.1058 16.4361 13.7798 18.3922C13.5875 19.5793 13.9469 20.7497 14.7996 21.6693C15.6858 22.6306 16.9481 23.1907 18.3024 23.1907H18.3943C18.5365 22.731 18.7455 22.2377 18.9795 21.7194L19.0715 21.5104C19.1885 21.2429 19.3306 20.9754 19.4728 20.6995C20.1583 19.4121 21.0026 17.8071 20.1081 14.0535C20.1666 13.9448 20.2084 13.8278 20.2335 13.7108C20.2836 13.3931 20.2084 13.1005 20.0412 12.8497ZM19.1969 13.878C18.9962 14.0452 18.6869 14.1873 18.3525 14.1873C18.3024 14.1873 18.2606 14.1873 18.2104 14.1789C17.7841 14.1288 17.4413 13.8613 17.2825 13.6439C17.1822 13.5101 17.1404 13.3931 17.1571 13.2844C17.1989 13.0002 17.5751 12.8915 18.0098 12.8915C18.1185 12.8915 18.2355 12.8999 18.3525 12.9166C18.7204 12.9584 19.1802 13.0838 19.3474 13.3095C19.4142 13.4098 19.4226 13.5018 19.4142 13.5603C19.3975 13.6606 19.3139 13.7777 19.1969 13.878Z" fill="#F1F1F1"/>
<path d="M17.0482 27.5796C18.4025 27.5796 19.8488 27.1867 20.9522 25.8826C21.0609 25.7489 21.086 25.5817 21.0275 25.381C20.9439 25.055 20.6596 24.7457 20.3671 24.6454C20.2166 24.5868 20.0828 24.545 19.9407 24.545C19.7652 24.545 19.5812 24.6203 19.3304 24.8544C19.0546 25.1135 18.8539 25.3309 18.6867 25.5064C17.926 26.3257 17.6083 26.5848 15.393 26.9694C15.0335 27.0363 14.7911 27.0948 14.6239 27.1533C14.8162 27.2369 15.067 27.3288 15.3345 27.3874C15.8611 27.496 16.4463 27.5796 17.0482 27.5796Z" fill="#F1F1F1"/>
<path d="M33.9688 23.3998C33.8935 23.3079 33.8099 23.2243 33.7347 23.1407C33.3334 22.7143 32.79 22.1375 32.3637 21.2681C32.3052 21.1427 32.0878 20.825 31.8705 20.4823C30.5413 18.4592 28.0668 14.7057 29.4545 12.4987C30.0648 11.5289 31.2602 11.0524 33.091 11.0524C33.4588 11.0524 33.8434 11.0775 34.2614 11.111C33.5006 9.23001 30.232 3.9968 22.6413 3.89648H22.3989C19.8993 3.89648 17.9431 4.65722 16.5052 6.11182C14.6243 8.02621 14.0893 10.7431 13.9471 12.2479C14.9336 11.7547 16.2962 11.3785 17.0737 11.2865C17.3579 11.2531 17.6254 11.2364 17.8762 11.2364C19.6234 11.2364 20.7771 12.0222 21.1533 13.5019C22.2651 17.8824 21.2369 19.8218 20.4845 21.2346C20.3507 21.4854 20.2253 21.7279 20.1166 21.9619L20.0247 22.1793C19.8241 22.6474 19.6401 23.0738 19.5231 23.4583C19.6736 23.4165 19.8157 23.4082 19.9495 23.4082C20.2838 23.4082 20.5597 23.5001 20.7436 23.567C21.4041 23.7927 21.9474 24.3863 22.1314 25.0801C22.1481 25.1303 22.1481 25.1888 22.1564 25.239C22.1899 25.3142 22.2149 25.3894 22.2066 25.4814C22.0478 30.2381 22.3153 33.8412 22.6664 34.5768C23.0426 35.3626 23.6863 36.7336 25.8765 36.7336C26.236 36.7336 26.6373 36.7002 27.0887 36.6166C30.0397 36.0816 30.7419 35.0868 31.1265 33.1975C31.2853 32.3782 31.5361 30.8066 31.7534 29.3185C31.9708 27.8221 32.1631 26.4177 32.2049 25.9328C32.1129 24.0101 33.3084 23.567 33.9688 23.3998Z" fill="#F1F1F1"/>
<path d="M40.1298 24.704C38.9761 24.9046 38.0399 24.9798 37.2875 24.9798C35.8914 24.9798 35.1223 24.704 34.696 24.3947C34.5956 24.4197 34.4953 24.4448 34.395 24.4699C33.8015 24.612 33.2915 24.7374 33.3417 25.8576C33.559 26.0081 34.2027 26.0833 34.9885 26.0833C36.1171 26.0833 37.5633 25.9161 38.5247 25.5399C39.2269 25.2641 39.762 24.9548 40.1298 24.704Z" fill="#F1F1F1"/>
<path d="M34.4282 12.2813C34.1941 12.2562 33.9684 12.2395 33.7594 12.2228C33.5337 11.9971 33.1491 11.8048 32.472 11.8048C32.3299 11.8048 32.1794 11.8048 32.0289 11.8299C31.636 11.8717 30.9087 12.0222 30.5409 12.5154C30.3737 12.7411 30.2984 13.017 30.3319 13.2845C29.5962 14.9397 31.8366 18.3589 32.8231 19.8553C33.1073 20.29 33.2996 20.5742 33.3916 20.7748C33.5169 21.0173 33.6507 21.2263 33.7845 21.4269C34.5619 20.1061 34.378 18.7936 34.1857 17.4226C34.0938 16.7705 34.0018 16.0934 34.0269 15.4329C34.052 14.7642 34.1523 14.2124 34.2442 13.6774C34.3362 13.1925 34.4114 12.7578 34.4282 12.2813ZM33.2244 13.0421C33.1993 13.1173 33.1575 13.1842 33.1157 13.2427C32.9652 13.4433 32.6559 13.6941 32.2546 13.7359C32.2128 13.7359 32.171 13.7359 32.1209 13.7359C31.7698 13.7359 31.4604 13.5687 31.2933 13.4015C31.218 13.3263 31.1679 13.251 31.1595 13.1842C31.1511 13.1424 31.1595 13.0755 31.2097 13.0086C31.2431 12.9668 31.2849 12.925 31.3434 12.8916H31.3518C31.5273 12.7745 31.8116 12.6826 32.1292 12.6491C32.2463 12.6324 32.3633 12.6324 32.472 12.6324C32.4971 12.6324 32.5221 12.6324 32.5472 12.6324C32.89 12.6324 33.1742 12.716 33.2244 12.8999V12.925C33.2244 12.925 33.2327 12.9919 33.2244 13.0253V13.0421Z" fill="#F1F1F1"/>
<path d="M35.5905 11.6125C35.5989 11.7128 35.5822 11.8048 35.5655 11.88C35.5905 12.6324 35.4819 13.2677 35.3732 13.8864C35.2812 14.3796 35.1893 14.8895 35.1642 15.4831C35.1475 16.0348 35.2311 16.6284 35.323 17.2637C35.5404 18.8103 35.7661 20.5575 34.5456 22.3381C34.5539 22.3381 34.5623 22.3464 34.5623 22.3548C34.6375 22.4384 34.7128 22.5136 34.788 22.5889C39.6952 16.085 41.4256 8.52776 39.9042 6.88088C37.4046 4.17232 33.9437 3.50354 31.1264 3.50354C29.8975 3.50354 28.794 3.62894 27.9497 3.77105C33.1913 5.83591 35.4902 10.4171 35.5905 11.6125Z" fill="#F1F1F1"/>
</g>
</g>
<defs>
<clipPath id="clip0_218_1230">
<rect width="259.07" height="39.5349" fill="white" transform="translate(0.79248 0.232544)"/>
</clipPath>
<clipPath id="clip1_218_1230">
<rect width="42.3256" height="37.6744" fill="white" transform="translate(0.604614 1.39539)"/>
</clipPath>
</defs>
</svg>
