<svg width="38" height="38" viewBox="0 0 38 38" fill="none" xmlns="http://www.w3.org/2000/svg">
<path d="M33.5756 0.395386H3.63372C1.62718 0.395386 0 2.02257 0 4.02911V33.971C0 35.9775 1.62718 37.6047 3.63372 37.6047H33.5756C35.5821 37.6047 37.2093 35.9775 37.2093 33.971V4.02911C37.2093 2.02257 35.5821 0.395386 33.5756 0.395386ZM21.5843 21.0407H16.9172V34.3343H13.2202V21.0407H8.57558V18.0553H21.5843V21.0407ZM33.6395 31.9775C32.9158 33.2726 31.585 34.001 30.1701 34.3024C28.5269 34.6524 26.7797 34.6335 25.1315 34.3249C24.3241 34.1737 23.625 33.9463 23.0334 33.6432V30.0044C23.6933 30.5582 24.4099 30.9731 25.1831 31.2493C25.9564 31.5262 26.7376 31.6643 27.5262 31.6643C28.2241 31.6643 29.0007 31.5782 29.6017 31.1926C30.014 30.9295 30.2899 30.5144 30.29 30.0162C30.29 29.3385 29.7998 28.8263 29.2718 28.4703C28.4985 27.9489 27.6094 27.6104 26.7529 27.2537C25.4789 26.7232 24.5291 26.075 23.9033 25.3097C22.8146 23.9782 22.6363 21.8503 23.4767 20.3468C24.194 19.0637 25.5167 18.3057 26.9121 17.9703C28.4336 17.6045 30.0839 17.6042 31.6265 17.8453C32.282 17.9478 32.8866 18.1048 33.4404 18.317V21.7167C33.1672 21.527 32.8699 21.3606 32.5472 21.2167C31.911 20.933 31.2243 20.7411 30.5342 20.6476C29.8438 20.5553 29.1178 20.5393 28.436 20.6992C27.8989 20.8238 27.3347 21.0721 27.0254 21.5517C26.8968 21.753 26.8321 21.9783 26.8321 22.2283C26.8321 22.5008 26.9041 22.7457 27.0479 22.9615C27.4129 23.509 28.0533 23.8615 28.6294 24.144C29.6397 24.6395 30.7 25.0125 31.6715 25.588C32.6137 26.1441 33.4515 26.9202 33.8612 27.9529C34.0581 28.4492 34.157 29.027 34.157 29.6862C34.157 30.596 33.9847 31.3598 33.6395 31.9775Z" fill="#F1F1F1"/>
</svg>
