<svg width="107" height="38" viewBox="0 0 107 38" fill="none" xmlns="http://www.w3.org/2000/svg">
<path fill-rule="evenodd" clip-rule="evenodd" d="M35.36 0.40297H43.9096L22.3215 37.6047L0.591187 0.40297H9.33527L22.3215 22.7991L35.36 0.40297Z" fill="#F1F1F1"/>
<path fill-rule="evenodd" clip-rule="evenodd" d="M27.2802 0.395386H35.4116L22.3101 22.8382L9.31374 0.395386H17.3181L22.3101 9.03552L27.2802 0.395386Z" fill="#D9D9D9"/>
<path fill-rule="evenodd" clip-rule="evenodd" d="M49.0112 7.73969C49.0112 7.46525 49.1636 7.23655 49.4683 7.05357C49.773 6.87061 50.0915 6.77912 50.4239 6.77912C50.8856 6.77912 51.1718 6.95293 51.2826 7.30058L56.1577 23.6025L61.0051 7.30058C61.1344 6.95296 61.4114 6.77912 61.8361 6.77912C62.1869 6.77912 62.5147 6.87975 62.8194 7.08101C63.1241 7.28227 63.2764 7.51097 63.2764 7.76713C63.2764 7.78542 63.2719 7.81287 63.2626 7.84946C63.2533 7.88605 63.2487 7.92265 63.2487 7.95924L57.6258 26.2097C57.4226 26.7403 56.9333 27.0056 56.1577 27.0056C55.3821 27.0056 54.9112 26.7403 54.745 26.2097L49.0669 7.95924C49.03 7.84946 49.0112 7.77628 49.0112 7.73969ZM63.4947 21.791V14.6556C63.4947 14.4361 63.6101 14.244 63.8409 14.0793C64.0718 13.9146 64.3442 13.8323 64.6581 13.8323C64.9536 13.8323 65.2167 13.9192 65.4475 14.093C65.6784 14.2668 65.7938 14.4544 65.7938 14.6556V21.791C65.7938 22.6143 66.1077 23.3553 66.7355 24.0139C67.3634 24.6726 68.1113 25.0019 68.9792 25.0019C69.8287 25.0019 70.5673 24.6772 71.1951 24.0277C71.823 23.3782 72.1369 22.6326 72.1369 21.791V14.6278C72.1369 14.4265 72.2523 14.2435 72.4832 14.0789C72.714 13.9142 72.9864 13.8319 73.3003 13.8319C73.6327 13.8319 73.9051 13.9097 74.1175 14.0652C74.3298 14.2207 74.436 14.4082 74.436 14.6278V21.791C74.436 23.1998 73.8959 24.4302 72.8156 25.4822C71.7354 26.5343 70.4565 27.0603 68.9793 27.0603C67.4835 27.0603 66.1955 26.5343 65.1152 25.4822C64.0349 24.4302 63.4947 23.1998 63.4947 21.791ZM76.3158 21.7361V18.8544C76.3158 17.4456 76.856 16.229 77.9362 15.2043C79.0165 14.1798 80.3137 13.6675 81.828 13.6675C83.2684 13.6675 84.5148 14.1477 85.5674 15.1083C86.62 16.0689 87.1463 17.2718 87.1463 18.7172C87.1463 19.2478 87.0817 19.6732 86.9524 19.9934C86.8231 20.3136 86.6246 20.5423 86.3569 20.6795C86.0891 20.8168 85.8398 20.9037 85.609 20.9403C85.3781 20.9768 85.0688 20.9952 84.681 20.9952H78.6147V21.8185C78.6147 22.8248 78.9795 23.6298 79.7089 24.2336C80.4383 24.8374 81.3847 25.1392 82.5481 25.1392C83.1575 25.1392 83.6884 25.0478 84.1408 24.8648C84.5932 24.6818 84.9579 24.5035 85.2349 24.3297C85.5119 24.1559 85.7335 24.0689 85.8997 24.0689C86.1582 24.0689 86.3798 24.1833 86.5645 24.412C86.7492 24.6407 86.8415 24.874 86.8415 25.1118C86.8415 25.5326 86.4214 25.9626 85.5812 26.4017C84.741 26.8408 83.7022 27.0603 82.465 27.0603C80.6553 27.0603 79.178 26.5709 78.0331 25.5921C76.8882 24.6132 76.3158 23.3279 76.3158 21.7361ZM78.6148 19.4582H83.7392C84.2194 19.4582 84.5425 19.3988 84.7087 19.2798C84.875 19.1609 84.958 18.9276 84.958 18.58C84.958 17.7567 84.6533 17.034 84.044 16.4119C83.4346 15.7898 82.6867 15.4788 81.8003 15.4788C80.9324 15.4788 80.1845 15.767 79.5566 16.3433C78.9288 16.9196 78.6149 17.6286 78.6149 18.4702L78.6148 19.4582ZM88.3063 25.5782C88.3063 25.1757 88.4448 24.8327 88.7218 24.5491C88.9988 24.2655 89.3404 24.1237 89.7467 24.1237C90.1345 24.1237 90.4668 24.2655 90.7438 24.5491C91.0208 24.8327 91.1593 25.1757 91.1593 25.5782C91.1593 25.9624 91.0208 26.2964 90.7438 26.5799C90.4668 26.8635 90.1345 27.0053 89.7467 27.0053C89.3404 27.0053 88.9988 26.8635 88.7218 26.5799C88.4448 26.2963 88.3063 25.9625 88.3063 25.5782ZM90.3526 32.1375C90.3526 31.8447 90.4449 31.6023 90.6296 31.4102C90.8143 31.2181 91.0358 31.122 91.2944 31.122C92.0145 31.122 92.4855 30.8567 92.7071 30.3262C92.9287 29.7956 93.0395 28.9997 93.0395 27.9385V14.628C93.0395 14.3901 93.1457 14.198 93.358 14.0517C93.5704 13.9053 93.8428 13.8321 94.1752 13.8321C94.5076 13.8321 94.7845 13.9053 95.0061 14.0517C95.2277 14.198 95.3385 14.3901 95.3385 14.628V27.9385C95.3385 29.5303 95.0246 30.7927 94.3967 31.7258C93.7689 32.659 92.8179 33.1255 91.5437 33.1255C90.7497 33.1255 90.3526 32.7961 90.3526 32.1375ZM92.7347 8.947C92.7347 8.59937 92.8732 8.2975 93.1502 8.04134C93.4272 7.78519 93.7688 7.65712 94.1751 7.65712C94.5629 7.65712 94.8953 7.78519 95.1723 8.04134C95.4493 8.29748 95.5877 8.59937 95.5877 8.947C95.5877 9.29462 95.4493 9.6011 95.1723 9.86639C94.8953 10.1317 94.5629 10.2643 94.1751 10.2643C93.7873 10.2643 93.4503 10.1317 93.164 9.86639C92.8778 9.60109 92.7347 9.29462 92.7347 8.947ZM97.0524 24.9743C97.0524 24.7364 97.1308 24.5031 97.2878 24.2745C97.4448 24.0458 97.6341 23.9314 97.8556 23.9314C98.0034 23.9314 98.2157 24.0412 98.4927 24.2607C98.7697 24.4803 99.1667 24.6953 99.6838 24.9057C100.201 25.1161 100.81 25.2213 101.512 25.2213C102.435 25.2213 103.105 25.0566 103.52 24.7273C103.936 24.398 104.143 23.9863 104.143 23.4923C104.143 22.8885 103.913 22.4082 103.451 22.0514C102.989 21.6947 102.426 21.4248 101.761 21.2419C101.096 21.0589 100.432 20.8576 99.7668 20.6381C99.102 20.4185 98.5388 20.0526 98.0771 19.5403C97.6155 19.028 97.3846 18.351 97.3846 17.5094C97.3846 16.4666 97.7586 15.5655 98.5064 14.8062C99.2543 14.0469 100.395 13.6672 101.927 13.6672C102.906 13.6672 103.802 13.8182 104.614 14.1201C105.427 14.422 105.833 14.765 105.833 15.1492C105.833 15.3688 105.745 15.6158 105.57 15.8902C105.394 16.1646 105.177 16.3019 104.919 16.3019C104.845 16.3019 104.489 16.1692 103.852 15.9039C103.215 15.6386 102.583 15.506 101.955 15.506C101.106 15.506 100.473 15.7027 100.058 16.096C99.6421 16.4894 99.4343 16.9331 99.4343 17.4271C99.4343 17.9394 99.6652 18.3419 100.127 18.6346C100.589 18.9274 101.156 19.1561 101.83 19.3207C102.504 19.4854 103.174 19.6867 103.839 19.9245C104.503 20.1624 105.067 20.5695 105.528 21.1458C105.99 21.7221 106.221 22.4677 106.221 23.3825C106.221 24.5169 105.815 25.4134 105.002 26.072C104.189 26.7307 103.054 27.06 101.595 27.06C100.339 27.06 99.2682 26.8359 98.3819 26.3876C97.4955 25.9394 97.0524 25.4683 97.0524 24.9743Z" fill="#F1F1F1"/>
</svg>
