<svg width="73" height="38" viewBox="0 0 73 38" fill="none" xmlns="http://www.w3.org/2000/svg">
<g clip-path="url(#clip0_218_1226)">
<path fill-rule="evenodd" clip-rule="evenodd" d="M1.05474 34.4401H3.41972V25.0711L7.11318 33.2396C7.53153 34.2215 8.13257 34.5852 9.2963 34.5852C10.46 34.5852 11.0252 34.2211 11.4574 33.2396L15.1325 25.0711V34.4401H17.5159V25.0711C17.5159 24.1618 17.1517 23.7242 16.3876 23.4877C14.5865 22.9422 13.3857 23.4152 12.8401 24.6335L9.22005 32.7112L5.72681 24.6335C5.19917 23.4152 3.97998 22.9422 2.16098 23.4877C1.41479 23.7242 1.05107 24.1613 1.05107 25.0711L1.05066 34.4401H1.05474ZM19.4845 26.8175H21.8678V31.9662C21.8499 32.2569 21.9588 32.9122 23.2542 32.9297C23.927 32.9481 28.3846 32.9297 28.4205 32.9297V26.7808H30.8038V35.2042C30.8038 37.278 28.2349 37.7323 27.0378 37.751H19.5432V36.169H27.0569C28.5852 36.005 28.4033 35.2413 28.4033 34.9865V34.3675H23.3635C21.0164 34.3491 19.5061 33.3122 19.4886 32.1297V26.8167L19.4845 26.8175ZM70.6065 20.85C69.1516 20.8133 68.023 20.9592 67.077 21.3597C66.8046 21.4698 66.3675 21.4698 66.3316 21.8147C66.4772 21.9595 66.4947 22.1964 66.6223 22.397C66.8405 22.7611 67.223 23.2516 67.5683 23.5061C67.9508 23.7976 68.3329 24.0884 68.7325 24.3432C69.442 24.7795 70.2424 25.0344 70.9335 25.4711C71.334 25.7259 71.734 26.0533 72.1344 26.3265C72.3382 26.4721 72.4618 26.709 72.7167 26.7995V26.7445C72.5894 26.5814 72.5527 26.3449 72.4259 26.1622C72.2437 25.9808 72.0618 25.8164 71.8795 25.635C71.3523 24.9255 70.697 24.3065 69.9875 23.7976C69.4053 23.3972 68.1322 22.8516 67.8957 22.1788L67.8599 22.1421C68.2595 22.1054 68.7325 21.9599 69.1149 21.8506C69.7339 21.6875 70.2974 21.7234 70.9335 21.5599C71.2251 21.4865 71.5158 21.3959 71.8074 21.305V21.1419C71.4799 20.8145 71.2434 20.3778 70.8981 20.0687C69.9704 19.2683 68.951 18.4858 67.8957 17.8309C67.3318 17.4672 66.604 17.2303 66.0038 16.9216C65.7848 16.8124 65.4215 16.7577 65.2943 16.5759C64.966 16.1763 64.7846 15.6482 64.5481 15.1748C64.0208 14.1742 63.5111 13.0647 63.0565 12.0094C62.7291 11.2999 62.5285 10.5904 62.1289 9.93555C60.2548 6.84272 58.2168 4.96908 55.0877 3.13133C54.4149 2.74926 53.6145 2.58493 52.7635 2.38513L51.3992 2.31174C51.1076 2.18452 50.8169 1.83874 50.562 1.67482C49.5251 1.01996 46.8506 -0.399027 46.0861 1.47502C45.5948 2.65751 46.8139 3.82166 47.2278 4.42228C47.5377 4.84064 47.9373 5.31364 48.1563 5.78663C48.2786 6.09571 48.3194 6.42355 48.447 6.75098C48.7377 7.5514 49.0109 8.44317 49.393 9.18936C49.5969 9.57143 49.811 9.97225 50.0658 10.3176C50.2114 10.5174 50.4662 10.6088 50.5204 10.9362C50.2656 11.3003 50.2481 11.8455 50.1025 12.3009C49.4472 14.3569 49.7021 16.9037 50.6297 18.4132C50.9213 18.8679 51.6083 19.8689 52.5405 19.4864C53.3592 19.159 53.1766 18.1221 53.4131 17.2124C53.4681 16.9942 53.4314 16.8486 53.5403 16.7027V16.7394L54.2865 18.2493C54.8504 19.1406 55.8331 20.0687 56.6515 20.6877C57.0878 21.0151 57.4335 21.5794 57.9791 21.7792V21.7242H57.9432C57.834 21.5611 57.67 21.4877 57.5245 21.3605C57.197 21.033 56.8333 20.6326 56.5785 20.2689C55.8148 19.2503 55.142 18.1221 54.5413 16.9579C54.2498 16.394 53.9949 15.7754 53.7593 15.2115C53.6492 14.993 53.6492 14.6651 53.4677 14.5567C53.1945 14.9563 52.7949 15.3028 52.5939 15.7938C52.2481 16.5759 52.2122 17.5402 52.085 18.5408C52.0116 18.5592 52.0442 18.5408 52.0116 18.5775C51.4302 18.4324 51.2295 17.8313 51.0114 17.3225C50.4658 16.0307 50.3745 13.9568 50.8475 12.4649C50.9747 12.0828 51.5211 10.882 51.3029 10.5182C51.1928 10.1725 50.8299 9.97266 50.6293 9.69946C50.3928 9.35369 50.1388 8.91739 49.9749 8.53532C49.5386 7.51593 49.3204 6.38848 48.847 5.3695C48.628 4.8965 48.2464 4.40516 47.9369 3.96886C47.5911 3.47751 47.2099 3.13173 46.9367 2.54987C46.8457 2.35007 46.7185 2.02223 46.8641 1.80367C46.9 1.6581 46.9734 1.60387 47.1181 1.56717C47.3546 1.36737 48.0282 1.62181 48.2647 1.73028C48.9375 2.00347 49.5015 2.25791 50.0654 2.63957C50.3202 2.82143 50.5934 3.16721 50.9209 3.25855H51.3033C51.8856 3.38577 52.5401 3.29524 53.0852 3.45835C54.0496 3.76824 54.9226 4.22248 55.7055 4.71423C58.0884 6.22416 60.0538 8.37099 61.3814 10.9366C61.5996 11.355 61.6905 11.737 61.8911 12.1737C62.2736 13.0655 62.7466 13.9748 63.1279 14.8486C63.5103 15.7037 63.8741 16.5775 64.4196 17.287C64.6928 17.6691 65.784 17.8689 66.2749 18.0691C66.639 18.2322 67.2026 18.379 67.5308 18.5788C68.149 18.9608 68.7675 19.3975 69.3494 19.8159C69.6401 20.0336 70.5502 20.4887 70.6045 20.8516L70.6065 20.85ZM52.0536 5.04044C51.8023 5.03822 51.5517 5.06879 51.3082 5.13137V5.16807H51.3441C51.4897 5.45921 51.7445 5.65941 51.9264 5.91426L52.3452 6.78767L52.381 6.75098C52.6359 6.56912 52.7635 6.27798 52.7635 5.84168C52.6542 5.71446 52.6363 5.58683 52.5454 5.45961C52.4361 5.27775 52.1996 5.18642 52.0536 5.04126V5.04044Z" fill="#F1F1F1"/>
<path fill-rule="evenodd" clip-rule="evenodd" d="M32.6199 34.44H39.4604C40.2608 34.44 41.0254 34.2769 41.6435 33.9854C42.6804 33.5124 43.1718 32.8763 43.1718 32.0392V30.2928C43.1718 29.62 42.6079 28.9826 41.4804 28.5463C40.8981 28.3282 40.1703 28.2006 39.4608 28.2006H36.5861C35.6218 28.2006 35.1671 27.909 35.0395 27.2729C35.0216 27.2003 35.0216 27.1273 35.0216 27.0548V25.9811C35.0216 25.9261 35.0216 25.8539 35.0395 25.7813C35.1667 25.29 35.4216 25.1624 36.2628 25.0718H43.2668V23.4885H36.6081C35.6438 23.4885 35.1345 23.5436 34.6795 23.6891C33.2784 24.1254 32.6598 24.817 32.6598 26.0354V27.4189C32.6598 28.4913 33.8607 29.4018 35.8982 29.62C36.1164 29.6383 36.3529 29.6383 36.5894 29.6383H39.0457C39.1366 29.6383 39.2272 29.6383 39.2997 29.6567C40.0459 29.7292 40.3734 29.8565 40.5915 30.1288C40.7371 30.2744 40.7738 30.402 40.7738 30.5659V31.9482C40.7738 32.1113 40.6645 32.3307 40.4463 32.5122C40.2282 32.6936 39.8816 32.8212 39.427 32.8396C39.336 32.8396 39.2822 32.8579 39.1905 32.8579H32.6199V34.44ZM57.9803 31.6934C57.9803 33.3122 59.2035 34.2215 61.6378 34.4042C61.8743 34.4225 62.0925 34.44 62.329 34.44H68.5146V32.8579H62.2748C60.8912 32.8579 60.364 32.5122 60.364 31.6755V23.4885H57.9758V31.6938L57.9803 31.6934ZM44.6813 31.7656V26.1263C44.6813 24.689 45.6999 23.8151 47.6836 23.5428C47.9018 23.5244 48.1199 23.5061 48.3197 23.5061H52.8311C53.0676 23.5061 53.2682 23.5244 53.5047 23.5428C55.4877 23.8151 56.4879 24.6885 56.4879 26.1263V31.7656C56.4879 32.9297 56.0699 33.5487 55.0868 33.9674L57.4151 36.0772H54.6685L52.7765 34.3675L50.8657 34.4767H48.3189C47.8522 34.4744 47.3877 34.4135 46.9362 34.2953C45.4275 33.8761 44.6813 33.0761 44.6813 31.7656ZM47.2461 31.6392C47.2461 31.7117 47.2869 31.7839 47.3011 31.8757C47.4284 32.5301 48.0465 32.8942 48.9925 32.8942H51.1398L49.1752 31.1111H51.9218L53.6499 32.6761C53.9781 32.4938 54.1779 32.239 54.2505 31.9115C54.2689 31.839 54.2689 31.7484 54.2689 31.675V26.2715C54.2689 26.1989 54.2689 26.1267 54.2505 26.0533C54.1233 25.4352 53.5051 25.0898 52.5771 25.0898H48.9929C47.9376 25.0898 47.2465 25.5444 47.2465 26.2715L47.2461 31.6392Z" fill="#F1F1F1"/>
</g>
<defs>
<clipPath id="clip0_218_1226">
<rect width="72.093" height="37.6744" fill="white" transform="translate(0.699463 0.162842)"/>
</clipPath>
</defs>
</svg>
