<svg width="117" height="40" viewBox="0 0 117 40" fill="none" xmlns="http://www.w3.org/2000/svg">
<g clip-path="url(#clip0_218_1210)">
<path d="M22.2628 23.8868C24.4296 23.8868 26.186 22.1304 26.186 19.9636C26.186 17.7969 24.4296 16.0404 22.2628 16.0404C20.0961 16.0404 18.3396 17.7969 18.3396 19.9636C18.3396 22.1304 20.0961 23.8868 22.2628 23.8868Z" fill="#F1F1F1"/>
<path fill-rule="evenodd" clip-rule="evenodd" d="M22.2628 11.9868C27.5302 11.9868 32.4236 12.7426 36.1131 14.0128C40.5585 15.5433 43.2917 17.863 43.2917 19.9635C43.2917 22.1524 40.395 24.6169 35.6213 26.1985C32.0122 27.3942 27.2629 28.0185 22.2628 28.0185C17.1362 28.0185 12.2817 27.4326 8.63196 26.1854C4.01437 24.6071 1.23315 22.1108 1.23315 19.9635C1.23315 17.8801 3.84279 15.5782 8.22569 14.0501C11.929 12.759 16.9432 11.9868 22.2621 11.9868H22.2628Z" stroke="#F1F1F1" stroke-width="1.87688"/>
<path fill-rule="evenodd" clip-rule="evenodd" d="M15.3188 15.9983C17.9504 11.4353 21.0496 7.57392 23.9931 5.0123C27.5396 1.92593 30.9147 0.717221 32.7342 1.76647C34.6305 2.85999 35.3182 6.60052 34.3035 11.5259C33.5371 15.2498 31.7045 19.6756 29.2065 24.0071C26.6454 28.4481 23.7128 32.3608 20.8093 34.8987C17.1353 38.1103 13.5833 39.2726 11.7233 38.1998C9.91836 37.1597 9.22814 33.7485 10.094 29.1883C10.8256 25.3352 12.6616 20.6059 15.318 15.9982L15.3188 15.9983Z" stroke="#F1F1F1" stroke-width="1.87688"/>
<path fill-rule="evenodd" clip-rule="evenodd" d="M15.3254 24.0189C12.6864 19.4611 10.8897 14.8467 10.1397 11.0173C9.23697 6.40328 9.87527 2.87554 11.6932 1.82324C13.5876 0.726515 17.1717 1.99872 20.9321 5.33769C23.7753 7.86209 26.6947 11.6594 29.2 15.9868C31.7685 20.4236 33.6935 24.9184 34.4424 28.7013C35.39 33.4883 34.6231 37.146 32.7647 38.2217C30.9616 39.2656 27.662 38.1604 24.1436 35.1327C21.1709 32.5747 17.9904 28.6221 15.3254 24.0189V24.0189Z" stroke="#F1F1F1" stroke-width="1.87688"/>
<path fill-rule="evenodd" clip-rule="evenodd" d="M65.8112 29.987L61.0025 22.722C63.4328 22.5076 65.6227 20.7467 65.6227 17.5296C65.6227 14.2561 63.2996 12.161 60.0407 12.161H52.8842V29.9735H55.1011V22.8959H58.6534L63.1935 29.9735L65.8112 29.987ZM59.7755 20.96H55.1022V14.15H59.7755C61.8863 14.15 63.3278 15.5384 63.3278 17.542C63.3278 19.5456 61.8852 20.9623 59.7755 20.9623V20.96ZM74.0638 30.3064C76.1747 30.3064 77.9096 29.6122 79.1919 28.3311L78.2302 27.0216C77.2143 28.0635 75.7198 28.6505 74.2512 28.6505C71.4743 28.6505 69.7642 26.6209 69.6039 24.1917H80.0453V23.6838C80.0453 19.812 77.7482 16.7665 73.8482 16.7665C70.1627 16.7665 67.4931 19.7849 67.4931 23.5235C67.4931 27.5567 70.2439 30.2963 74.0627 30.2963L74.0638 30.3064ZM78.071 22.7209H69.6051C69.7123 20.7455 71.0725 18.4202 73.8245 18.4202C76.7628 18.4202 78.044 20.7974 78.071 22.7209ZM93.3482 29.9859V21.1192C93.3482 17.9946 91.0793 16.7654 88.3544 16.7654C86.2435 16.7654 84.5887 17.4596 83.2003 18.9022L84.1349 20.2906C85.2829 19.0625 86.5393 18.5015 88.088 18.5015C89.9573 18.5015 91.3468 19.4892 91.3468 21.2253V23.5483C90.305 22.3462 88.8364 21.7851 87.0732 21.7851C84.8833 21.7851 82.558 23.1476 82.558 26.0317C82.558 28.8356 84.8811 30.3053 87.0732 30.3053C88.8093 30.3053 90.279 29.6913 91.3468 28.5162V29.9836L93.3482 29.9859ZM87.7945 28.8638C85.9252 28.8638 84.6158 27.6899 84.6158 26.0599C84.6158 24.404 85.9252 23.2289 87.7945 23.2289C89.21 23.2289 90.5714 23.7628 91.3468 24.8318V27.2621C90.5725 28.3299 89.21 28.8638 87.7945 28.8638ZM103.033 30.3064C105.383 30.3064 106.772 29.3447 107.761 28.0635L106.425 26.8354C105.571 27.9834 104.476 28.5173 103.152 28.5173C100.401 28.5173 98.6931 26.3805 98.6931 23.5235C98.6931 20.6665 100.402 18.5568 103.152 18.5568C104.487 18.5568 105.582 19.0647 106.425 20.2387L107.761 19.0106C106.773 17.7282 105.383 16.7676 103.033 16.7676C99.1875 16.7676 96.5969 19.7059 96.5969 23.5246C96.5969 27.3704 99.1875 30.2974 103.033 30.2974V30.3064ZM113.825 30.3064C114.999 30.3064 115.721 29.9588 116.229 29.479L115.642 27.9834C115.374 28.2769 114.852 28.5173 114.28 28.5173C113.399 28.5173 112.97 27.8231 112.97 26.8614V18.8491H115.589V17.0871H112.97V13.5619H110.966V17.0871H108.83V18.8503H110.966V27.2903C110.966 29.2138 111.928 30.3087 113.825 30.3087V30.3064Z" fill="#F1F1F1"/>
</g>
<defs>
<clipPath id="clip0_218_1210">
<rect width="116.279" height="40" fill="white" transform="translate(0.220703)"/>
</clipPath>
</defs>
</svg>
