<svg width="132" height="38" viewBox="0 0 132 38" fill="none" xmlns="http://www.w3.org/2000/svg">
<path d="M121.421 13.599C121.1 13.599 120.788 13.6653 120.512 13.8215L111.776 18.8665C111.211 19.1921 110.867 19.8074 110.867 20.4617V30.5336C110.867 31.1877 111.211 31.802 111.776 32.1286L114.058 33.4433C115.166 33.9899 115.575 33.9811 116.08 33.9811C117.721 33.9811 118.658 32.9852 118.658 31.2544V21.3178C118.658 21.1773 118.536 21.0768 118.398 21.0768H117.304C117.163 21.0768 117.044 21.1799 117.044 21.3178V31.2596C117.044 32.0268 116.245 32.7986 114.948 32.15L112.576 30.7589C112.493 30.7133 112.428 30.63 112.428 30.5365V20.4645C112.428 20.3691 112.492 20.2717 112.576 20.2235L121.294 15.1965C121.376 15.1496 121.473 15.1496 121.554 15.1965L130.272 20.2235C130.355 20.2732 130.42 20.366 130.42 20.4645V30.5365C130.42 30.6326 130.372 30.7311 130.29 30.7775L121.554 35.8045C121.477 35.8491 121.374 35.8491 121.294 35.8045L119.05 34.4691C118.983 34.4299 118.892 34.433 118.828 34.4691C118.208 34.8202 118.092 34.8609 117.511 35.0625C117.368 35.1123 117.15 35.1899 117.585 35.4337L120.516 37.161C120.795 37.3223 121.106 37.402 121.425 37.402C121.748 37.402 122.054 37.3247 122.334 37.161L131.07 32.134C131.635 31.8051 131.979 31.1931 131.979 30.539V20.4671C131.979 19.8128 131.635 19.1988 131.07 18.8719L122.334 13.8269C122.06 13.6707 121.746 13.6044 121.425 13.6044L121.421 13.599ZM123.758 20.796C121.271 20.796 119.789 21.8548 119.789 23.6153C119.789 25.5229 121.26 26.0499 123.647 26.286C126.504 26.5657 126.726 26.9851 126.726 27.5474C126.726 28.5226 125.949 28.9384 124.111 28.9384C121.802 28.9384 121.295 28.362 121.125 27.2112C121.105 27.088 121.01 26.9887 120.884 26.9887H119.75C119.681 26.9902 119.616 27.0181 119.568 27.0664C119.519 27.1148 119.491 27.18 119.49 27.2483C119.49 28.7185 120.29 30.4571 124.109 30.4571C126.873 30.4571 128.467 29.3743 128.467 27.4708C128.467 25.5889 127.179 25.0803 124.498 24.7253C121.791 24.3644 121.53 24.1917 121.53 23.5567C121.53 23.0329 121.749 22.3322 123.756 22.3322C125.549 22.3322 126.211 22.7189 126.483 23.9274C126.507 24.0409 126.607 24.1337 126.724 24.1337H127.858C127.928 24.1337 127.995 24.0909 128.044 24.0409C128.091 23.9875 128.125 23.9274 128.118 23.8553C127.943 21.7739 126.555 20.7948 123.759 20.7948L123.758 20.796Z" fill="#F1F1F1"/>
<path d="M38.3257 13.8058C38.1303 13.8055 37.9382 13.8567 37.7689 13.9543L28.5134 19.2777C28.1674 19.4772 27.957 19.8616 27.957 20.2607V30.9444C27.9565 31.1398 28.0077 31.332 28.1054 31.5013C28.2031 31.6706 28.3438 31.8111 28.5134 31.9085L37.7689 37.2505C37.9379 37.3486 38.1299 37.4003 38.3253 37.4003C38.5208 37.4003 38.7127 37.3486 38.8818 37.2505L48.1373 31.9085C48.3067 31.8109 48.4474 31.6704 48.5451 31.501C48.6428 31.3317 48.6941 31.1396 48.6938 30.9441V20.2604C48.6938 19.8608 48.4835 19.4767 48.137 19.2775L38.8815 13.954C38.7124 13.856 38.5202 13.8047 38.3247 13.8056L38.3257 13.8058ZM93.6737 23.3397C93.6368 23.3397 93.5958 23.3397 93.5623 23.3578L91.7818 24.3967C91.7486 24.4151 91.7208 24.4419 91.7013 24.4745C91.6817 24.507 91.6711 24.5441 91.6704 24.582V26.6225C91.6704 26.6993 91.715 26.7694 91.7818 26.8081L93.5623 27.8282C93.5929 27.8471 93.6282 27.8572 93.6642 27.8572C93.7001 27.8572 93.7354 27.8471 93.766 27.8282L95.5466 26.8081C95.6126 26.7702 95.6579 26.6993 95.6579 26.6225V24.582C95.6579 24.5052 95.6128 24.4351 95.5466 24.3964L93.766 23.3575C93.733 23.3379 93.7103 23.3395 93.6732 23.3395L93.6737 23.3397Z" fill="#D9D9D9"/>
<path d="M70.0614 0.395723C69.9638 0.395899 69.8679 0.421487 69.7832 0.469967C69.699 0.519275 69.629 0.589686 69.5802 0.674263C69.5314 0.75884 69.5055 0.854664 69.5051 0.952296V15.1417C69.5051 15.2809 69.4401 15.4057 69.3195 15.4755C69.2603 15.51 69.1931 15.5282 69.1247 15.5282C69.0563 15.5282 68.9891 15.51 68.9299 15.4755L66.6114 14.1402C66.4422 14.0423 66.2503 13.9908 66.0549 13.9908C65.8595 13.9908 65.6676 14.0423 65.4985 14.1402L56.2432 19.4819C55.8973 19.6814 55.6864 20.0655 55.6864 20.4649V31.1485C55.6861 31.344 55.7374 31.5362 55.8351 31.7055C55.9329 31.8748 56.0735 32.0154 56.243 32.1129L65.4985 37.4549C65.6675 37.553 65.8595 37.6047 66.0549 37.6047C66.2504 37.6047 66.4423 37.553 66.6114 37.4549L75.8669 32.1129C76.0363 32.0154 76.177 31.8748 76.2747 31.7055C76.3724 31.5362 76.4237 31.344 76.4234 31.1485V4.51344C76.4234 4.10819 76.2023 3.72795 75.8486 3.53048L70.3398 0.451148C70.2532 0.402941 70.1573 0.394692 70.0614 0.395723ZM10.5217 13.7318C10.3451 13.7391 10.1793 13.7697 10.0208 13.8618L0.765549 19.2035C0.596002 19.3009 0.455236 19.4414 0.357533 19.6108C0.25983 19.7801 0.208666 19.9723 0.209233 20.1679L0.228052 34.506C0.228052 34.7056 0.331169 34.8906 0.506468 34.9881C0.678415 35.0912 0.891609 35.0912 1.06278 34.9881L6.55299 31.8348C6.901 31.6285 7.12786 31.2687 7.12786 30.8706V24.1745C7.12786 23.7749 7.33796 23.4088 7.68469 23.2103L10.0218 21.8564C10.1907 21.7582 10.3828 21.7069 10.5782 21.7079C10.7736 21.7068 10.9658 21.758 11.1347 21.8564L13.4708 23.2096C13.8171 23.4081 14.0272 23.7746 14.0272 24.1737V30.8696C14.0272 31.2682 14.2592 31.6301 14.602 31.8337L20.0922 34.9871C20.265 35.0902 20.4776 35.0902 20.6486 34.9871C20.8187 34.8891 20.927 34.7043 20.927 34.505L20.9455 20.1674C20.9466 19.9717 20.8957 19.7793 20.7979 19.6098C20.7002 19.4404 20.5591 19.3 20.3892 19.203L11.134 13.8615C10.9775 13.7697 10.8109 13.7388 10.6331 13.7316H10.5222L10.5217 13.7318ZM93.6917 13.8618C93.4963 13.8612 93.3042 13.9125 93.1351 14.0102L83.8796 19.3522C83.5341 19.552 83.3227 19.9173 83.3227 20.3164V31C83.3227 31.4017 83.5491 31.7657 83.8976 31.9642L93.0789 37.1974C93.4179 37.3907 93.8316 37.4054 94.1732 37.2154L99.7377 34.1178C99.9143 34.0198 100.034 33.8368 100.034 33.6357C100.035 33.4346 99.9302 33.2537 99.7557 33.1536L90.4443 27.8117C90.27 27.7122 90.1478 27.5108 90.1478 27.3108V23.9701C90.1478 23.7705 90.2715 23.5875 90.4443 23.488L93.3377 21.8185C93.5099 21.719 93.7213 21.719 93.8945 21.8185L96.7893 23.488C96.8741 23.5367 96.9444 23.6069 96.9933 23.6916C97.0421 23.7762 97.0677 23.8723 97.0675 23.9701V26.6039C97.0672 26.7017 97.0928 26.7977 97.1416 26.8824C97.1905 26.9671 97.2609 27.0373 97.3456 27.086C97.5191 27.186 97.7292 27.1865 97.9024 27.086L103.448 23.8592C103.792 23.6592 104.005 23.2928 104.005 22.8951V20.3171C104.005 20.1217 103.953 19.9297 103.856 19.7604C103.758 19.5911 103.618 19.4505 103.448 19.3527L94.2485 14.0108C94.0794 13.9129 93.8873 13.8616 93.6919 13.8623L93.6917 13.8618ZM66.0177 21.8379C66.0695 21.8376 66.1205 21.8503 66.1662 21.8747L69.3378 23.711C69.4239 23.7607 69.4863 23.8528 69.4863 23.952V27.6245C69.4863 27.7243 69.4244 27.8161 69.3378 27.8656L66.1662 29.7018C66.0798 29.7508 65.9744 29.7508 65.8877 29.7018L62.7161 27.8656C62.6298 27.8158 62.5676 27.7238 62.5676 27.6245V23.9515C62.5676 23.852 62.63 23.7607 62.7161 23.7105L65.8877 21.8745C65.9311 21.8495 65.9692 21.8379 66.0177 21.8379Z" fill="#F1F1F1"/>
</svg>
