<svg width="122" height="38" viewBox="0 0 122 38" fill="none" xmlns="http://www.w3.org/2000/svg">
<path d="M119.004 6.3603L120.746 1.86859L120.675 1.58113L103.498 6.10877C105.331 3.44968 104.702 1.32959 104.702 1.32959C104.702 1.32959 99.2221 4.83312 95.0718 4.74329C90.9214 4.65345 89.5919 3.53951 83.2316 5.56976C76.8714 7.60001 75.0747 13.8165 73.2241 15.164C71.3915 16.4936 65.6241 20.9314 65.6241 20.9314L70.8345 19.2605C70.8345 19.2605 69.3612 20.6619 66.3249 24.7404V24.7583C66.81 25.4411 68.948 28.2619 71.0681 27.651C71.3017 27.5791 71.5712 27.4534 71.8766 27.3096C72.8288 27.8486 74.1045 28.3697 75.4879 28.5134C75.4879 28.5134 74.5537 27.4354 73.7631 26.1777L74.4099 25.7645L74.3021 25.8363L76.2964 26.555L76.0808 24.6865H76.0988L78.0392 25.4051L77.8057 23.6983L78.5423 23.339L80.5725 15.6492L88.981 9.89977L88.3162 11.5886C86.6094 15.7749 83.4113 16.7631 83.4113 16.7631L82.0818 17.2841C81.0756 18.452 80.6624 18.7394 80.321 22.6922C81.1295 22.4765 81.8841 22.4406 82.5848 22.6203C86.1782 23.5905 87.4179 27.9205 86.4477 29.1243C86.2141 29.4117 85.6392 29.9328 84.9026 30.5257H83.4472L83.4293 31.7115L83.2855 31.8373H81.7943L81.7763 32.9871L81.3811 33.2746C79.9976 33.3105 78.2189 32.0888 78.2189 32.0888C78.2369 33.2027 79.1532 34.9096 79.1532 34.9096L79.3149 34.8198L79.1711 34.9276C79.1711 34.9276 82.9082 37.407 85.2619 36.4907C87.346 35.6642 92.7541 31.4061 97.4254 29.3938L111.547 25.6567L113.416 20.8416L102.654 23.6803V19.3324L115.284 16.0085L117.153 11.1754L102.654 15.0023V10.6723L119.004 6.3603ZM93.3649 15.5414L96.7247 14.661L96.7607 14.8227L95.7186 17.5357L92.251 18.452L93.3649 15.5414ZM94.5148 21.3446L91.0472 22.2609L92.1791 19.3503L95.5209 18.4699L95.5748 18.6316L94.5148 21.3446ZM99.0424 20.3744L95.5748 21.2907L96.7068 18.3801L100.049 17.4997L100.102 17.6614L99.0424 20.3744Z" fill="#F1F1F1"/>
<path d="M3.72848 12.1996L3.83628 11.6426C4.14172 10.0256 4.75259 8.64214 5.8845 7.60006C6.71097 6.82749 7.93272 6.36035 9.31616 6.36035C10.1965 6.36035 10.8613 6.48612 11.2745 6.62985L10.502 9.28894C10.1786 9.18114 9.87314 9.12724 9.42397 9.12724C8.18425 9.12724 7.46558 10.4209 7.23201 11.6067L7.12421 12.1996H9.74737L9.28023 14.6251H6.71097L4.57292 25.7286H1.12329L3.24338 14.6251" fill="#F1F1F1"/>
<path d="M15.0477 25.7285L15.1555 23.4647H15.0656C13.9876 25.2614 12.694 25.9441 11.616 25.9441C9.63964 25.9441 8.66943 24.2553 8.66943 21.8836C8.66943 17.7872 10.7177 11.9659 16.5389 11.9659C17.8864 11.9659 19.2519 12.1995 20.0784 12.5229L18.5871 20.051C18.2637 21.6321 18.0122 24.2553 18.0302 25.7285H15.0477ZM16.2874 14.625C16.0179 14.5711 15.7663 14.5532 15.5687 14.5532C13.3049 14.5532 12.0831 19.0628 12.0472 21.0572C12.0472 22.243 12.2269 23.1054 13.0713 23.1054C14.0235 23.1054 14.9039 21.5423 15.407 19.0808L16.2874 14.625Z" fill="#F1F1F1"/>
<path d="M20.4915 22.764C21.0485 23.0694 21.7133 23.3389 22.6835 23.321C23.6896 23.285 24.2286 22.6562 24.2286 21.7938C24.2286 21.0392 23.8693 20.5182 22.935 19.7815C21.7672 18.8293 21.2102 17.6435 21.2102 16.4756C21.2102 13.9962 23.1506 11.9659 26.2229 11.9659C27.4267 11.9659 28.2712 12.1815 28.7742 12.469L28.0196 14.9844C27.6423 14.7688 26.9955 14.5711 26.4206 14.5711C25.3066 14.5711 24.6239 15.1461 24.6239 16.0624C24.6239 16.7631 25.0192 17.1763 25.648 17.6974C27.1752 18.8652 27.6782 20.1947 27.6782 21.2368C27.6782 24.2373 25.5941 25.8902 22.4858 25.8902C21.2461 25.8902 20.1322 25.5309 19.665 25.2075L20.4915 22.764Z" fill="#F1F1F1"/>
<path d="M35.7813 8.5343L35.0806 12.1995H40.3988L39.9496 14.6251H34.6135L33.4277 20.9134C33.3378 21.3806 33.3199 21.7938 33.3199 22.0454C33.3199 22.8718 33.7331 23.1773 34.3619 23.1773C34.6135 23.1773 34.9728 23.1773 35.2962 23.1234L34.883 25.7286C34.2541 25.8903 33.4816 25.9442 32.8168 25.9442C30.7326 25.9442 29.7085 24.7943 29.7085 22.9617C29.7085 22.3508 29.8163 21.5962 29.9601 20.9314L31.1459 14.6251H29.5828L30.0499 12.1816H31.631L32.17 9.39671L35.7813 8.5343Z" fill="#F1F1F1"/>
<path d="M36.6078 25.7285L39.213 12.1995H42.6626L40.0754 25.7285H36.6078ZM39.8418 8.73192C39.8418 7.72578 40.5605 6.59387 41.7822 6.59387C42.9141 6.59387 43.4531 7.45628 43.4172 8.39056C43.3813 9.774 42.447 10.5645 41.4229 10.5645C40.309 10.5645 39.8239 9.75603 39.8418 8.73192Z" fill="#F1F1F1"/>
<path d="M44.8187 12.1996L44.9265 11.6426C45.2319 10.0256 45.8428 8.64214 46.9747 7.60006C47.8012 6.82749 49.0229 6.36035 50.4064 6.36035C51.2867 6.36035 51.9515 6.48612 52.3648 6.62985L51.5922 9.28894C51.2688 9.18114 50.9633 9.12724 50.5142 9.12724C49.2745 9.12724 48.5558 10.4209 48.3402 11.6067L48.2144 12.1996H52.239L51.7719 14.6251H47.8012L45.6811 25.7286H42.2135L44.3516 14.6251" fill="#F1F1F1"/>
<path d="M54.395 12.1996L54.4848 18.7036C54.5028 19.9792 54.5387 20.9135 54.5028 21.9017H54.5567C54.8441 20.8057 55.1136 19.8894 55.5808 18.4521L57.629 12.1816H61.1146L56.6947 22.8539C55.3652 25.9442 53.838 28.5494 52.1851 30.0766C51.3765 30.8132 50.4423 31.4061 49.8673 31.6397L48.4839 28.8189C49.0768 28.5135 49.7236 28.1542 50.2806 27.7229C51.0531 27.0761 51.7898 26.3036 52.1312 25.549C52.1851 25.3693 52.239 25.2256 52.203 24.9561L50.7657 12.1816H54.395V12.1996Z" fill="#F1F1F1"/>
</svg>
