<svg width="106" height="38" viewBox="0 0 106 38" fill="none" xmlns="http://www.w3.org/2000/svg">
<path d="M33.4433 33.8837V11.0829H34.6801V14.6695C34.8261 14.5104 34.961 14.3415 35.0837 14.1639C36.1167 12.0208 38.2954 10.6683 40.6739 10.695C43.4937 10.6109 45.7852 11.6547 47.1318 14.1639C47.9886 15.7227 48.4602 17.4638 48.507 19.242C48.5538 21.0202 48.1746 22.7837 47.4009 24.3854C46.1463 27.1973 43.0475 28.5954 39.73 28.0819C38.6976 27.9941 37.7036 27.6491 36.8387 27.0784C35.9739 26.5078 35.2658 25.7295 34.779 24.8148V33.8828L33.4433 33.8837ZM34.6801 19.1485L34.9571 21.8258C35.4459 24.8732 37.2476 26.6739 40.0763 27.0123C41.4047 27.2307 42.7677 26.9817 43.933 26.3076C45.0983 25.6336 45.9938 24.5763 46.4669 23.3159C47.5671 20.694 47.486 17.7257 46.2492 15.1651C45.7443 14.0353 44.8855 13.1005 43.8023 12.502C42.7192 11.9035 41.4707 11.6738 40.2455 11.8477C39.0954 11.9313 38 12.3711 37.1113 13.1059C36.2226 13.8406 35.5849 14.8339 35.2866 15.9478C35.0232 17.0018 34.8207 18.0702 34.6801 19.1475V19.1485ZM73.7597 22.2473C73.5721 23.8527 72.8079 25.3353 71.6091 26.4195C70.4103 27.5036 68.8585 28.1155 67.2424 28.1412C62.056 28.4024 59.622 24.9583 59.2352 20.9839C58.9662 18.8255 59.3165 16.6352 60.2453 14.6685C60.8918 13.3193 61.951 12.211 63.2695 11.5041C64.588 10.7971 66.0974 10.5283 67.5788 10.7366C68.9872 10.8563 70.3223 11.4159 71.3951 12.3362C72.468 13.2565 73.2242 14.4909 73.5568 15.8647C73.8203 17.1161 74.0142 18.3812 74.1376 19.6541H60.5165C60.2642 23.2575 62.2004 26.1545 64.945 26.853C68.3634 27.694 71.2852 26.2129 72.3458 22.9627C72.5813 22.1286 73.0107 22.0109 73.7686 22.2473H73.7597ZM60.5066 18.5004H72.6901C72.6139 14.6615 70.2235 11.8714 66.9812 11.8398C63.3204 11.7804 60.6658 14.4587 60.5066 18.5004ZM76.2777 22.3314H77.4719C77.5158 23.2112 77.8015 24.0619 78.2976 24.7898C78.7937 25.5177 79.481 26.0947 80.2838 26.4573C81.2919 26.9109 82.3893 27.1314 83.4944 27.1023C84.5994 27.0732 85.6837 26.7952 86.6665 26.2891C87.2022 26.0478 87.651 25.648 87.9521 25.1435C88.2533 24.639 88.3923 24.0543 88.3505 23.4683C88.3813 22.9031 88.227 22.3433 87.911 21.8737C87.5949 21.4041 87.1344 21.0504 86.5992 20.8661C85.2853 20.3773 83.8882 20.1082 82.5496 19.6788C81.1566 19.2822 79.7945 18.7842 78.4742 18.1888C76.3173 17.136 76.1837 13.0359 78.6256 11.7378C79.8759 11.0323 81.283 10.6511 82.7185 10.629C84.1539 10.6068 85.5721 10.9445 86.8436 11.6112C88.4207 12.4819 89.2924 14.2401 89.0331 16.024H88.0091C88.0091 15.9745 87.9161 15.9309 87.9161 15.8805C87.7895 12.6154 85.0448 11.5944 82.0984 11.8813C81.2079 11.9802 80.364 12.2494 79.5724 12.6471C79.0966 12.8644 78.7001 13.2242 78.4378 13.6768C78.1754 14.1293 78.0602 14.6522 78.1081 15.1731C78.1091 15.6943 78.2715 16.2025 78.5731 16.6277C78.8746 17.0529 79.3005 17.3743 79.7921 17.5476C81.0783 18.0196 82.4437 18.3223 83.7745 18.6924L86.99 19.5334C87.7209 19.7733 88.3617 20.2294 88.8278 20.8413C89.2938 21.4533 89.5631 22.1923 89.6001 22.9607C89.8573 24.6872 88.9768 26.384 87.4194 27.1706C84.6075 28.7616 79.9761 28.3411 77.9132 26.3296C76.8575 25.268 76.2688 23.8264 76.2807 22.3304L76.2777 22.3314ZM104.753 16.0249H103.633C103.633 15.8736 103.573 15.7281 103.557 15.6124C103.539 14.7728 103.233 13.965 102.69 13.3242C102.147 12.6834 101.401 12.2488 100.576 12.093C99.019 11.6466 97.3586 11.7266 95.8521 12.3206C95.2565 12.4911 94.732 12.8498 94.3571 13.3431C93.9822 13.8364 93.7771 14.4377 93.7724 15.0573C93.7511 15.6656 93.9405 16.2627 94.3086 16.7475C94.6768 17.2322 95.201 17.575 95.7928 17.7178L100.912 19.0318C101.466 19.1645 102.011 19.3304 102.544 19.5284C104.177 20.1221 105.285 21.6379 105.335 23.3703C105.359 24.2183 105.127 25.0539 104.667 25.7673C104.208 26.4807 103.544 27.0385 102.762 27.3675C101.574 27.9072 100.286 28.1928 98.9813 28.2059C97.6763 28.219 96.3831 27.9594 95.1843 27.4437C94.1984 27.0186 93.3665 26.3017 92.8004 25.3894C92.2344 24.4772 91.9614 23.4134 92.0182 22.3413H93.1125C93.5241 24.3251 94.8865 25.9774 96.7555 26.759C98.6245 27.5407 100.759 27.3487 102.458 26.2485C102.968 25.9833 103.392 25.5775 103.678 25.0791C103.965 24.5808 104.103 24.0108 104.075 23.4366C104.1 22.871 103.941 22.3126 103.62 21.846C103.299 21.3795 102.835 21.0302 102.298 20.8513C100.984 20.3625 99.5872 20.1023 98.2485 19.664C96.8477 19.2735 95.4773 18.7811 94.1484 18.1908C92.0429 17.1548 91.8747 13.0884 94.275 11.7913C95.5408 11.0561 96.9754 10.6612 98.4391 10.6449C99.9028 10.6286 101.346 10.9915 102.628 11.6983C103.361 12.1358 103.951 12.7772 104.326 13.5441C104.701 14.3111 104.845 15.1706 104.741 16.018L104.753 16.0249ZM31.4081 27.7296C30.9672 27.8963 30.4806 27.8959 30.04 27.7284C29.5994 27.5609 29.2354 27.2379 29.0167 26.8204L24.6633 20.7998L24.0321 19.9588L18.9802 26.8293C18.7742 27.2288 18.4299 27.5398 18.0115 27.704C17.5931 27.8682 17.1292 27.8745 16.7065 27.7217L23.2148 18.9902L17.1596 11.1007C18.058 10.7761 19.0593 11.1284 19.559 11.9417L24.0707 18.0364L28.6091 11.9654C28.8165 11.5727 29.161 11.2699 29.5772 11.1147C29.9933 10.9594 30.4519 10.9625 30.8659 11.1234L28.5161 14.241L25.3331 18.3837C25.2448 18.4626 25.1741 18.5592 25.1257 18.6673C25.0773 18.7754 25.0523 18.8925 25.0523 19.011C25.0523 19.1294 25.0773 19.2465 25.1257 19.3546C25.1741 19.4627 25.2448 19.5594 25.3331 19.6383L31.3952 27.7296H31.4081ZM59.0422 11.0166V12.2039C58.1906 12.148 57.3368 12.2713 56.5358 12.5659C55.7348 12.8604 55.0044 13.3196 54.3919 13.9139C53.7794 14.5082 53.2982 15.2243 52.9796 16.016C52.6609 16.8077 52.5118 17.6574 52.5418 18.5103C52.5418 21.2833 52.5418 24.0563 52.5418 26.8293V27.7722H51.3377V11.0908H52.525V14.5092C53.9814 12.0159 56.2293 11.0908 59.0501 11.0235L59.0422 11.0166ZM1.12234 18.8814L1.65266 16.2624C3.10907 11.0838 9.04551 8.92892 13.1298 12.1366C15.5212 14.0145 16.1178 16.675 16.001 19.6729H2.52829C2.31062 25.0276 6.17425 28.2609 11.1163 26.6106C12.7449 26.017 13.9708 24.6635 14.3745 22.9815C14.6357 22.1405 15.067 21.996 15.8566 22.2394C15.7249 23.2646 15.3625 24.2465 14.7966 25.1114C14.2308 25.9763 13.4762 26.7017 12.5896 27.2329C11.1248 28.034 9.44426 28.3514 7.78823 28.1398C6.1322 27.9281 4.5855 27.1983 3.36928 26.0546C2.16616 24.702 1.43994 22.9924 1.29845 21.1867C1.29845 20.8899 1.19951 20.6128 1.13026 20.3457C1.12366 19.8464 1.12036 19.3583 1.12036 18.8814H1.12234ZM2.54511 18.5192H14.7287C14.6525 14.6378 12.2027 11.8843 8.93569 11.8586C5.29863 11.8091 2.69649 14.5022 2.5362 18.5024L2.54511 18.5192Z" fill="#F1F1F1"/>
</svg>
