<svg width="138" height="38" viewBox="0 0 138 38" fill="none" xmlns="http://www.w3.org/2000/svg">
<g clip-path="url(#clip0_218_1202)">
<path fill-rule="evenodd" clip-rule="evenodd" d="M40.8882 27.9103V11.0528H43.0556L53.3574 24.6191V11.0528H55.4177V27.9103H53.2503L42.9485 14.2102V27.9103H40.8882ZM72.1949 27.2413C70.8303 27.7497 69.3586 28.0173 67.8066 28.0173C61.7058 28.0173 58.6554 25.1007 58.6554 19.2407C58.6554 13.7018 61.5988 10.919 67.4855 10.919C69.1713 10.919 70.75 11.1598 72.1949 11.6147V13.4878C70.75 12.9259 69.2515 12.6583 67.7263 12.6583C63.124 12.6583 60.8228 14.8524 60.8228 19.1872C60.8228 23.8698 63.0972 26.1978 67.6193 26.1978C68.3418 26.1978 69.1445 26.0907 70.0275 25.9034V20.2575H72.1949V27.2413ZM75.6734 21.4081V11.0528H77.8408V21.4081C77.8408 24.6458 79.4463 26.278 82.684 26.278C85.8949 26.278 87.5272 24.6458 87.5272 21.4081V11.0528H89.6946V21.4081C89.6946 25.8232 87.3666 28.0441 82.684 28.0441C78.0014 28.0441 75.6734 25.8232 75.6734 21.4081ZM95.7419 11.0528V26.1443H104.572V27.9103H93.5745V11.0528H95.7419ZM107.703 27.9103H105.428L113.803 8.83191L122.179 27.9103H119.77L117.603 22.6122H112.037L112.626 20.8462H116.881L113.723 13.2202L107.703 27.9103ZM124.507 27.9103V11.0528H131.704C134.915 11.0528 136.521 12.3907 136.521 15.0933C136.521 17.2874 134.942 18.9196 131.811 19.9632L137.591 27.9103H134.728L129.377 20.3378V18.9196C132.587 18.4112 134.22 17.1804 134.22 15.2003C134.22 13.6483 133.337 12.8723 131.544 12.8723H126.727V27.9103H124.507Z" fill="#F1F1F1"/>
<path d="M21.5422 20.0167L17.9031 12.4175L14.7189 20.0167H21.5422Z" fill="#F1F1F1"/>
<path fill-rule="evenodd" clip-rule="evenodd" d="M17.8497 0.403198L0.59082 6.55751L3.23985 29.382L17.8497 37.4896L32.7003 29.275L35.5634 6.45048L17.8497 0.403198ZM7.11971 28.6595L17.8764 4.73795L29.0879 28.713L25.2616 28.6327L22.9069 23.1741H13.3008L11.1334 28.5792L7.11971 28.6595Z" fill="#F1F1F1"/>
<path d="M17.8496 0.403198L35.5633 6.45048L32.7002 29.275L17.8496 37.4896V23.1742H22.9068L25.2615 28.6328L29.0879 28.713L17.8764 4.73798L17.8496 4.79745V0.403198Z" fill="#D9D9D9"/>
<path d="M17.8496 20.0167V12.5452L17.9031 12.4175L21.5422 20.0167H17.8496Z" fill="#D9D9D9"/>
</g>
<defs>
<clipPath id="clip0_218_1202">
<rect width="137" height="37.2093" fill="white" transform="translate(0.59082 0.395386)"/>
</clipPath>
</defs>
</svg>
