<svg width="28" height="31" viewBox="0 0 28 31" fill="none" xmlns="http://www.w3.org/2000/svg">
<path d="M24.7703 4.47798H24.4143C25.0928 3.37333 24.8423 1.89029 23.7533 1.08236C22.58 0.211902 20.9126 0.492093 20.0938 1.71574L18.2454 4.47804H2.36697C1.06182 4.47804 0 5.53986 0 6.84501V21.978C0 23.2832 1.06182 24.345 2.36697 24.345H11.561L10.8663 27.2627H9.36699C8.38984 27.2627 7.59485 28.0576 7.59485 29.0348V29.4048H5.74654C5.42293 29.4048 5.16061 29.6672 5.16061 29.9907C5.16061 30.3143 5.42293 30.5767 5.74654 30.5767H21.3907C21.7144 30.5767 21.9767 30.3143 21.9767 29.9907C21.9767 29.6672 21.7144 29.4048 21.3907 29.4048H19.5424V29.0348C19.5424 28.0576 18.7475 27.2627 17.7703 27.2627H16.271L15.5763 24.345H24.7703C26.0755 24.345 27.1373 23.2832 27.1373 21.978V6.84495C27.1373 5.5398 26.0755 4.47798 24.7703 4.47798ZM16.375 14.7785C15.4589 15.4198 13.7426 14.5481 12.1037 15.4227C11.7038 13.3453 11.9559 11.3915 14.0374 10.9603C14.3064 10.9042 14.596 10.8788 14.8426 10.8838L16.9623 12.4564C17.2698 13.351 17.1544 14.233 16.375 14.7785ZM16.9655 8.49809L18.6241 9.72866L17.3486 11.2838L15.8469 10.1696L16.9655 8.49809ZM21.0678 2.36747C21.5116 1.70414 22.4167 1.54981 23.0551 2.02353C23.6937 2.49731 23.8081 3.4082 23.302 4.02524L19.368 8.82158L17.6178 7.52305L21.0678 2.36747ZM18.3705 29.0348V29.4048H8.76671V29.0348C8.76671 28.7039 9.036 28.4346 9.36699 28.4346H17.7702C18.1012 28.4346 18.3705 28.7039 18.3705 29.0348ZM15.0663 27.2627H12.0709L12.7656 24.345H14.3716L15.0663 27.2627ZM25.9654 21.978C25.9654 22.637 25.4293 23.1731 24.7703 23.1731H2.36703C1.70804 23.1731 1.17191 22.637 1.17191 21.978V19.2341H2.84626C3.16987 19.2341 3.43219 18.9717 3.43219 18.6482C3.43219 18.3246 3.16987 18.0622 2.84626 18.0622H1.1718V6.84495C1.1718 6.18596 1.70792 5.64984 2.36691 5.64984H17.4613L14.7436 9.71114C13.5954 9.72151 12.449 10.1215 11.6986 10.9976C10.6774 12.1897 10.4979 14.0628 11.1653 16.5648C11.2794 16.9926 11.8132 17.1459 12.1363 16.8374C13.6513 15.3897 15.5382 16.9688 17.228 15.6011C18.2594 14.7662 18.5035 13.4388 18.1146 12.1976L23.4851 5.64984H24.7702C25.4292 5.64984 25.9653 6.18596 25.9653 6.84495V18.0622H7.53356C7.20996 18.0622 6.94764 18.3246 6.94764 18.6481C6.94764 18.9717 7.20996 19.234 7.53356 19.234H25.9654V21.978Z" fill="#00D992"/>
<path d="M1.97378 18.9854C1.79226 19.0215 1.62891 19.1195 1.5116 19.2626C1.39429 19.4058 1.33031 19.5852 1.33057 19.7703C1.33057 20.2707 1.7881 20.6539 2.28659 20.5543C2.4946 20.5128 2.67762 20.3903 2.79539 20.2139C2.91315 20.0375 2.95603 19.8215 2.9146 19.6135C2.82556 19.1759 2.40107 18.8994 1.97378 18.9854Z" fill="#00D992"/>
</svg>
