<svg width="20" height="20" viewBox="0 0 20 20" fill="none" xmlns="http://www.w3.org/2000/svg">
<path d="M10 0C4.50742 0 0 4.50742 0 10C0 14.687 3.28887 18.9447 7.65625 20V16.6916C7.22352 16.7863 6.82527 16.7891 6.38477 16.6593C5.79375 16.4848 5.31355 16.0912 4.95711 15.4909C4.72992 15.1076 4.32723 14.6919 3.90715 14.7225L3.80418 13.5552C4.71254 13.4773 5.49832 14.1086 5.96481 14.8923C6.17203 15.2408 6.41051 15.4451 6.7166 15.5354C7.0125 15.6225 7.33016 15.5807 7.70035 15.45C7.79328 14.7089 8.13277 14.4314 8.3893 14.0408C5.78461 13.6523 4.74656 12.2699 4.33457 11.1792C3.78859 9.73098 4.08156 7.92176 5.04699 6.77844C5.06574 6.75613 5.09965 6.69785 5.08652 6.65711C4.64387 5.32 5.18324 4.21387 5.20309 4.09656C5.71395 4.24758 5.79695 3.94453 7.42219 4.93195L7.70309 5.1007C7.82059 5.17074 7.78367 5.13078 7.90113 5.12191C8.57973 4.93758 9.29504 4.83582 9.99984 4.82668C10.71 4.83582 11.4207 4.93762 12.1274 5.12941L12.2183 5.13855C12.2104 5.13734 12.243 5.13273 12.2978 5.10012C14.328 3.87039 14.2551 4.2723 14.7995 4.09531C14.8192 4.21281 15.3514 5.33691 14.9135 6.65711C14.8544 6.83898 16.6736 8.50477 15.6653 11.1788C15.2533 12.2699 14.2154 13.6517 11.6107 14.0402C11.9446 14.5491 12.3457 14.8204 12.3436 15.8702V20C16.7111 18.9447 19.9998 14.687 19.9998 10C20 4.50742 15.4926 0 10 0Z" fill="black"/>
</svg>
