<svg width="21" height="15" viewBox="0 0 21 15" fill="none" xmlns="http://www.w3.org/2000/svg">
<path d="M18.7422 0.119629H2.25781C1.2866 0.119629 0.5 0.911113 0.5 1.87744V12.4243C0.5 13.3964 1.29238 14.1821 2.25781 14.1821H18.7422C19.7053 14.1821 20.5 13.3997 20.5 12.4243V1.87744C20.5 0.912832 19.7165 0.119629 18.7422 0.119629ZM18.496 1.2915L11.743 8.00897C11.4109 8.341 10.9695 8.52381 10.5 8.52381C10.0305 8.52381 9.58906 8.34096 9.25594 8.00787L2.50398 1.2915H18.496ZM1.67188 12.1858V2.1167L6.73586 7.154L1.67188 12.1858ZM2.50473 13.0103L7.56672 7.98045L8.4284 8.8376C8.98176 9.39096 9.71746 9.69568 10.5 9.69568C11.2825 9.69568 12.0182 9.39096 12.5705 8.83869L13.4333 7.98045L18.4953 13.0103H2.50473ZM19.3281 12.1858L14.2641 7.154L19.3281 2.1167V12.1858Z" fill="#0D0D0D"/>
</svg>
