<svg width="30" height="29" viewBox="0 0 30 29" fill="none" xmlns="http://www.w3.org/2000/svg">
<path d="M9.03611 17.0243C8.90757 16.979 8.77953 16.9323 8.65203 16.8841V14.8284C8.97559 14.9059 9.16842 15.0695 9.18559 15.0844C9.27097 15.1605 9.38289 15.1999 9.49709 15.194C9.61129 15.1881 9.71858 15.1375 9.79572 15.0531C9.87286 14.9687 9.91364 14.8573 9.90922 14.743C9.9048 14.6287 9.85554 14.5208 9.77211 14.4426C9.74738 14.4198 9.33207 14.0456 8.65203 13.9436V13.5237C8.65016 13.4097 8.60354 13.3009 8.52222 13.2209C8.4409 13.1409 8.3314 13.0961 8.21733 13.0961C8.10326 13.0961 7.99376 13.1409 7.91244 13.2209C7.83112 13.3009 7.7845 13.4097 7.78262 13.5237V13.977C7.71637 13.9913 7.65069 14.0082 7.58575 14.0277C6.9639 14.215 6.49925 14.7472 6.3731 15.4166C6.25814 16.0269 6.45361 16.6154 6.88339 16.9525C7.11108 17.1311 7.3945 17.2947 7.78268 17.4675V20.074C7.44688 20.0493 7.21427 19.9673 6.83312 19.7179C6.78535 19.6865 6.73185 19.6649 6.67569 19.6541C6.61952 19.6434 6.5618 19.6439 6.50583 19.6556C6.44985 19.6672 6.39672 19.6897 6.34947 19.7219C6.30223 19.7541 6.2618 19.7953 6.2305 19.8432C6.1992 19.891 6.17765 19.9446 6.16707 20.0008C6.1565 20.0569 6.15711 20.1147 6.16888 20.1706C6.18064 20.2266 6.20333 20.2796 6.23564 20.3268C6.26795 20.374 6.30924 20.4143 6.35716 20.4455C6.91286 20.809 7.29255 20.9174 7.78268 20.945V21.4151C7.78455 21.5292 7.83118 21.6379 7.9125 21.7179C7.99382 21.7979 8.10332 21.8427 8.21739 21.8427C8.33146 21.8427 8.44096 21.7979 8.52228 21.7179C8.6036 21.6379 8.65022 21.5292 8.65209 21.4151V20.9104C9.62738 20.7191 10.1971 19.9149 10.3234 19.1637C10.4856 18.1979 9.98041 17.3581 9.03611 17.0243ZM7.41981 16.2684C7.24649 16.1324 7.17272 15.8678 7.22739 15.5776C7.27638 15.3176 7.448 15.0053 7.78256 14.8789V16.5003C7.64604 16.4262 7.52259 16.349 7.41981 16.2684ZM9.46584 19.0196C9.39892 19.4175 9.12178 19.8393 8.65197 20.0075V17.8103C8.68332 17.8215 8.71403 17.8326 8.74631 17.8441C9.54963 18.128 9.50017 18.8155 9.46584 19.0196Z" fill="#0D0D0D"/>
<path d="M29.9759 16.4649C29.9397 16.2984 29.862 16.1438 29.7499 16.0154C29.6379 15.8871 29.4952 15.7892 29.3352 15.7308L28.091 15.2735C28.0373 15.2533 27.9801 15.244 27.9228 15.246C27.8655 15.248 27.8092 15.2613 27.757 15.2852C27.7049 15.3091 27.658 15.3431 27.6191 15.3852C27.5801 15.4273 27.5499 15.4766 27.5301 15.5305C27.5103 15.5843 27.5014 15.6415 27.5038 15.6988C27.5062 15.7561 27.52 15.8123 27.5442 15.8643C27.5685 15.9163 27.6028 15.9629 27.6452 16.0016C27.6875 16.0402 27.7371 16.0701 27.7911 16.0895L29.0353 16.5468C29.1001 16.5706 29.1204 16.6227 29.1268 16.6517C29.1332 16.6806 29.1366 16.7365 29.0877 16.7853L17.981 27.892C17.9321 27.941 17.8762 27.9374 17.8473 27.9311C17.8184 27.9247 17.7663 27.9044 17.7425 27.8395L16.1817 23.5927C16.131 23.4547 16.0509 23.3293 15.9469 23.2253C15.8429 23.1213 15.7175 23.0413 15.5795 22.9906L11.3327 21.4298C11.2679 21.406 11.2476 21.3539 11.2412 21.3249C11.2348 21.296 11.2314 21.2401 11.2802 21.1913L22.3871 10.0846C22.4359 10.0357 22.4916 10.0392 22.5206 10.0455C22.5496 10.0519 22.6017 10.0722 22.6255 10.137L24.1863 14.3838C24.2369 14.5219 24.317 14.6473 24.421 14.7512C24.525 14.8552 24.6504 14.9353 24.7885 14.9859L25.8686 15.3829C26.094 15.4658 26.3438 15.3502 26.4266 15.1249C26.5094 14.8995 26.3939 14.6497 26.1685 14.5669L25.0883 14.1698C25.0686 14.1626 25.0507 14.1512 25.0359 14.1363C25.0211 14.1215 25.0096 14.1036 25.0024 14.0839L23.4416 9.83715C23.3832 9.6771 23.2853 9.53443 23.157 9.4224C23.0286 9.31037 22.874 9.23264 22.7076 9.19643C22.5413 9.15942 22.3683 9.16507 22.2048 9.21287C22.0412 9.26068 21.8925 9.34907 21.7723 9.46982L21.3518 9.89029V5.57746C21.3518 5.01818 20.8968 4.56315 20.3375 4.56315H15.91C16.315 3.77565 16.1884 2.78319 15.5295 2.12431C15.2583 1.85234 14.9175 1.66038 14.5443 1.56951C14.1712 1.47864 13.7802 1.49238 13.4143 1.60921C13.1313 0.788083 12.3513 0.196289 11.4352 0.196289C10.5192 0.196289 9.7393 0.787966 9.45617 1.60898C8.72328 1.37419 7.90602 1.55917 7.341 2.12425C6.94562 2.51958 6.72788 3.04522 6.72788 3.60438C6.72732 3.93791 6.80686 4.26669 6.95979 4.56309H6.59511C6.48105 4.56496 6.3723 4.61158 6.29231 4.6929C6.21231 4.77422 6.16748 4.88372 6.16748 4.99779C6.16748 5.11186 6.21231 5.22136 6.29231 5.30268C6.3723 5.384 6.48105 5.43062 6.59511 5.4325H9.69295V9.54687C9.21033 9.45877 8.72076 9.41431 8.23016 9.41404C7.32407 9.41404 6.47142 9.55525 5.65544 9.82701L2.38815 9.82713V5.5774C2.38818 5.53898 2.40346 5.50214 2.43063 5.47497C2.4578 5.4478 2.49463 5.43253 2.53306 5.4325H4.51498C4.62904 5.43062 4.73779 5.384 4.81778 5.30268C4.89778 5.22136 4.94261 5.11186 4.94261 4.99779C4.94261 4.88372 4.89778 4.77422 4.81778 4.6929C4.73779 4.61158 4.62904 4.56496 4.51498 4.56309H2.53294C1.97366 4.56309 1.51863 5.01812 1.51863 5.5774V12.8772C1.51863 12.8798 1.51898 12.8824 1.51904 12.8851C0.562791 14.2296 0 15.8724 0 17.6441C0 19.4119 0.554412 21.0979 1.60329 22.5198C1.6437 22.5747 1.69645 22.6193 1.75728 22.65C1.81811 22.6806 1.88531 22.6966 1.95345 22.6965C2.03387 22.6964 2.11271 22.6741 2.18118 22.6319C2.24966 22.5897 2.30509 22.5294 2.3413 22.4576C2.37752 22.3858 2.39311 22.3053 2.38633 22.2252C2.37955 22.1451 2.35067 22.0684 2.3029 22.0037C1.36505 20.7323 0.869352 19.2248 0.869352 17.6441C0.869352 13.5854 4.17133 10.2835 8.22998 10.2835C11.6319 10.2835 14.5564 12.5755 15.3737 15.8683L14.6378 16.6042C14.4176 15.2375 13.7662 13.9787 12.7559 12.9949C11.536 11.8071 9.92867 11.1529 8.22998 11.1529C4.65074 11.1529 1.73876 14.0648 1.73876 17.6441C1.73876 21.2233 4.65068 24.1353 8.22998 24.1353C9.70724 24.1353 11.1381 23.6297 12.2877 22.7071L13.2195 23.0495C11.865 24.2987 10.0802 25.0047 8.22998 25.0047C6.55069 25.0047 4.90697 24.4218 3.60163 23.3633C3.51187 23.2927 3.39794 23.2603 3.28445 23.273C3.17097 23.2857 3.06704 23.3425 2.99512 23.4312C2.9232 23.5199 2.88907 23.6334 2.9001 23.747C2.91113 23.8607 2.96644 23.9655 3.05407 24.0387C4.51375 25.2223 6.35195 25.8742 8.22998 25.8742C10.4459 25.8742 12.5776 24.969 14.124 23.382L15.2795 23.8067C15.2993 23.8139 15.3172 23.8253 15.332 23.8402C15.3469 23.855 15.3583 23.873 15.3655 23.8927L16.9263 28.1394C16.9847 28.2994 17.0826 28.4421 17.2109 28.5541C17.3393 28.6662 17.4939 28.7439 17.6603 28.7801C17.7336 28.7962 17.8073 28.8042 17.8803 28.8042C18.0132 28.8041 18.1449 28.7778 18.2676 28.7268C18.3904 28.6758 18.5019 28.601 18.5956 28.5067L29.7025 17.4C29.8232 17.2799 29.9116 17.1311 29.9594 16.9676C30.0072 16.8041 30.0129 16.6312 29.9759 16.4649ZM2.38804 11.8532V10.6967H3.82276C3.30301 11.0276 2.82179 11.4156 2.38804 11.8532ZM20.4824 5.57746V9.82719H13.1775V5.43256H20.3375C20.3759 5.4326 20.4127 5.44788 20.4399 5.47505C20.467 5.50221 20.4823 5.53904 20.4824 5.57746ZM14.9147 2.73907C15.3919 3.21626 15.3919 3.99268 14.9148 4.46975C14.8958 4.48885 14.8588 4.52049 14.7946 4.56315H12.6766C13.3076 3.37622 13.4712 2.79544 13.5135 2.50364C13.7424 2.39182 14.0006 2.35439 14.2519 2.39661C14.5031 2.43882 14.7349 2.55857 14.9147 2.73907ZM11.4352 1.0657C12.11 1.0657 12.659 1.61472 12.659 2.28948C12.659 2.41511 12.5875 2.94784 11.6864 4.56309H11.184C10.283 2.94825 10.2114 2.41534 10.2114 2.28948C10.2114 1.61472 10.7603 1.0657 11.4352 1.0657ZM7.95571 4.46981C7.72456 4.23866 7.59723 3.93133 7.59723 3.60444C7.59723 3.27755 7.72456 2.97022 7.95571 2.73907C8.3293 2.36548 8.8911 2.27583 9.35691 2.50388C9.39922 2.79579 9.56269 3.37628 10.1937 4.56315H8.07582C8.01167 4.52055 7.97481 4.48891 7.95571 4.46981ZM10.5622 5.43256H12.3081V9.82719H10.8029C10.801 9.82719 10.7991 9.82742 10.7972 9.82748C10.7193 9.80182 10.6409 9.77767 10.5622 9.75435V5.43256ZM13.3738 11.2237C13.1378 11.0345 12.8916 10.8585 12.6361 10.6967H20.4824V10.7597L18.7996 12.4425H14.6017C14.2362 11.9944 13.8246 11.5859 13.3738 11.2237ZM15.2225 13.3119H17.9301L16.0775 15.1645C15.8704 14.5139 15.5832 13.8916 15.2225 13.3119ZM8.23004 23.266C5.13015 23.266 2.60829 20.744 2.60829 17.6442C2.60829 14.5444 5.13021 12.0224 8.23004 12.0224C11.2143 12.0224 13.7153 14.4253 13.846 17.3962L10.6655 20.5766C10.4196 20.8225 10.3174 21.1722 10.3921 21.5118C10.4669 21.8515 10.7064 22.1259 11.0329 22.2459L11.3069 22.3466C10.3927 22.9462 9.32331 23.2657 8.23004 23.266Z" fill="#0D0D0D"/>
<path d="M21.3152 22.6506C21.3699 22.6506 21.4257 22.6402 21.4795 22.6181C21.5323 22.5966 21.5804 22.5648 21.621 22.5246C21.6615 22.4844 21.6938 22.4366 21.7159 22.384C21.738 22.3313 21.7495 22.2749 21.7497 22.2178C21.75 22.1607 21.739 22.1041 21.7174 22.0513L19.2144 15.928C19.1928 15.8751 19.161 15.8271 19.1208 15.7865C19.0807 15.7459 19.0329 15.7137 18.9802 15.6916C18.9276 15.6695 18.8711 15.658 18.814 15.6577C18.7569 15.6575 18.7003 15.6685 18.6475 15.6901C18.5947 15.7117 18.5466 15.7435 18.506 15.7837C18.4655 15.8239 18.4332 15.8716 18.4111 15.9243C18.389 15.9769 18.3775 16.0334 18.3773 16.0905C18.377 16.1476 18.388 16.2042 18.4096 16.257L20.9126 22.3803C20.9453 22.4602 21.001 22.5286 21.0727 22.5768C21.1444 22.6249 21.2288 22.6506 21.3152 22.6506ZM16.147 17.7408C15.8424 18.0453 15.6934 18.4636 15.7276 18.9184C15.7598 19.3487 15.9548 19.763 16.2766 20.0847C16.5984 20.4065 17.0126 20.6015 17.4429 20.6338C17.4856 20.637 17.528 20.6386 17.5699 20.6386C17.9753 20.6386 18.3446 20.4903 18.6206 20.2143C18.9252 19.9098 19.0741 19.4915 19.04 19.0367C19.0077 18.6063 18.8127 18.1921 18.491 17.8703C18.1692 17.5485 17.755 17.3535 17.3246 17.3213C16.8694 17.287 16.4515 17.4362 16.147 17.7408ZM17.8762 18.4851C18.0509 18.6599 18.1564 18.8788 18.1731 19.1017C18.188 19.3001 18.1285 19.4769 18.0058 19.5996C17.8831 19.7223 17.7061 19.7815 17.5079 19.7669C17.285 19.7502 17.0661 19.6448 16.8913 19.47C16.7167 19.2953 16.6112 19.0763 16.5945 18.8535C16.5796 18.6552 16.639 18.4783 16.7618 18.3556C16.8721 18.2453 17.0262 18.1861 17.2004 18.1861C17.2199 18.1861 17.2397 18.1869 17.2597 18.1884C17.4825 18.205 17.7015 18.3104 17.8762 18.4851ZM22.9634 21.1429C23.3688 21.1429 23.7382 20.9946 24.0141 20.7187C24.6246 20.1082 24.5665 19.0567 23.8846 18.3746C23.2027 17.6927 22.1511 17.6346 21.5406 18.245C20.9301 18.8555 20.9882 19.907 21.6702 20.589C21.992 20.9108 22.4062 21.1058 22.8365 21.138C22.8792 21.1413 22.9215 21.1429 22.9634 21.1429ZM22.1554 18.8598C22.2705 18.7447 22.4267 18.6889 22.5946 18.6889C22.8226 18.6889 23.0722 18.7919 23.2698 18.9895C23.6128 19.3325 23.6709 19.8324 23.3993 20.104C23.2766 20.2266 23.0997 20.286 22.9015 20.2712C22.6786 20.2545 22.4596 20.1491 22.2849 19.9743C21.942 19.6313 21.8839 19.1314 22.1554 18.8598Z" fill="#0D0D0D"/>
</svg>
