<svg width="30" height="31" viewBox="0 0 30 31" fill="none" xmlns="http://www.w3.org/2000/svg">
<path d="M16 4.07695C16.1326 4.07695 16.2598 4.02427 16.3536 3.93051C16.4473 3.83674 16.5 3.70956 16.5 3.57695C16.5001 3.48496 16.5255 3.39478 16.5736 3.31632C16.6216 3.23787 16.6904 3.17419 16.7723 3.13229C16.8541 3.09039 16.946 3.07189 17.0377 3.07883C17.1295 3.08578 17.2175 3.11789 17.2922 3.17165C17.3668 3.2254 17.4252 3.2987 17.4609 3.38349C17.4965 3.46829 17.5081 3.56128 17.4944 3.65223C17.4806 3.74319 17.442 3.82858 17.3828 3.89902C17.3237 3.96945 17.2462 4.0222 17.159 4.05145C16.9631 4.12108 16.794 4.25058 16.6757 4.42161C16.5574 4.59264 16.496 4.79655 16.5 5.00445V5.57695C16.5 5.70956 16.5527 5.83674 16.6464 5.93051C16.7402 6.02427 16.8674 6.07695 17 6.07695C17.1326 6.07695 17.2598 6.02427 17.3536 5.93051C17.4473 5.83674 17.5 5.70956 17.5 5.57695L17.4765 4.99945C17.7382 4.91176 17.9707 4.75354 18.1483 4.54222C18.3259 4.33089 18.4418 4.07466 18.4831 3.80172C18.5244 3.52879 18.4896 3.24974 18.3826 2.99531C18.2755 2.74088 18.1003 2.52093 17.8762 2.35968C17.6522 2.19843 17.388 2.10213 17.1127 2.08139C16.8374 2.06065 16.5618 2.11627 16.3161 2.24213C16.0704 2.36798 15.8642 2.5592 15.7202 2.79471C15.5762 3.03023 15.5 3.30091 15.5 3.57695C15.5 3.70956 15.5527 3.83674 15.6464 3.93051C15.7402 4.02427 15.8674 4.07695 16 4.07695ZM8.5 14.577H9.5C9.63261 14.577 9.75979 14.5243 9.85355 14.4305C9.94732 14.3367 10 14.2096 10 14.077C10 13.9443 9.94732 13.8172 9.85355 13.7234C9.75979 13.6296 9.63261 13.577 9.5 13.577H8.5C8.36739 13.577 8.24021 13.6296 8.14645 13.7234C8.05268 13.8172 8 13.9443 8 14.077C8 14.2096 8.05268 14.3367 8.14645 14.4305C8.24021 14.5243 8.36739 14.577 8.5 14.577ZM11.5 14.577H17.5C17.6326 14.577 17.7598 14.5243 17.8536 14.4305C17.9473 14.3367 18 14.2096 18 14.077C18 13.9443 17.9473 13.8172 17.8536 13.7234C17.7598 13.6296 17.6326 13.577 17.5 13.577H11.5C11.3674 13.577 11.2402 13.6296 11.1464 13.7234C11.0527 13.8172 11 13.9443 11 14.077C11 14.2096 11.0527 14.3367 11.1464 14.4305C11.2402 14.5243 11.3674 14.577 11.5 14.577ZM8.5 16.577H9.5C9.63261 16.577 9.75979 16.5243 9.85355 16.4305C9.94732 16.3367 10 16.2096 10 16.077C10 15.9443 9.94732 15.8172 9.85355 15.7234C9.75979 15.6296 9.63261 15.577 9.5 15.577H8.5C8.36739 15.577 8.24021 15.6296 8.14645 15.7234C8.05268 15.8172 8 15.9443 8 16.077C8 16.2096 8.05268 16.3367 8.14645 16.4305C8.24021 16.5243 8.36739 16.577 8.5 16.577ZM11.5 16.577H17.5C17.6326 16.577 17.7598 16.5243 17.8536 16.4305C17.9473 16.3367 18 16.2096 18 16.077C18 15.9443 17.9473 15.8172 17.8536 15.7234C17.7598 15.6296 17.6326 15.577 17.5 15.577H11.5C11.3674 15.577 11.2402 15.6296 11.1464 15.7234C11.0527 15.8172 11 15.9443 11 16.077C11 16.2096 11.0527 16.3367 11.1464 16.4305C11.2402 16.5243 11.3674 16.577 11.5 16.577ZM8.5 18.577H9.5C9.63261 18.577 9.75979 18.5243 9.85355 18.4305C9.94732 18.3367 10 18.2096 10 18.077C10 17.9443 9.94732 17.8172 9.85355 17.7234C9.75979 17.6296 9.63261 17.577 9.5 17.577H8.5C8.36739 17.577 8.24021 17.6296 8.14645 17.7234C8.05268 17.8172 8 17.9443 8 18.077C8 18.2096 8.05268 18.3367 8.14645 18.4305C8.24021 18.5243 8.36739 18.577 8.5 18.577ZM11.5 18.577H17.5C17.6326 18.577 17.7598 18.5243 17.8536 18.4305C17.9473 18.3367 18 18.2096 18 18.077C18 17.9443 17.9473 17.8172 17.8536 17.7234C17.7598 17.6296 17.6326 17.577 17.5 17.577H11.5C11.3674 17.577 11.2402 17.6296 11.1464 17.7234C11.0527 17.8172 11 17.9443 11 18.077C11 18.2096 11.0527 18.3367 11.1464 18.4305C11.2402 18.5243 11.3674 18.577 11.5 18.577Z" fill="#00D992"/>
<path d="M29.5 25.5767H29V7.07666C29 6.41362 28.7366 5.77773 28.2678 5.30889C27.7989 4.84005 27.163 4.57666 26.5 4.57666H25V3.07666C25 2.41362 24.7366 1.77773 24.2678 1.30889C23.7989 0.840052 23.163 0.57666 22.5 0.57666H11.5C10.837 0.57666 10.2011 0.840052 9.73223 1.30889C9.26339 1.77773 9 2.41362 9 3.07666V4.57666H3.5C2.83696 4.57666 2.20107 4.84005 1.73223 5.30889C1.26339 5.77773 1 6.41362 1 7.07666V25.5767H0.5C0.367392 25.5767 0.240215 25.6293 0.146447 25.7231C0.0526784 25.8169 0 25.9441 0 26.0767V28.0767C0 28.7397 0.263392 29.3756 0.732233 29.8444C1.20107 30.3133 1.83696 30.5767 2.5 30.5767H27.5C28.163 30.5767 28.7989 30.3133 29.2678 29.8444C29.7366 29.3756 30 28.7397 30 28.0767V26.0767C30 25.9441 29.9473 25.8169 29.8536 25.7231C29.7598 25.6293 29.6326 25.5767 29.5 25.5767ZM10 3.07666C10.0012 2.6792 10.1596 2.29836 10.4407 2.01731C10.7217 1.73626 11.1025 1.57785 11.5 1.57666H22.5C22.8975 1.57785 23.2783 1.73626 23.5593 2.01731C23.8404 2.29836 23.9988 2.6792 24 3.07666V7.07666C23.9988 7.47412 23.8404 7.85496 23.5593 8.13601C23.2783 8.41706 22.8975 8.57547 22.5 8.57666H21.5C21.3674 8.57666 21.2402 8.62934 21.1464 8.72311C21.0527 8.81687 21 8.94405 21 9.07666V10.1417L18.775 8.66166C18.6941 8.60607 18.5982 8.57642 18.5 8.57666H11.5C11.1025 8.57547 10.7217 8.41706 10.4407 8.13601C10.1596 7.85496 10.0012 7.47412 10 7.07666V3.07666ZM9.05 7.57666C9.16674 8.14061 9.47397 8.64722 9.9201 9.01141C10.3662 9.3756 10.9241 9.57519 11.5 9.57666H18.35L21.225 11.4917C21.3002 11.5412 21.3874 11.5695 21.4773 11.5736C21.5673 11.5777 21.6567 11.5574 21.736 11.5149C21.8154 11.4724 21.8818 11.4092 21.9283 11.3321C21.9748 11.2549 21.9995 11.1667 22 11.0767V9.57666H22.5C23.0759 9.57519 23.6338 9.3756 24.0799 9.01141C24.526 8.64722 24.8333 8.14061 24.95 7.57666H26V23.5767H4V7.57666H9.05ZM2 7.07666C2.00119 6.6792 2.1596 6.29836 2.44065 6.01731C2.7217 5.73626 3.10254 5.57785 3.5 5.57666H9V6.57666H3.5C3.36739 6.57666 3.24021 6.62934 3.14645 6.72311C3.05268 6.81687 3 6.94405 3 7.07666V24.0767C3 24.2093 3.05268 24.3364 3.14645 24.4302C3.24021 24.524 3.36739 24.5767 3.5 24.5767H26.5C26.6326 24.5767 26.7598 24.524 26.8536 24.4302C26.9473 24.3364 27 24.2093 27 24.0767V7.07666C27 6.94405 26.9473 6.81687 26.8536 6.72311C26.7598 6.62934 26.6326 6.57666 26.5 6.57666H25V5.57666H26.5C26.8975 5.57785 27.2783 5.73626 27.5593 6.01731C27.8404 6.29836 27.9988 6.6792 28 7.07666V25.5767H2V7.07666ZM17 26.5767V27.0767C17 27.2093 16.9473 27.3364 16.8536 27.4302C16.7598 27.524 16.6326 27.5767 16.5 27.5767H13.5C13.3674 27.5767 13.2402 27.524 13.1464 27.4302C13.0527 27.3364 13 27.2093 13 27.0767V26.5767H17ZM29 28.0767C28.9988 28.4741 28.8404 28.855 28.5593 29.136C28.2783 29.4171 27.8975 29.5755 27.5 29.5767H2.5C2.10254 29.5755 1.7217 29.4171 1.44065 29.136C1.1596 28.855 1.00119 28.4741 1 28.0767V26.5767H12V27.0767C12.0012 27.4741 12.1596 27.855 12.4407 28.136C12.7217 28.4171 13.1025 28.5755 13.5 28.5767H16.5C16.8975 28.5755 17.2783 28.4171 17.5593 28.136C17.8404 27.855 17.9988 27.4741 18 27.0767V26.5767H29V28.0767Z" fill="#00D992"/>
<path d="M18.5 11.5771H7.5C6.83696 11.5771 6.20107 11.8405 5.73223 12.3094C5.26339 12.7782 5 13.4141 5 14.0771V18.0771C5 18.7402 5.26339 19.3761 5.73223 19.8449C6.20107 20.3138 6.83696 20.5771 7.5 20.5771H9V22.0771C8.99936 22.1678 9.02376 22.2568 9.07052 22.3345C9.11729 22.4121 9.18459 22.4753 9.265 22.5171C9.34404 22.5604 9.43352 22.581 9.52353 22.5766C9.61353 22.5722 9.70057 22.543 9.775 22.4921L12.65 20.5771H18.5C19.163 20.5771 19.7989 20.3138 20.2678 19.8449C20.7366 19.3761 21 18.7402 21 18.0771V14.0771C21 13.4141 20.7366 12.7782 20.2678 12.3094C19.7989 11.8405 19.163 11.5771 18.5 11.5771ZM20 18.0771C19.9988 18.4746 19.8404 18.8554 19.5593 19.1365C19.2783 19.4175 18.8975 19.576 18.5 19.5771H12.5C12.4018 19.5769 12.3059 19.6066 12.225 19.6621L10 21.1421V20.0771C10 19.9445 9.94732 19.8174 9.85355 19.7236C9.75979 19.6298 9.63261 19.5771 9.5 19.5771H7.5C7.10254 19.576 6.7217 19.4175 6.44065 19.1365C6.1596 18.8554 6.00119 18.4746 6 18.0771V14.0771C6.00119 13.6797 6.1596 13.2988 6.44065 13.0178C6.7217 12.7368 7.10254 12.5783 7.5 12.5771H18.5C18.8975 12.5783 19.2783 12.7368 19.5593 13.0178C19.8404 13.2988 19.9988 13.6797 20 14.0771V18.0771Z" fill="#00D992"/>
<path d="M17 7.57715C17.2761 7.57715 17.5 7.35329 17.5 7.07715C17.5 6.80101 17.2761 6.57715 17 6.57715C16.7239 6.57715 16.5 6.80101 16.5 7.07715C16.5 7.35329 16.7239 7.57715 17 7.57715Z" fill="#00D992"/>
</svg>
