<svg width="21" height="21" viewBox="0 0 21 21" fill="none" xmlns="http://www.w3.org/2000/svg">
<path id="IconWPPV2" d="M10.4998 20.4209H10.4959C8.93551 20.4203 7.38844 20.0519 6.00203 19.353L1.72832 20.3252C1.46758 20.3844 1.19441 20.3061 1.00461 20.1177C0.814805 19.9292 0.734688 19.6567 0.79207 19.3955L1.71812 15.1862C0.9225 13.7169 0.502461 12.1077 0.500156 10.5121C0.5 10.5066 0.5 10.5011 0.5 10.4958C0.501055 7.8516 1.54676 5.36137 3.44418 3.48391C5.33734 1.61074 7.84301 0.579102 10.4997 0.579102C13.1623 0.580156 15.6641 1.6127 17.5447 3.48637C19.4514 5.38609 20.5009 7.87828 20.5 10.5037C20.4992 12.4878 19.9043 14.4054 18.7796 16.0489C18.5359 16.4051 18.0497 16.4962 17.6936 16.2525C17.3376 16.0088 17.2464 15.5227 17.49 15.1665C18.4363 13.7837 18.9367 12.1712 18.9375 10.5031C18.9383 8.29625 18.052 6.19738 16.4419 4.59324C14.8561 3.01316 12.7456 2.1425 10.4994 2.1416C5.85414 2.1416 2.07227 5.88152 2.0625 10.4818C2.0625 10.4868 2.06266 10.4917 2.06266 10.4966C2.06203 11.9205 2.46258 13.3643 3.22078 14.6718C3.31889 14.8409 3.34998 15.0407 3.30789 15.2316L2.5827 18.5283L5.93582 17.7655C6.12095 17.7236 6.31502 17.7503 6.48191 17.8407C7.70707 18.5059 9.09519 18.8578 10.4962 18.8584H10.4997C12.023 18.8584 13.5181 18.4468 14.8267 17.6671C15.1971 17.446 15.6767 17.5673 15.8977 17.938C16.1187 18.3086 15.9975 18.788 15.6268 19.0091C14.0762 19.9331 12.3047 20.4209 10.4997 20.4209L10.4998 20.4209ZM8.29344 6.52516C8.12207 6.14551 7.94172 6.13254 7.77875 6.12598H7.34035C7.18777 6.12598 6.93996 6.18301 6.73047 6.41113C6.52082 6.63926 5.92984 7.19074 5.92984 8.31242C5.92984 9.4341 6.74953 10.518 6.86383 10.6704C6.97828 10.8223 8.44633 13.1977 10.7711 14.1115C12.7034 14.8709 13.0966 14.7199 13.5159 14.6817C13.9354 14.6439 14.8693 14.1304 15.0598 13.598C15.2505 13.0658 15.2505 12.6096 15.1933 12.5142C15.1363 12.4193 14.9836 12.3623 14.7549 12.2482C14.526 12.1343 13.405 11.5732 13.1953 11.4972C12.9857 11.4213 12.8332 11.3832 12.6806 11.6115C12.528 11.8395 12.0788 12.3667 11.9453 12.5186C11.812 12.6711 11.6784 12.69 11.4497 12.5761C11.221 12.4616 10.4918 12.2167 9.61789 11.4402C8.93781 10.8357 8.46602 10.0652 8.3325 9.83691C8.19898 9.60894 8.31816 9.48535 8.43289 9.37168C8.53559 9.26961 8.67461 9.12996 8.78902 8.99691C8.90316 8.86387 8.93582 8.76879 9.01195 8.61668C9.08824 8.46453 9.05012 8.33148 8.99305 8.21734C8.93582 8.10336 8.49668 6.9759 8.29328 6.52516" fill="#0D0D0D"/>
</svg>
