<svg width="20" height="20" viewBox="0 0 20 20" fill="none" xmlns="http://www.w3.org/2000/svg">
<path d="M18.5576 0H1.44242C0.645703 0 0 0.645742 0 1.44242V18.5576C0 19.3543 0.645742 20 1.44242 20H18.5576C19.3543 20 20 19.3543 20 18.5576V1.44242C20 0.645703 19.3543 0 18.5576 0ZM7.09414 15.1172H4.65871V7.79008H7.09414V15.1172ZM5.87648 6.78953H5.86063C5.04336 6.78953 4.5148 6.22695 4.5148 5.52383C4.5148 4.80484 5.05953 4.25781 5.8927 4.25781C6.72582 4.25781 7.23852 4.80484 7.25438 5.52383C7.25438 6.22695 6.72582 6.78953 5.87648 6.78953ZM15.8759 15.1172H13.4407V11.1973C13.4407 10.2123 13.0881 9.54039 12.2069 9.54039C11.5341 9.54039 11.1335 9.99359 10.9574 10.4311C10.893 10.5876 10.8773 10.8064 10.8773 11.0254V15.1172H8.44195C8.44195 15.1172 8.47387 8.47746 8.44195 7.79008H10.8773V8.8275C11.2009 8.32828 11.78 7.61813 13.0721 7.61813C14.6745 7.61813 15.8759 8.66531 15.8759 10.9158V15.1172Z" fill="black"/>
</svg>
