<svg width="35" height="31" viewBox="0 0 35 31" fill="none" xmlns="http://www.w3.org/2000/svg">
<path d="M7.30147 15.7057C7.63436 16.0292 7.79412 16.4523 7.75134 16.8975C7.70789 17.3534 7.44652 17.7805 7.05214 18.0399C6.84291 18.1769 6.60561 18.2698 6.35695 18.3186V18.7632C6.35695 19.0586 6.11765 19.2972 5.82286 19.2972C5.52807 19.2972 5.28877 19.0579 5.28877 18.7632V18.2531C4.67981 18.0553 4.19719 17.5954 3.92848 16.9537C3.81417 16.6816 3.94251 16.3681 4.21457 16.2545C4.48663 16.1402 4.79946 16.2685 4.91377 16.5406C5.10495 16.9964 5.41176 17.1743 5.63636 17.2424C5.91979 17.3293 6.24532 17.2919 6.46658 17.1468C6.59225 17.0646 6.67513 16.9329 6.6885 16.7966C6.69987 16.6769 6.65575 16.568 6.55749 16.4724C6.45454 16.3721 6.16043 16.3026 5.9004 16.2418C5.45187 16.1362 4.89305 16.0045 4.48462 15.5854C4.13302 15.2231 3.99131 14.6823 4.1143 14.1729C4.24064 13.6502 4.6143 13.2485 5.13904 13.0706C5.1885 13.0539 5.23864 13.0399 5.28944 13.0265V12.5459C5.28944 12.2505 5.52874 12.0118 5.82353 12.0118C6.11831 12.0118 6.35762 12.2511 6.35762 12.5459V13.0058C6.54211 13.0466 6.71791 13.1108 6.877 13.1976C7.29011 13.4243 7.56751 13.7812 7.67847 14.2311C7.74933 14.5178 7.5742 14.8073 7.28743 14.8775C7.00067 14.9476 6.71123 14.7732 6.64104 14.4864C6.60294 14.3307 6.51203 14.2157 6.3643 14.1341C6.127 14.0045 5.77273 13.9837 5.48195 14.082C5.26069 14.1569 5.18115 14.3086 5.15374 14.4229C5.11631 14.5767 5.15441 14.7404 5.25067 14.8387C5.44184 15.0339 5.78409 15.1148 6.14639 15.2003C6.55882 15.2993 6.98663 15.4002 7.30147 15.7057ZM25.8175 25.6629C25.9178 25.7632 25.9739 25.8989 25.9739 26.0406C25.9739 26.1823 25.9178 26.318 25.8175 26.4182C23.1357 29.1001 19.5695 30.5767 15.7761 30.5767C14.1992 30.5767 12.6571 30.3206 11.1852 29.8166C10.8088 30.2799 10.2353 30.5767 9.59358 30.5767H2.05214C0.921791 30.5767 0.00200535 29.6569 0.00200535 28.5265C0.00200535 27.9256 0.261364 27.3848 0.673797 27.0091C0.261364 26.6341 0.00200535 26.0934 0.00200535 25.4931C0.00200535 24.8922 0.261364 24.3514 0.673797 23.9757C0.261364 23.6007 0.00200535 23.0599 0.00200535 22.4597C0.00200535 21.328 0.921791 20.4075 2.05214 20.4075H2.4639C0.974599 19.3521 0 17.6154 0 15.6555C0 13.5686 1.10361 11.7351 2.75802 10.707C5.01872 5.52185 10.109 2.18094 15.7767 2.18094C16.0722 2.18094 16.3108 2.42024 16.3108 2.71503V16.1569L25.8175 25.6629ZM5.82286 20.4075C8.44318 20.4075 10.5749 18.2759 10.5749 15.6555C10.5749 13.0339 8.44318 10.9015 5.82286 10.9015C3.2012 10.9015 1.06885 13.0339 1.06885 15.6555C1.06885 18.2759 3.20187 20.4075 5.82286 20.4075ZM2.05214 23.441H9.59358C10.135 23.441 10.5749 23.0005 10.5749 22.4597C10.5749 21.9176 10.1344 21.4764 9.59358 21.4764H2.05214C1.51069 21.4764 1.07086 21.9176 1.07086 22.4597C1.07086 23.0011 1.51136 23.441 2.05214 23.441ZM2.05214 26.4744H9.59358C10.135 26.4744 10.5749 26.0339 10.5749 25.4931C10.5749 24.951 10.1344 24.5098 9.59358 24.5098H2.05214C1.51069 24.5098 1.07086 24.951 1.07086 25.4931C1.07086 26.0345 1.51136 26.4744 2.05214 26.4744ZM10.5749 28.5265C10.5749 27.9844 10.1344 27.5432 9.59358 27.5432H2.05214C1.51069 27.5432 1.07086 27.9844 1.07086 28.5265C1.07086 29.068 1.51136 29.5078 2.05214 29.5078H9.59358C10.135 29.5085 10.5749 29.068 10.5749 28.5265ZM24.6771 26.0332L15.3991 16.7571C15.3495 16.7076 15.3101 16.6487 15.2833 16.5839C15.2564 16.5191 15.2426 16.4496 15.2426 16.3795V3.26048C10.6237 3.44631 6.48195 6.0292 4.27406 10.0419C4.77854 9.90267 5.29952 9.83229 5.82286 9.83268C9.03275 9.83268 11.6437 12.445 11.6437 15.6555C11.6437 17.6154 10.6698 19.3521 9.18048 20.4075H9.59358C10.7239 20.4075 11.6437 21.328 11.6437 22.4597C11.6437 23.0599 11.3844 23.6007 10.9719 23.9757C11.3844 24.3514 11.6437 24.8928 11.6437 25.4931C11.6437 26.0934 11.3844 26.6341 10.9719 27.0091C11.3844 27.3848 11.6437 27.9263 11.6437 28.5265C11.6437 28.6315 11.6357 28.7351 11.6203 28.836C12.9539 29.2819 14.3489 29.5085 15.7761 29.5085C19.1063 29.5085 22.246 28.2785 24.6771 26.0332ZM17.6671 14.7759V1.11075C17.6671 0.815297 17.9064 0.57666 18.2012 0.57666C21.994 0.57666 25.5595 2.05393 28.2413 4.73575C30.9225 7.41757 32.3997 10.9837 32.3997 14.7765C32.3997 15.072 32.1604 15.3106 31.8656 15.3106H18.2019C17.9064 15.3106 17.6671 15.0713 17.6671 14.7759ZM18.736 14.2418H31.3202C31.0461 7.42559 25.5515 1.93027 18.736 1.65554V14.2418ZM34.2246 17.1997C34.2246 20.9924 32.748 24.5579 30.0662 27.2391C29.9619 27.3434 29.8249 27.3955 29.6885 27.3955C29.5521 27.3955 29.4151 27.3434 29.3108 27.2391L19.6484 17.5773C19.4953 17.4243 19.4499 17.195 19.5328 16.9951C19.6156 16.7952 19.8102 16.6649 20.0261 16.6649H33.6898C33.9853 16.6649 34.2246 16.9042 34.2246 17.1997ZM33.1451 17.7337H21.3168L29.6805 26.0981C31.8048 23.7979 33.0207 20.8628 33.1451 17.7337Z" fill="#00D992"/>
</svg>
