<svg width="30" height="31" viewBox="0 0 30 31" fill="none" xmlns="http://www.w3.org/2000/svg">
<path d="M7.91103 4.68292C8.01719 4.96633 8.41971 5.04593 8.62663 4.82577C8.93202 4.52319 8.6526 3.9995 8.23079 4.08438C7.96695 4.12981 7.80101 4.43819 7.91103 4.68292ZM12.4495 4.95408C12.8342 4.96018 13.0366 4.47277 12.7604 4.20454C12.5969 4.03444 12.302 4.03573 12.1391 4.20454C11.864 4.47588 12.0633 4.95689 12.4495 4.95408ZM8.08776 12.5555H17.721C18.27 12.5385 18.2696 11.7419 17.721 11.7251H8.08776C7.53881 11.7421 7.53922 12.5387 8.08776 12.5555ZM8.08776 14.6089H15.3786C15.9276 14.5919 15.9272 13.7954 15.3786 13.7785H8.08776C7.53881 13.7955 7.53922 14.5921 8.08776 14.6089ZM8.08776 24.93H17.721C18.27 24.913 18.2696 24.1164 17.721 24.0996H8.08776C7.53881 24.1166 7.53922 24.9131 8.08776 24.93ZM8.08776 26.9834H12.511C13.06 26.9664 13.0595 26.1698 12.511 26.153H8.08776C7.53881 26.17 7.53922 26.9666 8.08776 26.9834ZM3.70326 14.4873C3.74181 14.5258 3.78758 14.5564 3.83796 14.5773C3.88833 14.5981 3.94232 14.6089 3.99684 14.6089C4.05137 14.6089 4.10536 14.5981 4.15573 14.5773C4.2061 14.5564 4.25187 14.5258 4.29043 14.4873L6.40434 12.3734C6.44289 12.3348 6.47347 12.289 6.49434 12.2387C6.5152 12.1883 6.52594 12.1343 6.52593 12.0798C6.52593 12.0252 6.51519 11.9712 6.49432 11.9209C6.47345 11.8705 6.44286 11.8247 6.40431 11.7862C6.36575 11.7476 6.31998 11.717 6.2696 11.6962C6.21922 11.6753 6.16523 11.6646 6.1107 11.6646C6.05618 11.6646 6.00218 11.6753 5.95181 11.6962C5.90143 11.7171 5.85566 11.7476 5.81711 11.7862L3.99676 13.6066L3.33872 12.9486C3.30029 12.9095 3.25449 12.8784 3.20398 12.8571C3.15346 12.8358 3.09923 12.8247 3.0444 12.8244C2.98958 12.8242 2.93525 12.8348 2.88455 12.8557C2.83386 12.8766 2.7878 12.9073 2.74903 12.9461C2.71027 12.9848 2.67956 13.0309 2.65869 13.0816C2.63783 13.1323 2.62721 13.1866 2.62745 13.2414C2.62769 13.2963 2.63878 13.3505 2.66009 13.401C2.6814 13.4515 2.71251 13.4973 2.75161 13.5357L3.70326 14.4873ZM2.75167 19.7834L3.70326 20.735C3.74181 20.7736 3.78758 20.8042 3.83796 20.825C3.88833 20.8459 3.94232 20.8566 3.99684 20.8566C4.05137 20.8566 4.10536 20.8459 4.15573 20.825C4.2061 20.8042 4.25187 20.7736 4.29043 20.735L6.40434 18.6211C6.44289 18.5826 6.47347 18.5368 6.49434 18.4864C6.5152 18.436 6.52594 18.382 6.52593 18.3275C6.52593 18.273 6.51519 18.219 6.49432 18.1686C6.47345 18.1183 6.44286 18.0725 6.40431 18.0339C6.36575 17.9954 6.31998 17.9648 6.2696 17.9439C6.21922 17.9231 6.16523 17.9123 6.1107 17.9123C6.05618 17.9123 6.00218 17.9231 5.95181 17.9439C5.90143 17.9648 5.85566 17.9954 5.81711 18.034L3.99676 19.8543L3.33872 19.1963C3.30017 19.1578 3.2544 19.1272 3.20404 19.1064C3.15367 19.0855 3.09969 19.0748 3.04517 19.0748C2.99066 19.0748 2.93668 19.0855 2.88631 19.1064C2.83595 19.1272 2.79019 19.1578 2.75164 19.1964C2.71309 19.2349 2.68252 19.2807 2.66166 19.331C2.6408 19.3814 2.63006 19.4354 2.63007 19.4899C2.63007 19.5444 2.64081 19.5984 2.66167 19.6488C2.68254 19.6991 2.71312 19.7449 2.75167 19.7834ZM2.75167 26.0312L3.70326 26.9828C3.74181 27.0214 3.78758 27.0519 3.83796 27.0728C3.88833 27.0937 3.94232 27.1044 3.99684 27.1044C4.05137 27.1044 4.10536 27.0937 4.15573 27.0728C4.2061 27.0519 4.25187 27.0214 4.29043 26.9828L6.40434 24.8689C6.44289 24.8303 6.47347 24.7846 6.49434 24.7342C6.5152 24.6838 6.52594 24.6298 6.52593 24.5753C6.52593 24.5208 6.51519 24.4668 6.49432 24.4164C6.47345 24.366 6.44286 24.3202 6.40431 24.2817C6.36575 24.2431 6.31998 24.2126 6.2696 24.1917C6.21922 24.1708 6.16523 24.1601 6.1107 24.1601C6.05618 24.1601 6.00218 24.1708 5.95181 24.1917C5.90143 24.2126 5.85566 24.2432 5.81711 24.2817L3.99676 26.1021L3.33872 25.4441C3.26086 25.3663 3.15527 25.3225 3.04517 25.3225C2.93508 25.3225 2.82949 25.3663 2.75164 25.4441C2.67379 25.522 2.63006 25.6276 2.63007 25.7377C2.63007 25.8478 2.67381 25.9534 2.75167 26.0312Z" fill="#00D992"/>
<path d="M23.3199 12.9799C22.4158 12.9799 21.5532 13.1616 20.767 13.4904V4.58466C20.767 4.03923 20.3233 3.5955 19.7778 3.5955H14.5329C14.5406 3.02152 14.0742 2.54895 13.4995 2.54936H12.3038C12.247 -0.08161 8.46923 -0.0802032 8.41308 2.54936H7.26758C6.69278 2.54889 6.22631 3.02152 6.2341 3.5955H0.989164C0.443731 3.5955 0 4.03923 0 4.58466V10.6837C-8.12454e-10 10.7382 0.0107391 10.7922 0.0316041 10.8426C0.0524691 10.893 0.0830514 10.9387 0.121605 10.9773C0.160158 11.0158 0.205928 11.0464 0.256301 11.0673C0.306673 11.0882 0.360662 11.0989 0.415185 11.0989C0.469708 11.0989 0.523697 11.0882 0.574069 11.0673C0.624442 11.0464 0.670212 11.0158 0.708765 10.9773C0.747319 10.9387 0.777901 10.893 0.798766 10.8426C0.819631 10.7922 0.83037 10.7382 0.83037 10.6837V9.31993H19.9366V13.9084C18.4625 14.7852 17.3549 16.2162 16.9035 17.9121H8.08811C7.97799 17.9121 7.87239 17.9558 7.79452 18.0337C7.71666 18.1116 7.67292 18.2172 7.67292 18.3273C7.67292 18.4374 7.71666 18.543 7.79452 18.6208C7.87239 18.6987 7.97799 18.7425 8.08811 18.7425H16.7387C16.6852 19.1478 16.6689 19.5572 16.6902 19.9655H8.08811C7.97799 19.9655 7.87239 20.0092 7.79452 20.0871C7.71666 20.165 7.67292 20.2706 7.67292 20.3807C7.67292 20.4908 7.71666 20.5964 7.79452 20.6743C7.87239 20.7521 7.97799 20.7959 8.08811 20.7959H16.7861C16.9543 21.7288 17.3202 22.615 17.8594 23.3948C18.3985 24.1746 19.0983 24.83 19.9118 25.3168C19.934 25.7828 19.9432 29.0169 19.9366 29.5582C19.9365 29.6003 19.9198 29.6407 19.89 29.6705C19.8602 29.7002 19.8199 29.717 19.7778 29.717H0.989164C0.947063 29.717 0.9067 29.7002 0.876931 29.6705C0.847161 29.6407 0.830416 29.6003 0.83037 29.5582V12.4695C0.83037 12.415 0.819631 12.361 0.798766 12.3106C0.777901 12.2602 0.747319 12.2145 0.708765 12.1759C0.670212 12.1374 0.624442 12.1068 0.574069 12.0859C0.523697 12.065 0.469708 12.0543 0.415185 12.0543C0.360662 12.0543 0.306673 12.065 0.256301 12.0859C0.205928 12.1068 0.160158 12.1374 0.121605 12.1759C0.0830514 12.2145 0.0524691 12.2602 0.0316041 12.3106C0.0107391 12.361 -8.12454e-10 12.415 0 12.4695V29.5582C0 30.1037 0.443731 30.5474 0.989164 30.5474H19.7778C20.3233 30.5474 20.767 30.1037 20.767 29.5582V27.4315C20.9856 27.5927 21.2336 27.7098 21.4971 27.776V28.7538C21.4971 29.759 22.3148 30.5767 23.3199 30.5767C24.325 30.5767 25.1428 29.759 25.1428 28.7538V27.776C26.0525 27.5478 26.7281 26.7232 26.7281 25.7438V25.3168C27.3436 24.9484 27.8953 24.4826 28.3617 23.9376C28.3993 23.8938 28.4278 23.8431 28.4457 23.7883C28.4637 23.7335 28.4706 23.6756 28.4662 23.6181C28.4618 23.5606 28.4461 23.5046 28.42 23.4531C28.3939 23.4017 28.358 23.3559 28.3142 23.3183C28.2704 23.2808 28.2196 23.2522 28.1648 23.2343C28.11 23.2163 28.0522 23.2094 27.9947 23.2138C27.9372 23.2182 27.8811 23.2339 27.8296 23.26C27.7782 23.2861 27.7324 23.3221 27.6949 23.3659C27.24 23.8973 26.6922 24.3416 26.0782 24.6768C26.009 24.7147 25.9513 24.7704 25.9111 24.8382C25.8708 24.906 25.8496 24.9834 25.8496 25.0623V25.7439C25.8496 26.3574 25.393 26.8487 24.8019 26.9311C24.7486 26.9252 23.8684 26.9348 23.7883 26.9311V21.2103C24.6436 21.5653 25.6908 21.358 26.3406 20.6913C26.3814 20.6505 26.4137 20.6021 26.4358 20.5488C26.4579 20.4955 26.4692 20.4384 26.4692 20.3807C26.4692 20.3231 26.4578 20.2659 26.4358 20.2127C26.4137 20.1594 26.3813 20.111 26.3405 20.0702C26.2998 20.0294 26.2513 19.997 26.1981 19.975C26.1448 19.9529 26.0877 19.9415 26.03 19.9415C25.9723 19.9415 25.9152 19.9529 25.8619 19.975C25.8086 19.997 25.7602 20.0294 25.7194 20.0702C25.2061 20.6044 24.2995 20.6478 23.7378 20.169C23.5878 19.8336 23.0518 19.8337 22.9019 20.169C22.34 20.6478 21.4337 20.6043 20.9202 20.0702C20.8794 20.0294 20.831 19.997 20.7777 19.975C20.7244 19.9529 20.6673 19.9415 20.6097 19.9415C20.552 19.9415 20.4949 19.9529 20.4416 19.975C20.3883 19.997 20.3399 20.0294 20.2991 20.0702C20.2583 20.111 20.226 20.1594 20.2039 20.2127C20.1818 20.266 20.1705 20.3231 20.1705 20.3808C20.1705 20.4384 20.1819 20.4955 20.2039 20.5488C20.226 20.6021 20.2584 20.6505 20.2992 20.6913C20.9487 21.3579 21.9963 21.5653 22.8514 21.2103V26.9311C22.7676 26.9348 21.8944 26.9252 21.8379 26.9311C21.2467 26.8487 20.7901 26.3574 20.7901 25.7439V25.0622C20.7901 24.9834 20.7689 24.906 20.7287 24.8381C20.6885 24.7703 20.6307 24.7146 20.5615 24.6768C18.7098 23.6646 17.5594 21.7265 17.5594 19.6186C17.5531 16.4165 20.1966 13.8452 23.3198 13.8582C27.4529 13.7919 30.3428 18.3269 28.5472 22.042C28.3189 22.5762 29.0832 22.9307 29.3438 22.4119C31.4147 18.1296 28.0827 12.9035 23.3199 12.9799ZM7.11242 3.58172C7.11242 3.49685 7.182 3.42774 7.26752 3.42774H8.85224C8.96873 3.42774 9.08044 3.38146 9.16281 3.29909C9.24518 3.21672 9.29146 3.10501 9.29146 2.98852V2.50727C9.29146 1.92046 9.77006 1.44308 10.3584 1.44308C10.9467 1.44308 11.4254 1.92046 11.4254 2.50727V2.98852C11.4254 3.10501 11.4717 3.21672 11.5541 3.29909C11.6364 3.38146 11.7481 3.42774 11.8646 3.42774H13.4995C13.5404 3.42764 13.5798 3.4438 13.6088 3.47267C13.6379 3.50154 13.6543 3.54076 13.6545 3.58172V5.39663C13.6543 5.43759 13.6379 5.4768 13.6088 5.50566C13.5798 5.53452 13.5404 5.55066 13.4995 5.55056H7.26752C7.182 5.55056 7.11242 5.4815 7.11242 5.39663V3.58172ZM0.830311 8.44149V4.58466C0.830358 4.54256 0.847103 4.5022 0.876872 4.47243C0.906642 4.44266 0.947005 4.42592 0.989105 4.42587H6.23399V5.39663C6.23399 5.96586 6.69759 6.42899 7.26747 6.42899H13.4993C14.0692 6.42899 14.5328 5.96592 14.5328 5.39663V4.42587H19.7777C19.8198 4.42592 19.8602 4.44266 19.8899 4.47243C19.9197 4.5022 19.9365 4.54256 19.9365 4.58466V8.44149H0.830311ZM24.2058 28.7538C24.1611 29.9277 22.4783 29.9269 22.4341 28.7538V27.868H24.2058V28.7538Z" fill="#00D992"/>
</svg>
