<svg width="474" height="87" viewBox="0 0 474 87" fill="none" xmlns="http://www.w3.org/2000/svg">
<g id="LogoRenato">
<g id="Logo">
<path id="Vector" d="M80.3663 34.8L75.342 43.5L70.3202 52.2L65.2983 60.9H65.2959L60.2741 69.6H50.228L45.2062 60.9L50.228 52.2L55.2523 43.5L60.2741 34.8024V34.8L55.2498 26.1L50.228 17.4L45.2062 8.70242V8.7L50.228 0.00241667V0H60.2741L65.2983 8.7L70.3202 17.4L75.342 26.1H75.3444L80.3663 34.8Z" fill="#00D992"/>
<path id="Vector_2" d="M30.1358 69.6L35.1601 78.3L30.1382 87H20.0897L15.0679 78.3V78.2976L10.0461 69.6L5.02183 60.9L0 52.2V52.1976L5.02183 43.5L10.0437 34.8L15.0679 26.1L20.0897 17.4H30.1358L35.1601 26.1L30.1382 34.8H30.1358V34.8024L25.114 43.5L20.0922 52.2L25.114 60.9L30.1358 69.6Z" fill="#00D992"/>
</g>
<g id="RENATO3X">
<path d="M148.596 53.3429V70H141.456V55.16L135.282 48.4214H117.506V70H110.366V17H141.084L148.298 24.3443V40.85L142.571 46.68L148.596 53.3429ZM117.506 42.2129H137.885L141.232 38.8814V26.54L137.885 23.2086H117.506V42.2129Z" fill="white"/>
<path d="M159.394 17H194.35V23.36H166.534V40.2443H192.193V46.5286H166.534V63.64H194.35V70H159.394V17Z" fill="white"/>
<path d="M203.264 17H209.958L235.766 58.0371H235.915V17H242.758V70H236.064L210.255 28.9629H210.106V70H203.264V17Z" fill="white"/>
<path d="M268.095 17H275.235L293.978 70H286.615L282.003 56.5229H261.401L256.79 70H249.427L268.095 17ZM280.144 50.39L271.739 25.6314H271.591L263.335 50.39H280.144Z" fill="white"/>
<path d="M305.957 23.2843H290.264V17H328.791V23.2843H313.097V70H305.957V23.2843Z" fill="white"/>
<path d="M334.422 61.52V25.48L342.752 17H367.296L375.626 25.48V61.52L367.296 70H342.752L334.422 61.52ZM363.875 63.64L368.486 58.9457V28.0543L363.875 23.36H346.173L341.562 28.0543V58.9457L346.173 63.64H363.875Z" fill="white"/>
<path d="M383.033 61.8229V53.4943H393.149V58.7186L395.603 61.2171H408.991L411.445 58.7186V50.1629L409.065 47.74H394.19V38.9571H409.065L411.445 36.5343V28.2814L408.991 25.7829H396.049L393.595 28.2814V33.5057H383.48V25.1771L391.512 17H413.528L421.56 25.1771V39.5629L417.767 43.3486L421.56 47.21V61.8229L413.528 70H391.066L383.033 61.8229Z" fill="#00D992"/>
<path d="M443.765 42.6671L426.361 17H437.74L449.492 34.4143L461.243 17H472.623L455.218 42.97L473.366 70H461.987L449.492 51.2986L436.996 70H425.617L443.765 42.6671Z" fill="#00D992"/>
</g>
</g>
</svg>
