<svg width="500" height="500" viewBox="0 0 500 500" fill="none" xmlns="http://www.w3.org/2000/svg">
<path d="M495 201L464.367 250L433.749 299L403.13 348H403.115L372.497 397H311.245L280.626 348L311.245 299L341.878 250L372.497 201.014V201L341.863 152L311.245 103L280.626 54.0136V54L311.245 5.01361V5H372.497L403.13 54L433.749 103L464.367 152H464.382L495 201Z" fill="#00D992"/>
<path d="M188.741 397L219.374 446L188.756 495H127.489L96.8708 446V445.986L66.2522 397L35.6189 348L5.00037 299V298.986L35.6189 250L66.2375 201L96.8708 152L127.489 103H188.741L219.374 152L188.756 201H188.741V201.014L158.123 250L127.504 299L158.123 348L188.741 397Z" fill="#00D992"/>
</svg>
