<svg width="402" height="289" viewBox="0 0 402 289" fill="none" xmlns="http://www.w3.org/2000/svg">
<g clip-path="url(#clip0_221_1796)">
<path d="M385.307 243.703C384.146 243.703 382.976 243.403 381.941 242.803L370.584 236.245C369.927 235.868 369.53 235.181 369.53 234.427C369.53 233.672 369.927 232.985 370.584 232.608L381.941 226.05C384.02 224.85 386.603 224.85 388.673 226.05L400.029 232.608C400.687 232.985 401.083 233.672 401.083 234.427C401.083 235.181 400.687 235.868 400.029 236.245L388.673 242.803C387.638 243.403 386.467 243.703 385.307 243.703ZM385.307 226.949C384.455 226.949 383.604 227.172 382.84 227.607L371.484 234.165C371.349 234.243 371.329 234.359 371.329 234.427C371.329 234.494 371.349 234.61 371.484 234.688L382.84 241.246C384.359 242.126 386.255 242.126 387.773 241.246L399.129 234.688C399.265 234.61 399.284 234.494 399.284 234.427C399.284 234.359 399.265 234.243 399.129 234.165L387.773 227.607C387.009 227.172 386.158 226.949 385.307 226.949Z" fill="#00D992"/>
<path d="M352.834 206.51C350.938 206.51 349.052 206.027 347.359 205.05L327.82 193.771C326.891 193.239 326.33 192.272 326.33 191.198C326.33 190.124 326.881 189.167 327.82 188.625L347.359 177.346C350.735 175.402 354.924 175.392 358.299 177.346L377.839 188.625C378.767 189.157 379.329 190.124 379.329 191.198C379.329 192.272 378.777 193.229 377.849 193.771L358.309 205.05C356.626 206.027 354.73 206.51 352.834 206.51ZM348.259 203.492C351.083 205.117 354.585 205.117 357.4 203.492L376.939 192.214C377.462 191.904 377.52 191.401 377.52 191.198C377.52 190.995 377.462 190.492 376.939 190.182L357.4 178.903C354.575 177.278 351.074 177.278 348.259 178.903L328.719 190.182C328.197 190.492 328.139 190.995 328.139 191.198C328.139 191.401 328.197 191.904 328.719 192.214L348.259 203.492Z" fill="#00D992"/>
<path d="M326.308 264.992C324.412 264.992 322.526 264.509 320.833 263.532L301.294 252.253C300.365 251.711 299.804 250.753 299.804 249.68C299.804 248.606 300.355 247.648 301.294 247.107L320.833 235.828C324.209 233.874 328.397 233.874 331.773 235.828L351.313 247.107C352.241 247.639 352.802 248.606 352.802 249.68C352.802 250.753 352.251 251.711 351.313 252.253L331.773 263.532C330.09 264.509 328.194 264.992 326.298 264.992H326.308ZM326.308 236.167C324.731 236.167 323.145 236.573 321.733 237.385L302.193 248.664C301.671 248.974 301.613 249.477 301.613 249.68C301.613 249.883 301.671 250.386 302.193 250.695L321.733 261.974C324.557 263.599 328.059 263.599 330.874 261.974L350.413 250.695C350.945 250.386 350.994 249.883 350.994 249.68C350.994 249.477 350.936 248.974 350.413 248.664L330.874 237.385C329.461 236.573 327.885 236.167 326.298 236.167H326.308Z" fill="#00D992"/>
<path d="M341.658 117.422L341.601 117.197L336.786 98.2509L331.976 79.3067L327.287 60.8501L340.572 47.9095L358.417 52.9416L363.108 71.4007L367.919 90.3441L372.728 109.288L372.852 109.775L372.856 109.776L377.42 127.748L363.775 141.037L349.777 154.678L336.137 167.968L336.133 167.967L335.774 168.316L322.134 181.607L304.288 176.575L299.723 158.602L313.364 145.312L327.366 131.672L341.364 118.037L341.53 117.875L341.658 117.422Z" stroke="#00D992" stroke-width="1.73743"/>
<path opacity="0.6" d="M201.288 273.477L61.5803 192.813C59.5393 191.633 59.8005 189.583 62.151 188.228L151.82 136.458C154.17 135.104 157.73 134.949 159.761 136.13L299.469 216.793C301.51 217.973 301.249 220.024 298.898 221.378L209.229 273.148C206.879 274.502 203.319 274.657 201.288 273.477Z" fill="black"/>
<path d="M204.48 288.035C202.845 288.035 201.278 287.696 200.088 287L40.6381 194.942C39.3323 194.187 38.6165 193.104 38.6165 191.885C38.6165 190.482 39.5934 189.119 41.2862 188.142L149.972 124.464C152.952 122.742 157.333 122.578 159.945 124.087L319.395 216.145C320.701 216.899 321.417 217.983 321.417 219.202C321.417 220.604 320.44 221.958 318.747 222.945L210.061 286.623C208.446 287.551 206.414 288.035 204.489 288.035H204.48ZM155.573 124.87C153.938 124.87 152.207 125.267 150.881 126.031L42.1955 189.709C41.0831 190.357 40.4253 191.169 40.4253 191.895C40.4253 192.62 41.0347 193.094 41.5474 193.384L200.997 285.442C203.029 286.623 206.772 286.448 209.161 285.065L317.847 221.388C318.96 220.74 319.618 219.927 319.618 219.202C319.618 218.476 319.008 218.002 318.496 217.712L159.046 125.654C158.136 125.132 156.888 124.87 155.573 124.87Z" fill="url(#paint0_linear_221_1796)"/>
<path d="M336.575 81.5641L197.419 1.21998C196.461 0.668617 195.465 0.552541 194.575 0.813712C194.575 0.813712 194.575 0.813712 194.565 0.813712L191.992 1.7133L192.901 1.92611C192.534 2.36139 192.244 2.89341 192.05 3.52216L160.584 105.698C159.8 108.233 160.942 111.309 163.137 112.576L302.293 192.92C302.632 193.113 302.971 193.249 303.319 193.336L302.971 194.09L305.427 193.229C306.433 192.823 307.265 191.924 307.662 190.627L339.128 88.4512C339.912 85.9169 338.77 82.8409 336.575 81.5737V81.5641Z" fill="url(#paint1_radial_221_1796)"/>
<path d="M297.301 196.731L297.35 196.789L159.896 117.432C157.875 116.261 154.344 116.406 152.003 117.76L63.195 169.037L60.2351 167.905L61.067 172.065C61.1734 172.684 61.6183 173.274 62.4019 173.728L201.123 253.821C203.144 254.991 206.675 254.846 209.016 253.492L298.046 202.09C299.149 201.451 299.778 200.668 299.932 199.894L300.784 195.86L297.292 196.75L297.301 196.731Z" fill="url(#paint2_radial_221_1796)"/>
<path d="M201.288 250.155L61.5803 169.492C59.5393 168.312 59.8005 166.261 62.151 164.907L151.82 113.137C154.17 111.782 157.73 111.628 159.761 112.808L299.469 193.471C301.51 194.651 301.249 196.702 298.898 198.056L209.229 249.826C206.879 251.18 203.319 251.335 201.288 250.155Z" fill="url(#paint3_radial_221_1796)"/>
<path d="M298.888 196.963L209.219 248.733C206.868 250.087 203.309 250.242 201.277 249.062L61.5699 168.398C60.8734 168.002 60.4672 167.489 60.3027 166.948C60.0319 167.886 60.4285 168.824 61.5699 169.482L201.277 250.145C203.318 251.325 206.868 251.17 209.219 249.816L298.888 198.046C300.435 197.147 301.054 195.957 300.726 194.912C300.513 195.638 299.913 196.373 298.888 196.963Z" fill="white"/>
<g opacity="0.4">
<path d="M128.218 156.404L123.497 153.677C123.12 153.454 123.168 153.077 123.604 152.825L129.175 149.614C129.611 149.363 130.278 149.334 130.655 149.556L135.376 152.284C135.753 152.506 135.705 152.883 135.269 153.135L129.698 156.346C129.262 156.598 128.595 156.627 128.218 156.404Z" fill="#06033E"/>
<path d="M135.502 160.602L130.781 157.875C130.404 157.652 130.452 157.275 130.888 157.023L136.459 153.812C136.894 153.561 137.562 153.532 137.939 153.754L142.66 156.482C143.037 156.704 142.988 157.081 142.553 157.333L136.982 160.544C136.546 160.796 135.879 160.825 135.502 160.602Z" fill="#06033E"/>
<path d="M142.785 164.81L138.064 162.082C137.687 161.86 137.735 161.483 138.171 161.231L143.742 158.02C144.178 157.768 144.845 157.739 145.222 157.962L149.943 160.69C150.32 160.912 150.272 161.289 149.836 161.541L144.265 164.752C143.829 165.004 143.162 165.033 142.785 164.81Z" fill="#06033E"/>
<path d="M152.855 161.338L148.134 158.61C147.757 158.387 147.805 158.01 148.241 157.759L152.913 155.06C153.348 154.808 154.015 154.779 154.393 155.002L159.113 157.73C159.49 157.952 159.442 158.329 159.007 158.581L154.335 161.28C153.899 161.531 153.232 161.56 152.855 161.338Z" fill="#06033E"/>
<path d="M160.138 165.545L155.418 162.818C155.041 162.595 155.089 162.218 155.524 161.966L160.197 159.268C160.632 159.016 161.299 158.987 161.677 159.21L166.397 161.937C166.774 162.16 166.726 162.537 166.291 162.789L161.618 165.487C161.183 165.739 160.516 165.768 160.138 165.545Z" fill="#06033E"/>
<path d="M167.423 169.753L162.702 167.025C162.325 166.803 162.373 166.425 162.809 166.174L167.481 163.475C167.916 163.224 168.583 163.195 168.961 163.417L173.681 166.145C174.058 166.367 174.01 166.745 173.575 166.996L168.903 169.695C168.467 169.946 167.8 169.975 167.423 169.753Z" fill="#06033E"/>
<path d="M174.706 173.951L169.985 171.224C169.608 171.001 169.656 170.624 170.092 170.372L174.764 167.674C175.199 167.422 175.866 167.393 176.244 167.616L180.964 170.343C181.341 170.566 181.293 170.943 180.858 171.195L176.186 173.893C175.75 174.145 175.083 174.174 174.706 173.951Z" fill="#06033E"/>
<path d="M181.99 178.159L177.269 175.431C176.892 175.209 176.941 174.832 177.376 174.58L182.048 171.881C182.483 171.63 183.151 171.601 183.528 171.823L188.248 174.551C188.626 174.774 188.577 175.151 188.142 175.402L183.47 178.101C183.035 178.353 182.367 178.382 181.99 178.159Z" fill="#06033E"/>
<path d="M189.274 182.366L184.553 179.639C184.176 179.416 184.224 179.039 184.66 178.787L189.332 176.089C189.767 175.837 190.435 175.808 190.812 176.031L195.532 178.758C195.909 178.981 195.861 179.358 195.426 179.61L190.754 182.308C190.318 182.56 189.651 182.589 189.274 182.366Z" fill="#06033E"/>
<path d="M196.558 186.574L191.838 183.847C191.46 183.624 191.509 183.247 191.944 182.995L196.616 180.297C197.051 180.045 197.719 180.016 198.096 180.239L202.816 182.966C203.194 183.189 203.145 183.566 202.71 183.818L198.038 186.516C197.603 186.768 196.935 186.797 196.558 186.574Z" fill="#06033E"/>
<path d="M203.841 190.772L199.121 188.045C198.743 187.822 198.792 187.445 199.227 187.193L203.899 184.495C204.334 184.243 205.002 184.214 205.379 184.437L210.1 187.164C210.477 187.387 210.428 187.764 209.993 188.016L205.321 190.714C204.886 190.966 204.218 190.995 203.841 190.772Z" fill="#06033E"/>
<path d="M211.125 194.98L206.405 192.252C206.027 192.03 206.076 191.653 206.511 191.401L211.183 188.702C211.618 188.451 212.286 188.422 212.663 188.644L217.384 191.372C217.761 191.595 217.712 191.972 217.277 192.223L212.605 194.922C212.17 195.174 211.502 195.203 211.125 194.98Z" fill="#06033E"/>
<path d="M218.409 199.188L213.689 196.46C213.311 196.238 213.36 195.86 213.795 195.609L218.467 192.91C218.902 192.659 219.57 192.63 219.947 192.852L224.667 195.58C225.045 195.802 224.996 196.18 224.561 196.431L219.889 199.13C219.454 199.381 218.786 199.41 218.409 199.188Z" fill="#06033E"/>
<path d="M163.592 159.345L158.872 156.617C158.494 156.395 158.543 156.017 158.978 155.766L163.65 153.067C164.085 152.816 164.753 152.787 165.13 153.009L169.851 155.737C170.228 155.959 170.179 156.337 169.744 156.588L165.072 159.287C164.637 159.538 163.969 159.567 163.592 159.345Z" fill="#06033E"/>
<path d="M156.192 155.079L151.472 152.351C151.094 152.129 151.143 151.752 151.578 151.5L156.25 148.801C156.685 148.55 157.353 148.521 157.73 148.743L162.45 151.471C162.828 151.693 162.779 152.071 162.344 152.322L157.672 155.021C157.237 155.273 156.569 155.302 156.192 155.079Z" fill="#06033E"/>
<path d="M148.793 150.804L138.636 144.942C138.259 144.72 138.307 144.342 138.742 144.091L143.414 141.392C143.85 141.141 144.517 141.112 144.894 141.334L155.051 147.196C155.428 147.418 155.38 147.796 154.945 148.047L150.272 150.746C149.837 150.997 149.17 151.026 148.793 150.804Z" fill="#06033E"/>
<path d="M153.968 145.609L145.726 140.85C145.349 140.628 145.397 140.251 145.833 139.999L150.505 137.3C150.94 137.049 151.607 137.02 151.985 137.242L160.226 142.001C160.603 142.224 160.555 142.601 160.12 142.853L155.448 145.551C155.012 145.803 154.345 145.832 153.968 145.609Z" fill="#06033E"/>
<path d="M170.875 163.553L166.155 160.825C165.778 160.603 165.826 160.225 166.261 159.974L170.933 157.275C171.369 157.024 172.036 156.995 172.413 157.217L177.134 159.945C177.511 160.167 177.463 160.545 177.027 160.796L172.355 163.495C171.92 163.746 171.253 163.775 170.875 163.553Z" fill="#06033E"/>
<path d="M178.159 167.761L173.439 165.033C173.062 164.81 173.11 164.433 173.545 164.182L178.217 161.483C178.653 161.231 179.32 161.202 179.697 161.425L184.418 164.153C184.795 164.375 184.747 164.752 184.311 165.004L179.639 167.703C179.204 167.954 178.537 167.983 178.159 167.761Z" fill="#06033E"/>
<path d="M185.443 171.968L180.723 169.24C180.346 169.018 180.394 168.64 180.829 168.389L185.501 165.69C185.937 165.439 186.604 165.41 186.981 165.632L191.702 168.36C192.079 168.582 192.031 168.96 191.595 169.211L186.923 171.91C186.488 172.161 185.82 172.19 185.443 171.968Z" fill="#06033E"/>
<path d="M192.727 176.166L188.007 173.439C187.63 173.216 187.678 172.839 188.113 172.587L192.785 169.889C193.221 169.637 193.888 169.608 194.265 169.831L198.986 172.558C199.363 172.781 199.315 173.158 198.879 173.41L194.207 176.108C193.772 176.36 193.105 176.389 192.727 176.166Z" fill="#06033E"/>
<path d="M200.011 180.374L195.29 177.646C194.913 177.423 194.961 177.046 195.397 176.795L200.069 174.096C200.504 173.844 201.171 173.815 201.549 174.038L206.269 176.766C206.646 176.988 206.598 177.365 206.163 177.617L201.491 180.316C201.055 180.567 200.388 180.596 200.011 180.374Z" fill="#06033E"/>
<path d="M207.295 184.582L202.574 181.854C202.197 181.631 202.245 181.254 202.68 181.003L207.353 178.304C207.788 178.052 208.455 178.023 208.833 178.246L213.553 180.974C213.93 181.196 213.882 181.573 213.447 181.825L208.774 184.524C208.339 184.775 207.672 184.804 207.295 184.582Z" fill="#06033E"/>
<path d="M214.579 188.79L209.858 186.062C209.481 185.839 209.529 185.462 209.965 185.211L214.637 182.512C215.072 182.26 215.739 182.231 216.117 182.454L220.837 185.181C221.214 185.404 221.166 185.781 220.731 186.033L216.059 188.731C215.623 188.983 214.956 189.012 214.579 188.79Z" fill="#06033E"/>
<path d="M221.862 192.988L217.141 190.26C216.764 190.037 216.812 189.66 217.248 189.408L221.92 186.71C222.355 186.458 223.022 186.429 223.4 186.652L228.12 189.379C228.497 189.602 228.449 189.979 228.014 190.231L223.342 192.929C222.906 193.181 222.239 193.21 221.862 192.988Z" fill="#06033E"/>
<path d="M229.146 197.195L224.425 194.467C224.048 194.245 224.097 193.868 224.532 193.616L229.204 190.917C229.639 190.666 230.307 190.637 230.684 190.859L235.404 193.587C235.782 193.81 235.733 194.187 235.298 194.438L230.626 197.137C230.191 197.389 229.523 197.418 229.146 197.195Z" fill="#06033E"/>
<path d="M242.098 204.673L231.806 198.734C231.429 198.511 231.477 198.134 231.912 197.882L236.584 195.184C237.02 194.932 237.687 194.903 238.064 195.126L248.356 201.065C248.734 201.287 248.685 201.665 248.25 201.916L243.578 204.615C243.143 204.866 242.475 204.895 242.098 204.673Z" fill="#06033E"/>
<path d="M256.279 196.489L247.592 191.479C247.215 191.256 247.264 190.879 247.699 190.627L252.371 187.929C252.806 187.677 253.474 187.648 253.851 187.871L262.537 192.881C262.914 193.104 262.866 193.481 262.431 193.733L257.759 196.431C257.323 196.683 256.656 196.712 256.279 196.489Z" fill="#06033E"/>
<path d="M183.625 162.73L178.904 160.003C178.527 159.78 178.576 159.403 179.011 159.151L183.683 156.453C184.118 156.201 184.786 156.172 185.163 156.395L189.883 159.122C190.261 159.345 190.212 159.722 189.777 159.974L185.105 162.672C184.67 162.924 184.002 162.953 183.625 162.73Z" fill="#06033E"/>
<path d="M176.167 158.416L171.447 155.689C171.069 155.466 171.118 155.089 171.553 154.837L176.225 152.139C176.66 151.887 177.328 151.858 177.705 152.081L182.426 154.808C182.803 155.031 182.754 155.408 182.319 155.66L177.647 158.358C177.212 158.61 176.544 158.639 176.167 158.416Z" fill="#06033E"/>
<path d="M168.699 154.112L163.978 151.384C163.601 151.162 163.649 150.784 164.085 150.533L168.757 147.834C169.192 147.582 169.86 147.553 170.237 147.776L174.957 150.504C175.335 150.726 175.286 151.103 174.851 151.355L170.179 154.054C169.744 154.305 169.076 154.334 168.699 154.112Z" fill="#06033E"/>
<path d="M161.232 149.798L156.511 147.07C156.134 146.847 156.182 146.47 156.617 146.219L161.29 143.52C161.725 143.268 162.392 143.239 162.77 143.462L167.49 146.19C167.867 146.412 167.819 146.789 167.384 147.041L162.712 149.74C162.276 149.991 161.609 150.02 161.232 149.798Z" fill="#06033E"/>
<path d="M190.908 166.938L186.188 164.211C185.81 163.988 185.859 163.611 186.294 163.359L190.966 160.661C191.401 160.409 192.069 160.38 192.446 160.603L197.166 163.33C197.544 163.553 197.495 163.93 197.06 164.182L192.388 166.88C191.953 167.132 191.285 167.161 190.908 166.938Z" fill="#06033E"/>
<path d="M198.192 171.146L193.472 168.418C193.094 168.196 193.143 167.819 193.578 167.567L198.25 164.868C198.685 164.617 199.353 164.588 199.73 164.81L204.45 167.538C204.828 167.761 204.779 168.138 204.344 168.389L199.672 171.088C199.237 171.34 198.569 171.369 198.192 171.146Z" fill="#06033E"/>
<path d="M205.486 175.344L200.765 172.616C200.388 172.394 200.436 172.017 200.872 171.765L205.544 169.066C205.979 168.815 206.646 168.786 207.024 169.008L211.744 171.736C212.121 171.959 212.073 172.336 211.638 172.587L206.966 175.286C206.53 175.538 205.863 175.567 205.486 175.344Z" fill="#06033E"/>
<path d="M212.77 179.552L208.049 176.824C207.672 176.602 207.72 176.224 208.156 175.973L212.828 173.274C213.263 173.023 213.93 172.994 214.308 173.216L219.028 175.944C219.405 176.166 219.357 176.544 218.922 176.795L214.25 179.494C213.814 179.745 213.147 179.774 212.77 179.552Z" fill="#06033E"/>
<path d="M220.054 183.759L215.333 181.032C214.956 180.809 215.004 180.432 215.44 180.18L220.112 177.482C220.547 177.23 221.215 177.201 221.592 177.424L226.312 180.151C226.689 180.374 226.641 180.751 226.206 181.003L221.534 183.701C221.098 183.953 220.431 183.982 220.054 183.759Z" fill="#06033E"/>
<path d="M227.337 187.967L222.616 185.239C222.239 185.017 222.287 184.64 222.723 184.388L227.395 181.689C227.83 181.438 228.497 181.409 228.875 181.631L233.595 184.359C233.972 184.582 233.924 184.959 233.489 185.21L228.817 187.909C228.381 188.161 227.714 188.19 227.337 187.967Z" fill="#06033E"/>
<path d="M234.621 192.166L229.9 189.438C229.523 189.215 229.572 188.838 230.007 188.587L234.679 185.888C235.114 185.636 235.782 185.607 236.159 185.83L240.879 188.558C241.257 188.78 241.208 189.157 240.773 189.409L236.101 192.108C235.666 192.359 234.998 192.388 234.621 192.166Z" fill="#06033E"/>
<path d="M241.905 196.373L237.184 193.645C236.807 193.423 236.856 193.045 237.291 192.794L241.963 190.095C242.398 189.844 243.066 189.815 243.443 190.037L248.163 192.765C248.541 192.987 248.492 193.365 248.057 193.616L243.385 196.315C242.95 196.566 242.282 196.595 241.905 196.373Z" fill="#06033E"/>
<path d="M249.188 200.581L244.468 197.853C244.09 197.631 244.139 197.254 244.574 197.002L249.246 194.303C249.681 194.052 250.349 194.023 250.726 194.245L255.447 196.973C255.824 197.195 255.775 197.573 255.34 197.824L250.668 200.523C250.233 200.774 249.565 200.803 249.188 200.581Z" fill="#06033E"/>
<path d="M179.795 152.332L175.074 149.604C174.697 149.382 174.745 149.004 175.18 148.753L179.853 146.054C180.288 145.803 180.955 145.774 181.333 145.996L186.053 148.724C186.43 148.946 186.382 149.324 185.947 149.575L181.274 152.274C180.839 152.525 180.172 152.554 179.795 152.332Z" fill="#06033E"/>
<path d="M172.549 148.144L167.829 145.416C167.451 145.193 167.5 144.816 167.935 144.564L172.607 141.866C173.042 141.614 173.71 141.585 174.087 141.808L178.808 144.535C179.185 144.758 179.136 145.135 178.701 145.387L174.029 148.085C173.594 148.337 172.926 148.366 172.549 148.144Z" fill="#06033E"/>
<path d="M165.294 143.955L160.574 141.227C160.197 141.005 160.245 140.628 160.68 140.376L165.352 137.677C165.788 137.426 166.455 137.397 166.832 137.619L171.553 140.347C171.93 140.569 171.882 140.947 171.446 141.198L166.774 143.897C166.339 144.148 165.672 144.178 165.294 143.955Z" fill="#06033E"/>
<path d="M158.049 139.777L153.328 137.049C152.951 136.826 153 136.449 153.435 136.198L158.107 133.499C158.542 133.247 159.21 133.218 159.587 133.441L164.307 136.169C164.685 136.391 164.636 136.768 164.201 137.02L159.529 139.719C159.094 139.97 158.426 139.999 158.049 139.777Z" fill="#06033E"/>
<path d="M165.507 135.472L160.786 132.744C160.409 132.522 160.458 132.144 160.893 131.893L162.441 131.003C162.876 130.751 163.543 130.722 163.921 130.945L168.641 133.673C169.018 133.895 168.97 134.272 168.535 134.524L166.987 135.414C166.552 135.665 165.884 135.694 165.507 135.472Z" fill="#06033E"/>
<path d="M174.958 140.937L170.237 138.209C169.86 137.987 169.909 137.609 170.344 137.358L171.892 136.468C172.327 136.217 172.994 136.188 173.371 136.41L178.092 139.138C178.469 139.36 178.421 139.738 177.986 139.989L176.438 140.879C176.003 141.13 175.335 141.159 174.958 140.937Z" fill="#06033E"/>
<path d="M182.183 145.097L177.463 142.369C177.086 142.146 177.134 141.769 177.569 141.518L179.117 140.628C179.552 140.376 180.22 140.347 180.597 140.57L185.317 143.297C185.695 143.52 185.646 143.897 185.211 144.149L183.663 145.039C183.228 145.29 182.561 145.319 182.183 145.097Z" fill="#06033E"/>
<path d="M189.399 149.266L184.679 146.538C184.302 146.316 184.35 145.938 184.785 145.687L186.333 144.797C186.768 144.545 187.436 144.516 187.813 144.739L192.534 147.467C192.911 147.689 192.862 148.066 192.427 148.318L190.879 149.208C190.444 149.459 189.777 149.488 189.399 149.266Z" fill="#06033E"/>
<path d="M196.616 153.435L191.895 150.707C191.518 150.484 191.566 150.107 192.002 149.855L193.549 148.966C193.985 148.714 194.652 148.685 195.029 148.908L199.75 151.635C200.127 151.858 200.079 152.235 199.643 152.487L198.096 153.376C197.66 153.628 196.993 153.657 196.616 153.435Z" fill="#06033E"/>
<path d="M236.913 176.698L232.193 173.971C231.816 173.748 231.864 173.371 232.299 173.119L233.847 172.23C234.282 171.978 234.95 171.949 235.327 172.171L240.047 174.899C240.425 175.122 240.376 175.499 239.941 175.75L238.393 176.64C237.958 176.892 237.291 176.921 236.913 176.698Z" fill="#06033E"/>
<path d="M244.129 180.868L239.409 178.14C239.032 177.917 239.08 177.54 239.515 177.289L241.063 176.399C241.498 176.147 242.166 176.118 242.543 176.341L247.264 179.068C247.641 179.291 247.592 179.668 247.157 179.92L245.609 180.81C245.174 181.061 244.507 181.09 244.129 180.868Z" fill="#06033E"/>
<path d="M251.346 185.037L246.625 182.309C246.248 182.086 246.296 181.709 246.732 181.458L248.279 180.568C248.714 180.316 249.382 180.287 249.759 180.51L254.48 183.237C254.857 183.46 254.808 183.837 254.373 184.089L252.826 184.979C252.39 185.23 251.723 185.259 251.346 185.037Z" fill="#06033E"/>
<path d="M258.562 189.196L253.841 186.468C253.464 186.245 253.512 185.868 253.948 185.617L255.495 184.727C255.931 184.475 256.598 184.446 256.975 184.669L261.696 187.397C262.073 187.619 262.025 187.996 261.589 188.248L260.042 189.138C259.606 189.389 258.939 189.418 258.562 189.196Z" fill="#06033E"/>
<path d="M187.077 156.53L182.357 153.802C181.98 153.58 182.028 153.202 182.463 152.951L187.136 150.252C187.571 150.001 188.238 149.972 188.615 150.194L193.336 152.922C193.713 153.144 193.665 153.522 193.23 153.773L188.557 156.472C188.122 156.723 187.455 156.752 187.077 156.53Z" fill="#06033E"/>
<path d="M194.362 160.738L189.641 158.01C189.264 157.787 189.312 157.41 189.748 157.159L194.42 154.46C194.855 154.208 195.522 154.179 195.9 154.402L200.62 157.13C200.997 157.352 200.949 157.729 200.514 157.981L195.842 160.68C195.406 160.931 194.739 160.96 194.362 160.738Z" fill="#06033E"/>
<path d="M201.646 164.946L196.925 162.218C196.548 161.995 196.596 161.618 197.032 161.367L201.704 158.668C202.139 158.416 202.806 158.387 203.184 158.61L207.904 161.338C208.281 161.56 208.233 161.937 207.798 162.189L203.126 164.888C202.69 165.139 202.023 165.168 201.646 164.946Z" fill="#06033E"/>
<path d="M208.93 169.154L204.209 166.426C203.832 166.203 203.88 165.826 204.316 165.575L208.988 162.876C209.423 162.624 210.091 162.595 210.468 162.818L215.188 165.545C215.565 165.768 215.517 166.145 215.082 166.397L210.41 169.095C209.974 169.347 209.307 169.376 208.93 169.154Z" fill="#06033E"/>
<path d="M216.213 173.352L211.492 170.624C211.115 170.401 211.163 170.024 211.599 169.772L216.271 167.074C216.706 166.822 217.373 166.793 217.751 167.016L222.471 169.743C222.848 169.966 222.8 170.343 222.365 170.595L217.693 173.293C217.257 173.545 216.59 173.574 216.213 173.352Z" fill="#06033E"/>
<path d="M223.497 177.559L218.776 174.831C218.399 174.609 218.448 174.232 218.883 173.98L223.555 171.281C223.99 171.03 224.658 171.001 225.035 171.223L229.755 173.951C230.133 174.174 230.084 174.551 229.649 174.802L224.977 177.501C224.542 177.753 223.874 177.782 223.497 177.559Z" fill="#06033E"/>
<path d="M230.781 181.767L226.06 179.039C225.683 178.817 225.732 178.44 226.167 178.188L230.839 175.489C231.274 175.238 231.942 175.209 232.319 175.431L237.039 178.159C237.417 178.381 237.368 178.759 236.933 179.01L232.261 181.709C231.826 181.961 231.158 181.99 230.781 181.767Z" fill="#06033E"/>
<path d="M238.064 185.975L233.344 183.247C232.966 183.024 233.015 182.647 233.45 182.396L238.122 179.697C238.557 179.445 239.225 179.416 239.602 179.639L244.322 182.367C244.7 182.589 244.651 182.966 244.216 183.218L239.544 185.917C239.109 186.168 238.441 186.197 238.064 185.975Z" fill="#06033E"/>
<path d="M245.348 190.182L240.628 187.455C240.25 187.232 240.299 186.855 240.734 186.603L245.406 183.905C245.841 183.653 246.509 183.624 246.886 183.847L251.606 186.574C251.984 186.797 251.935 187.174 251.5 187.426L246.828 190.124C246.393 190.376 245.725 190.405 245.348 190.182Z" fill="#06033E"/>
<path d="M145.436 157.053L131.546 149.034C131.168 148.811 131.217 148.434 131.652 148.182L136.324 145.484C136.759 145.232 137.427 145.203 137.804 145.426L151.694 153.445C152.072 153.667 152.023 154.044 151.588 154.296L146.916 156.995C146.481 157.246 145.813 157.275 145.436 157.053Z" fill="#06033E"/>
<path d="M234.921 208.716L221.03 200.697C220.653 200.474 220.701 200.097 221.137 199.846L225.809 197.147C226.244 196.895 226.912 196.866 227.289 197.089L241.179 205.108C241.557 205.33 241.508 205.708 241.073 205.959L236.401 208.658C235.966 208.909 235.298 208.938 234.921 208.716Z" fill="#06033E"/>
<path d="M205.786 201.19L201.066 198.463C200.688 198.24 200.737 197.863 201.172 197.611L206.744 194.4C207.179 194.148 207.846 194.119 208.224 194.342L212.944 197.07C213.321 197.292 213.273 197.669 212.838 197.921L207.266 201.132C206.831 201.384 206.163 201.413 205.786 201.19Z" fill="#06033E"/>
<path d="M152.893 170.653L145.348 166.3C144.971 166.077 145.019 165.7 145.455 165.448L151.026 162.237C151.462 161.986 152.129 161.957 152.506 162.179L160.051 166.532C160.428 166.754 160.38 167.132 159.945 167.383L154.373 170.595C153.938 170.846 153.27 170.875 152.893 170.653Z" fill="#06033E"/>
<path d="M198.772 197.137L191.227 192.784C190.85 192.562 190.898 192.185 191.334 191.933L196.905 188.722C197.341 188.47 198.008 188.441 198.385 188.664L205.93 193.017C206.307 193.239 206.259 193.616 205.824 193.868L200.252 197.079C199.817 197.331 199.149 197.36 198.772 197.137Z" fill="#06033E"/>
<path d="M163.399 176.718L155.854 172.365C155.476 172.142 155.525 171.765 155.96 171.514L161.532 168.302C161.967 168.051 162.634 168.022 163.012 168.244L170.557 172.597C170.934 172.82 170.885 173.197 170.45 173.448L164.879 176.66C164.443 176.911 163.776 176.94 163.399 176.718Z" fill="#06033E"/>
<path d="M163.059 168.263L195.851 187.203C196.257 187.435 196.257 187.822 195.851 188.054L190.173 191.334C189.767 191.566 189.109 191.566 188.703 191.334L155.911 172.403L163.059 168.273V168.263Z" fill="#06033E"/>
<path d="M226.147 208.813L231.399 211.85C231.709 212.034 231.67 212.343 231.312 212.547L229.039 213.862C228.681 214.065 228.14 214.094 227.83 213.91L222.578 210.873C222.268 210.689 222.307 210.38 222.665 210.177L224.938 208.861C225.296 208.658 225.837 208.629 226.147 208.813Z" fill="#06033E"/>
<path d="M218.805 204.576L224.058 207.613C224.367 207.797 224.329 208.107 223.971 208.31L221.698 209.625C221.34 209.828 220.798 209.857 220.489 209.674L215.236 206.636C214.927 206.453 214.965 206.143 215.323 205.94L217.596 204.624C217.954 204.421 218.496 204.392 218.805 204.576Z" fill="#06033E"/>
<path d="M211.521 200.368L216.774 203.406C217.083 203.589 217.045 203.899 216.687 204.102L214.413 205.418C214.056 205.621 213.514 205.65 213.204 205.466L207.952 202.429C207.642 202.245 207.681 201.935 208.039 201.732L210.312 200.417C210.67 200.213 211.212 200.184 211.521 200.368Z" fill="#06033E"/>
<path d="M222.83 202.255L228.082 205.292C228.392 205.476 228.353 205.785 227.995 205.988L225.722 207.304C225.364 207.507 224.822 207.536 224.513 207.352L219.26 204.315C218.951 204.131 218.989 203.822 219.347 203.619L221.62 202.303C221.978 202.1 222.52 202.071 222.83 202.255Z" fill="#06033E"/>
</g>
<path d="M128.218 156.404L123.497 153.677C123.12 153.454 123.168 153.077 123.604 152.825L129.175 149.614C129.611 149.363 130.278 149.334 130.655 149.556L135.376 152.284C135.753 152.506 135.705 152.883 135.269 153.135L129.698 156.346C129.262 156.598 128.595 156.627 128.218 156.404Z" fill="white"/>
<path d="M135.502 160.602L130.781 157.875C130.404 157.652 130.452 157.275 130.888 157.023L136.459 153.812C136.894 153.561 137.562 153.532 137.939 153.754L142.66 156.482C143.037 156.704 142.988 157.081 142.553 157.333L136.982 160.544C136.546 160.796 135.879 160.825 135.502 160.602Z" fill="white"/>
<path d="M142.785 164.81L138.064 162.082C137.687 161.86 137.735 161.483 138.171 161.231L143.742 158.02C144.178 157.768 144.845 157.739 145.222 157.962L149.943 160.69C150.32 160.912 150.272 161.289 149.836 161.541L144.265 164.752C143.829 165.004 143.162 165.033 142.785 164.81Z" fill="white"/>
<path d="M152.855 161.338L148.134 158.61C147.757 158.387 147.805 158.01 148.241 157.759L152.913 155.06C153.348 154.808 154.015 154.779 154.393 155.002L159.113 157.73C159.49 157.952 159.442 158.329 159.007 158.581L154.335 161.28C153.899 161.531 153.232 161.56 152.855 161.338Z" fill="white"/>
<path d="M160.138 165.545L155.418 162.818C155.041 162.595 155.089 162.218 155.524 161.966L160.197 159.268C160.632 159.016 161.299 158.987 161.677 159.21L166.397 161.937C166.774 162.16 166.726 162.537 166.291 162.789L161.618 165.487C161.183 165.739 160.516 165.768 160.138 165.545Z" fill="white"/>
<path d="M167.423 169.753L162.702 167.025C162.325 166.803 162.373 166.425 162.809 166.174L167.481 163.475C167.916 163.224 168.583 163.195 168.961 163.417L173.681 166.145C174.058 166.367 174.01 166.745 173.575 166.996L168.903 169.695C168.467 169.946 167.8 169.975 167.423 169.753Z" fill="white"/>
<path d="M174.706 173.951L169.985 171.224C169.608 171.001 169.656 170.624 170.092 170.372L174.764 167.674C175.199 167.422 175.866 167.393 176.244 167.616L180.964 170.343C181.341 170.566 181.293 170.943 180.858 171.195L176.186 173.893C175.75 174.145 175.083 174.174 174.706 173.951Z" fill="white"/>
<path d="M181.99 178.159L177.269 175.431C176.892 175.209 176.941 174.832 177.376 174.58L182.048 171.881C182.483 171.63 183.151 171.601 183.528 171.823L188.248 174.551C188.626 174.774 188.577 175.151 188.142 175.402L183.47 178.101C183.035 178.353 182.367 178.382 181.99 178.159Z" fill="white"/>
<path d="M189.274 182.366L184.553 179.639C184.176 179.416 184.224 179.039 184.66 178.787L189.332 176.089C189.767 175.837 190.435 175.808 190.812 176.031L195.532 178.758C195.909 178.981 195.861 179.358 195.426 179.61L190.754 182.308C190.318 182.56 189.651 182.589 189.274 182.366Z" fill="white"/>
<path d="M196.558 186.574L191.838 183.847C191.46 183.624 191.509 183.247 191.944 182.995L196.616 180.297C197.051 180.045 197.719 180.016 198.096 180.239L202.816 182.966C203.194 183.189 203.145 183.566 202.71 183.818L198.038 186.516C197.603 186.768 196.935 186.797 196.558 186.574Z" fill="white"/>
<path d="M203.841 190.772L199.121 188.045C198.743 187.822 198.792 187.445 199.227 187.193L203.899 184.495C204.334 184.243 205.002 184.214 205.379 184.437L210.1 187.164C210.477 187.387 210.428 187.764 209.993 188.016L205.321 190.714C204.886 190.966 204.218 190.995 203.841 190.772Z" fill="white"/>
<path d="M211.125 194.98L206.405 192.252C206.027 192.03 206.076 191.653 206.511 191.401L211.183 188.702C211.618 188.451 212.286 188.422 212.663 188.644L217.384 191.372C217.761 191.595 217.712 191.972 217.277 192.223L212.605 194.922C212.17 195.174 211.502 195.203 211.125 194.98Z" fill="white"/>
<path d="M218.409 199.188L213.689 196.46C213.311 196.238 213.36 195.86 213.795 195.609L218.467 192.91C218.902 192.659 219.57 192.63 219.947 192.852L224.667 195.58C225.045 195.802 224.996 196.18 224.561 196.431L219.889 199.13C219.454 199.381 218.786 199.41 218.409 199.188Z" fill="white"/>
<path d="M163.592 159.345L158.872 156.617C158.494 156.395 158.543 156.017 158.978 155.766L163.65 153.067C164.085 152.816 164.753 152.787 165.13 153.009L169.851 155.737C170.228 155.959 170.179 156.337 169.744 156.588L165.072 159.287C164.637 159.538 163.969 159.567 163.592 159.345Z" fill="white"/>
<path d="M156.192 155.079L151.472 152.351C151.094 152.129 151.143 151.752 151.578 151.5L156.25 148.801C156.685 148.55 157.353 148.521 157.73 148.743L162.45 151.471C162.828 151.693 162.779 152.071 162.344 152.322L157.672 155.021C157.237 155.273 156.569 155.302 156.192 155.079Z" fill="white"/>
<path d="M148.793 150.804L138.636 144.942C138.259 144.72 138.307 144.342 138.742 144.091L143.414 141.392C143.85 141.141 144.517 141.112 144.894 141.334L155.051 147.196C155.428 147.418 155.38 147.796 154.945 148.047L150.272 150.746C149.837 150.997 149.17 151.026 148.793 150.804Z" fill="white"/>
<path d="M153.968 145.609L145.726 140.85C145.349 140.628 145.397 140.251 145.833 139.999L150.505 137.3C150.94 137.049 151.607 137.02 151.985 137.242L160.226 142.001C160.603 142.224 160.555 142.601 160.12 142.853L155.448 145.551C155.012 145.803 154.345 145.832 153.968 145.609Z" fill="white"/>
<path d="M170.875 163.553L166.155 160.825C165.778 160.603 165.826 160.225 166.261 159.974L170.933 157.275C171.369 157.024 172.036 156.995 172.413 157.217L177.134 159.945C177.511 160.167 177.463 160.545 177.027 160.796L172.355 163.495C171.92 163.746 171.253 163.775 170.875 163.553Z" fill="white"/>
<path d="M178.159 167.761L173.439 165.033C173.062 164.81 173.11 164.433 173.545 164.182L178.217 161.483C178.653 161.231 179.32 161.202 179.697 161.425L184.418 164.153C184.795 164.375 184.747 164.752 184.311 165.004L179.639 167.703C179.204 167.954 178.537 167.983 178.159 167.761Z" fill="white"/>
<path d="M185.443 171.968L180.723 169.24C180.346 169.018 180.394 168.64 180.829 168.389L185.501 165.69C185.937 165.439 186.604 165.41 186.981 165.632L191.702 168.36C192.079 168.582 192.031 168.96 191.595 169.211L186.923 171.91C186.488 172.161 185.82 172.19 185.443 171.968Z" fill="white"/>
<path d="M192.727 176.166L188.007 173.439C187.63 173.216 187.678 172.839 188.113 172.587L192.785 169.889C193.221 169.637 193.888 169.608 194.265 169.831L198.986 172.558C199.363 172.781 199.315 173.158 198.879 173.41L194.207 176.108C193.772 176.36 193.105 176.389 192.727 176.166Z" fill="white"/>
<path d="M200.011 180.374L195.29 177.646C194.913 177.423 194.961 177.046 195.397 176.795L200.069 174.096C200.504 173.844 201.171 173.815 201.549 174.038L206.269 176.766C206.646 176.988 206.598 177.365 206.163 177.617L201.491 180.316C201.055 180.567 200.388 180.596 200.011 180.374Z" fill="white"/>
<path d="M207.295 184.582L202.574 181.854C202.197 181.631 202.245 181.254 202.68 181.003L207.353 178.304C207.788 178.052 208.455 178.023 208.833 178.246L213.553 180.974C213.93 181.196 213.882 181.573 213.447 181.825L208.774 184.524C208.339 184.775 207.672 184.804 207.295 184.582Z" fill="white"/>
<path d="M214.579 188.79L209.858 186.062C209.481 185.839 209.529 185.462 209.965 185.211L214.637 182.512C215.072 182.26 215.739 182.231 216.117 182.454L220.837 185.181C221.214 185.404 221.166 185.781 220.731 186.033L216.059 188.731C215.623 188.983 214.956 189.012 214.579 188.79Z" fill="white"/>
<path d="M221.862 192.988L217.141 190.26C216.764 190.037 216.812 189.66 217.248 189.408L221.92 186.71C222.355 186.458 223.022 186.429 223.4 186.652L228.12 189.379C228.497 189.602 228.449 189.979 228.014 190.231L223.342 192.929C222.906 193.181 222.239 193.21 221.862 192.988Z" fill="white"/>
<path d="M229.146 197.195L224.425 194.467C224.048 194.245 224.097 193.868 224.532 193.616L229.204 190.917C229.639 190.666 230.307 190.637 230.684 190.859L235.404 193.587C235.782 193.81 235.733 194.187 235.298 194.438L230.626 197.137C230.191 197.389 229.523 197.418 229.146 197.195Z" fill="white"/>
<path d="M242.098 204.673L231.806 198.734C231.429 198.511 231.477 198.134 231.912 197.882L236.584 195.184C237.02 194.932 237.687 194.903 238.064 195.126L248.356 201.065C248.734 201.287 248.685 201.665 248.25 201.916L243.578 204.615C243.143 204.866 242.475 204.895 242.098 204.673Z" fill="white"/>
<path d="M256.279 196.489L247.592 191.479C247.215 191.256 247.264 190.879 247.699 190.627L252.371 187.929C252.806 187.677 253.474 187.648 253.851 187.871L262.537 192.881C262.914 193.104 262.866 193.481 262.431 193.733L257.759 196.431C257.323 196.683 256.656 196.712 256.279 196.489Z" fill="white"/>
<path d="M183.625 162.73L178.904 160.003C178.527 159.78 178.576 159.403 179.011 159.151L183.683 156.453C184.118 156.201 184.786 156.172 185.163 156.395L189.883 159.122C190.261 159.345 190.212 159.722 189.777 159.974L185.105 162.672C184.67 162.924 184.002 162.953 183.625 162.73Z" fill="white"/>
<path d="M176.167 158.416L171.447 155.689C171.069 155.466 171.118 155.089 171.553 154.837L176.225 152.139C176.66 151.887 177.328 151.858 177.705 152.081L182.426 154.808C182.803 155.031 182.754 155.408 182.319 155.66L177.647 158.358C177.212 158.61 176.544 158.639 176.167 158.416Z" fill="white"/>
<path d="M168.699 154.112L163.978 151.384C163.601 151.162 163.649 150.784 164.085 150.533L168.757 147.834C169.192 147.582 169.86 147.553 170.237 147.776L174.957 150.504C175.335 150.726 175.286 151.103 174.851 151.355L170.179 154.054C169.744 154.305 169.076 154.334 168.699 154.112Z" fill="white"/>
<path d="M161.232 149.798L156.511 147.07C156.134 146.847 156.182 146.47 156.617 146.219L161.29 143.52C161.725 143.268 162.392 143.239 162.77 143.462L167.49 146.19C167.867 146.412 167.819 146.789 167.384 147.041L162.712 149.74C162.276 149.991 161.609 150.02 161.232 149.798Z" fill="white"/>
<path d="M190.908 166.938L186.188 164.211C185.81 163.988 185.859 163.611 186.294 163.359L190.966 160.661C191.401 160.409 192.069 160.38 192.446 160.603L197.166 163.33C197.544 163.553 197.495 163.93 197.06 164.182L192.388 166.88C191.953 167.132 191.285 167.161 190.908 166.938Z" fill="white"/>
<path d="M198.192 171.146L193.472 168.418C193.094 168.196 193.143 167.819 193.578 167.567L198.25 164.868C198.685 164.617 199.353 164.588 199.73 164.81L204.45 167.538C204.828 167.761 204.779 168.138 204.344 168.389L199.672 171.088C199.237 171.34 198.569 171.369 198.192 171.146Z" fill="white"/>
<path d="M205.486 175.344L200.765 172.616C200.388 172.394 200.436 172.017 200.872 171.765L205.544 169.066C205.979 168.815 206.646 168.786 207.024 169.008L211.744 171.736C212.121 171.959 212.073 172.336 211.638 172.587L206.966 175.286C206.53 175.538 205.863 175.567 205.486 175.344Z" fill="white"/>
<path d="M212.77 179.552L208.049 176.824C207.672 176.602 207.72 176.224 208.156 175.973L212.828 173.274C213.263 173.023 213.93 172.994 214.308 173.216L219.028 175.944C219.405 176.166 219.357 176.544 218.922 176.795L214.25 179.494C213.814 179.745 213.147 179.774 212.77 179.552Z" fill="white"/>
<path d="M220.054 183.759L215.333 181.032C214.956 180.809 215.004 180.432 215.44 180.18L220.112 177.482C220.547 177.23 221.215 177.201 221.592 177.424L226.312 180.151C226.689 180.374 226.641 180.751 226.206 181.003L221.534 183.701C221.098 183.953 220.431 183.982 220.054 183.759Z" fill="white"/>
<path d="M227.337 187.967L222.616 185.239C222.239 185.017 222.287 184.64 222.723 184.388L227.395 181.689C227.83 181.438 228.497 181.409 228.875 181.631L233.595 184.359C233.972 184.582 233.924 184.959 233.489 185.21L228.817 187.909C228.381 188.161 227.714 188.19 227.337 187.967Z" fill="white"/>
<path d="M234.621 192.166L229.9 189.438C229.523 189.215 229.572 188.838 230.007 188.587L234.679 185.888C235.114 185.636 235.782 185.607 236.159 185.83L240.879 188.558C241.257 188.78 241.208 189.157 240.773 189.409L236.101 192.108C235.666 192.359 234.998 192.388 234.621 192.166Z" fill="white"/>
<path d="M241.905 196.373L237.184 193.645C236.807 193.423 236.856 193.045 237.291 192.794L241.963 190.095C242.398 189.844 243.066 189.815 243.443 190.037L248.163 192.765C248.541 192.987 248.492 193.365 248.057 193.616L243.385 196.315C242.95 196.566 242.282 196.595 241.905 196.373Z" fill="white"/>
<path d="M249.188 200.581L244.468 197.853C244.09 197.631 244.139 197.254 244.574 197.002L249.246 194.303C249.681 194.052 250.349 194.023 250.726 194.245L255.447 196.973C255.824 197.195 255.775 197.573 255.34 197.824L250.668 200.523C250.233 200.774 249.565 200.803 249.188 200.581Z" fill="white"/>
<path d="M179.795 152.332L175.074 149.604C174.697 149.382 174.745 149.004 175.18 148.753L179.853 146.054C180.288 145.803 180.955 145.774 181.333 145.996L186.053 148.724C186.43 148.946 186.382 149.324 185.947 149.575L181.274 152.274C180.839 152.525 180.172 152.554 179.795 152.332Z" fill="white"/>
<path d="M172.549 148.144L167.829 145.416C167.451 145.193 167.5 144.816 167.935 144.564L172.607 141.866C173.042 141.614 173.71 141.585 174.087 141.808L178.808 144.535C179.185 144.758 179.136 145.135 178.701 145.387L174.029 148.085C173.594 148.337 172.926 148.366 172.549 148.144Z" fill="white"/>
<path d="M165.294 143.955L160.574 141.227C160.197 141.005 160.245 140.628 160.68 140.376L165.352 137.677C165.788 137.426 166.455 137.397 166.832 137.619L171.553 140.347C171.93 140.569 171.882 140.947 171.446 141.198L166.774 143.897C166.339 144.148 165.672 144.178 165.294 143.955Z" fill="white"/>
<path d="M158.049 139.777L153.328 137.049C152.951 136.826 153 136.449 153.435 136.198L158.107 133.499C158.542 133.247 159.21 133.218 159.587 133.441L164.307 136.169C164.685 136.391 164.636 136.768 164.201 137.02L159.529 139.719C159.094 139.97 158.426 139.999 158.049 139.777Z" fill="white"/>
<path d="M165.507 135.472L160.786 132.744C160.409 132.522 160.458 132.144 160.893 131.893L162.441 131.003C162.876 130.751 163.543 130.722 163.921 130.945L168.641 133.673C169.018 133.895 168.97 134.272 168.535 134.524L166.987 135.414C166.552 135.665 165.884 135.694 165.507 135.472Z" fill="white"/>
<path d="M174.958 140.937L170.237 138.209C169.86 137.987 169.909 137.609 170.344 137.358L171.892 136.468C172.327 136.217 172.994 136.188 173.371 136.41L178.092 139.138C178.469 139.36 178.421 139.738 177.986 139.989L176.438 140.879C176.003 141.13 175.335 141.159 174.958 140.937Z" fill="white"/>
<path d="M182.183 145.097L177.463 142.369C177.086 142.146 177.134 141.769 177.569 141.518L179.117 140.628C179.552 140.376 180.22 140.347 180.597 140.57L185.317 143.297C185.695 143.52 185.646 143.897 185.211 144.149L183.663 145.039C183.228 145.29 182.561 145.319 182.183 145.097Z" fill="white"/>
<path d="M189.399 149.266L184.679 146.538C184.302 146.316 184.35 145.938 184.785 145.687L186.333 144.797C186.768 144.545 187.436 144.516 187.813 144.739L192.534 147.467C192.911 147.689 192.862 148.066 192.427 148.318L190.879 149.208C190.444 149.459 189.777 149.488 189.399 149.266Z" fill="white"/>
<path d="M196.616 153.435L191.895 150.707C191.518 150.484 191.566 150.107 192.002 149.855L193.549 148.966C193.985 148.714 194.652 148.685 195.029 148.908L199.75 151.635C200.127 151.858 200.079 152.235 199.643 152.487L198.096 153.376C197.66 153.628 196.993 153.657 196.616 153.435Z" fill="white"/>
<path d="M236.913 176.698L232.193 173.971C231.816 173.748 231.864 173.371 232.299 173.119L233.847 172.23C234.282 171.978 234.95 171.949 235.327 172.171L240.047 174.899C240.425 175.122 240.376 175.499 239.941 175.75L238.393 176.64C237.958 176.892 237.291 176.921 236.913 176.698Z" fill="white"/>
<path d="M244.129 180.868L239.409 178.14C239.032 177.917 239.08 177.54 239.515 177.289L241.063 176.399C241.498 176.147 242.166 176.118 242.543 176.341L247.264 179.068C247.641 179.291 247.592 179.668 247.157 179.92L245.609 180.81C245.174 181.061 244.507 181.09 244.129 180.868Z" fill="white"/>
<path d="M251.346 185.037L246.625 182.309C246.248 182.086 246.296 181.709 246.732 181.458L248.279 180.568C248.714 180.316 249.382 180.287 249.759 180.51L254.48 183.237C254.857 183.46 254.808 183.837 254.373 184.089L252.826 184.979C252.39 185.23 251.723 185.259 251.346 185.037Z" fill="white"/>
<path d="M258.562 189.196L253.841 186.468C253.464 186.245 253.512 185.868 253.948 185.617L255.495 184.727C255.931 184.475 256.598 184.446 256.975 184.669L261.696 187.397C262.073 187.619 262.025 187.996 261.589 188.248L260.042 189.138C259.606 189.389 258.939 189.418 258.562 189.196Z" fill="white"/>
<path d="M187.077 156.53L182.357 153.802C181.98 153.58 182.028 153.202 182.463 152.951L187.136 150.252C187.571 150.001 188.238 149.972 188.615 150.194L193.336 152.922C193.713 153.144 193.665 153.522 193.23 153.773L188.557 156.472C188.122 156.723 187.455 156.752 187.077 156.53Z" fill="white"/>
<path d="M194.362 160.738L189.641 158.01C189.264 157.787 189.312 157.41 189.748 157.159L194.42 154.46C194.855 154.208 195.522 154.179 195.9 154.402L200.62 157.13C200.997 157.352 200.949 157.729 200.514 157.981L195.842 160.68C195.406 160.931 194.739 160.96 194.362 160.738Z" fill="white"/>
<path d="M201.646 164.946L196.925 162.218C196.548 161.995 196.596 161.618 197.032 161.367L201.704 158.668C202.139 158.416 202.806 158.387 203.184 158.61L207.904 161.338C208.281 161.56 208.233 161.937 207.798 162.189L203.126 164.888C202.69 165.139 202.023 165.168 201.646 164.946Z" fill="white"/>
<path d="M208.93 169.154L204.209 166.426C203.832 166.203 203.88 165.826 204.316 165.575L208.988 162.876C209.423 162.624 210.091 162.595 210.468 162.818L215.188 165.545C215.565 165.768 215.517 166.145 215.082 166.397L210.41 169.095C209.974 169.347 209.307 169.376 208.93 169.154Z" fill="white"/>
<path d="M216.213 173.352L211.492 170.624C211.115 170.401 211.163 170.024 211.599 169.772L216.271 167.074C216.706 166.822 217.373 166.793 217.751 167.016L222.471 169.743C222.848 169.966 222.8 170.343 222.365 170.595L217.693 173.293C217.257 173.545 216.59 173.574 216.213 173.352Z" fill="white"/>
<path d="M223.497 177.559L218.776 174.831C218.399 174.609 218.448 174.232 218.883 173.98L223.555 171.281C223.99 171.03 224.658 171.001 225.035 171.223L229.755 173.951C230.133 174.174 230.084 174.551 229.649 174.802L224.977 177.501C224.542 177.753 223.874 177.782 223.497 177.559Z" fill="white"/>
<path d="M230.781 181.767L226.06 179.039C225.683 178.817 225.732 178.44 226.167 178.188L230.839 175.489C231.274 175.238 231.942 175.209 232.319 175.431L237.039 178.159C237.417 178.381 237.368 178.759 236.933 179.01L232.261 181.709C231.826 181.961 231.158 181.99 230.781 181.767Z" fill="white"/>
<path d="M238.064 185.975L233.344 183.247C232.966 183.024 233.015 182.647 233.45 182.396L238.122 179.697C238.557 179.445 239.225 179.416 239.602 179.639L244.322 182.367C244.7 182.589 244.651 182.966 244.216 183.218L239.544 185.917C239.109 186.168 238.441 186.197 238.064 185.975Z" fill="white"/>
<path d="M245.348 190.182L240.628 187.455C240.25 187.232 240.299 186.855 240.734 186.603L245.406 183.905C245.841 183.653 246.509 183.624 246.886 183.847L251.606 186.574C251.984 186.797 251.935 187.174 251.5 187.426L246.828 190.124C246.393 190.376 245.725 190.405 245.348 190.182Z" fill="white"/>
<path d="M145.436 157.053L131.546 149.034C131.168 148.811 131.217 148.434 131.652 148.182L136.324 145.484C136.759 145.232 137.427 145.203 137.804 145.426L151.694 153.445C152.072 153.667 152.023 154.044 151.588 154.296L146.916 156.995C146.481 157.246 145.813 157.275 145.436 157.053Z" fill="white"/>
<path d="M234.921 208.716L221.03 200.697C220.653 200.474 220.701 200.097 221.137 199.846L225.809 197.147C226.244 196.895 226.912 196.866 227.289 197.089L241.179 205.108C241.557 205.33 241.508 205.708 241.073 205.959L236.401 208.658C235.966 208.909 235.298 208.938 234.921 208.716Z" fill="white"/>
<path d="M205.786 201.19L201.066 198.463C200.688 198.24 200.737 197.863 201.172 197.611L206.744 194.4C207.179 194.148 207.846 194.119 208.224 194.342L212.944 197.07C213.321 197.292 213.273 197.669 212.838 197.921L207.266 201.132C206.831 201.384 206.163 201.413 205.786 201.19Z" fill="white"/>
<path d="M152.893 170.653L145.348 166.3C144.971 166.077 145.019 165.7 145.455 165.448L151.026 162.237C151.462 161.986 152.129 161.957 152.506 162.179L160.051 166.532C160.428 166.754 160.38 167.132 159.945 167.383L154.373 170.595C153.938 170.846 153.27 170.875 152.893 170.653Z" fill="white"/>
<path d="M198.772 197.137L191.227 192.784C190.85 192.562 190.898 192.185 191.334 191.933L196.905 188.722C197.341 188.47 198.008 188.441 198.385 188.664L205.93 193.017C206.307 193.239 206.259 193.616 205.824 193.868L200.252 197.079C199.817 197.331 199.149 197.36 198.772 197.137Z" fill="white"/>
<path d="M163.399 176.718L155.854 172.365C155.476 172.142 155.525 171.765 155.96 171.514L161.532 168.302C161.967 168.051 162.634 168.022 163.012 168.244L170.557 172.597C170.934 172.82 170.885 173.197 170.45 173.448L164.879 176.66C164.443 176.911 163.776 176.94 163.399 176.718Z" fill="white"/>
<path d="M163.059 168.263L195.851 187.203C196.257 187.435 196.257 187.822 195.851 188.054L190.173 191.334C189.767 191.566 189.109 191.566 188.703 191.334L155.911 172.403L163.059 168.273V168.263Z" fill="white"/>
<path d="M226.147 208.813L231.399 211.85C231.709 212.034 231.67 212.343 231.312 212.547L229.039 213.862C228.681 214.065 228.14 214.094 227.83 213.91L222.578 210.873C222.268 210.689 222.307 210.38 222.665 210.177L224.938 208.861C225.296 208.658 225.837 208.629 226.147 208.813Z" fill="white"/>
<path d="M218.805 204.576L224.058 207.613C224.367 207.797 224.329 208.107 223.971 208.31L221.698 209.625C221.34 209.828 220.798 209.857 220.489 209.674L215.236 206.636C214.927 206.453 214.965 206.143 215.323 205.94L217.596 204.624C217.954 204.421 218.496 204.392 218.805 204.576Z" fill="white"/>
<path d="M211.521 200.368L216.774 203.406C217.083 203.589 217.045 203.899 216.687 204.102L214.413 205.418C214.056 205.621 213.514 205.65 213.204 205.466L207.952 202.429C207.642 202.245 207.681 201.935 208.039 201.732L210.312 200.417C210.67 200.213 211.212 200.184 211.521 200.368Z" fill="white"/>
<path d="M222.83 202.255L228.082 205.292C228.392 205.476 228.353 205.785 227.995 205.988L225.722 207.304C225.364 207.507 224.822 207.536 224.513 207.352L219.26 204.315C218.951 204.131 218.989 203.822 219.347 203.619L221.62 202.303C221.978 202.1 222.52 202.071 222.83 202.255Z" fill="white"/>
<path d="M299.914 193.742L160.758 113.398C158.572 112.131 157.43 109.055 158.204 106.52L189.68 4.34424C190.464 1.80991 192.863 0.784569 195.058 2.04206L334.214 82.3861C336.4 83.6533 337.542 86.7293 336.768 89.2636L305.302 191.44C304.518 193.974 302.119 194.999 299.924 193.742H299.914Z" fill="url(#paint4_radial_221_1796)"/>
<path d="M298.598 190.163L163.62 112.169C161.531 110.96 160.438 108.01 161.183 105.592L191.275 7.91369C192.02 5.48576 194.322 4.49912 196.421 5.70824L331.399 83.7018C333.488 84.9109 334.581 87.8612 333.836 90.2794L303.753 187.958C303.008 190.385 300.706 191.372 298.607 190.163H298.598Z" fill="url(#paint5_linear_221_1796)"/>
<path opacity="0.4" d="M298.598 190.163L163.62 112.169C161.531 110.96 160.438 108.01 161.183 105.592L191.275 7.91369C192.02 5.48576 194.322 4.49912 196.421 5.70824L331.399 83.7018C333.488 84.9109 334.581 87.8612 333.836 90.2794L303.753 187.958C303.008 190.385 300.706 191.372 298.607 190.163H298.598Z" fill="#06033E"/>
<path opacity="0.4" d="M298.598 190.163L163.62 112.169C161.531 110.96 160.438 108.01 161.183 105.592L191.275 7.91369C192.02 5.48576 194.322 4.49912 196.421 5.70824L331.399 83.7018C333.488 84.9109 334.581 87.8612 333.836 90.2794L303.753 187.958C303.008 190.385 300.706 191.372 298.607 190.163H298.598Z" fill="#008D5F"/>
<path opacity="0.5" d="M291.353 160.312L199.982 107.555C198.541 106.723 197.796 104.702 198.308 103.038L218.97 35.9458C219.483 34.282 221.059 33.6049 222.501 34.4368L313.872 87.1934C315.313 88.0253 316.058 90.047 315.545 91.7107L294.884 158.803C294.371 160.467 292.794 161.144 291.353 160.312Z" fill="#282828"/>
<path d="M279.011 161.937L187.639 109.18C186.198 108.349 185.453 106.327 185.966 104.663L206.627 37.571C207.14 35.9073 208.717 35.2302 210.158 36.0621L301.529 88.8187C302.971 89.6506 303.715 91.6722 303.203 93.336L282.541 160.428C282.029 162.092 280.452 162.769 279.011 161.937Z" fill="url(#paint6_linear_221_1796)"/>
<path d="M279.011 161.937L187.639 109.18C186.198 108.349 185.453 106.327 185.966 104.663L206.627 37.571C207.14 35.9073 208.717 35.2302 210.158 36.0621L301.529 88.8187C302.971 89.6506 303.715 91.6722 303.203 93.336L282.541 160.428C282.029 162.092 280.452 162.769 279.011 161.937Z" fill="#1F211E"/>
<path d="M301.519 88.8186L210.148 36.062C209.248 35.5397 208.291 35.6171 207.575 36.1491C208.01 36.1394 208.455 36.2361 208.89 36.4876L300.262 89.2443C301.703 90.0761 302.448 92.0978 301.935 93.7616L281.274 160.854C281.08 161.473 280.742 161.956 280.316 162.276C281.293 162.247 282.173 161.579 282.521 160.428L303.183 93.3359C303.696 91.6722 302.941 89.6505 301.51 88.8186H301.519Z" fill="white"/>
<path d="M163.766 216.715C162.509 216.715 161.3 216.454 160.381 215.922L123.768 194.787C122.801 194.226 122.269 193.423 122.269 192.533C122.269 191.498 123.004 190.472 124.291 189.737L143.134 178.855C145.436 177.53 148.812 177.395 150.833 178.555L187.436 199.691C188.403 200.252 188.935 201.055 188.945 201.945C188.945 202.98 188.21 204.005 186.923 204.74L168.08 215.622C166.833 216.348 165.266 216.715 163.766 216.715ZM147.458 178.836C146.132 178.836 144.73 179.155 143.656 179.774L124.813 190.656C123.865 191.208 123.323 191.894 123.323 192.543C123.323 193.191 123.855 193.626 124.3 193.877L160.913 215.013C162.576 215.971 165.614 215.835 167.548 214.713L186.391 203.831C187.339 203.28 187.881 202.602 187.881 201.945C187.881 201.287 187.349 200.861 186.904 200.61L150.301 179.474C149.557 179.049 148.541 178.836 147.458 178.836Z" fill="#9E9E9E"/>
<path d="M149.178 32.2051L153.746 50.1781L140.466 63.1181L140.108 63.0172L139.934 63.6337L126.104 77.1076L112.105 90.7479L111.746 91.0983L111.869 91.5835L116.68 110.528L121.489 129.472L126.181 147.931L112.899 160.872L95.0486 155.838L90.4193 137.605L90.4204 137.601L90.3631 137.376L85.5514 118.436L85.5516 118.435L80.7372 99.4905L76.0493 81.0291L89.6901 67.7413L103.687 54.1005L103.688 54.1017L117.692 40.4627L131.33 27.1722L149.178 32.2051Z" stroke="#00D992" stroke-width="1.73743"/>
<path d="M232.405 71.2626L226.756 68.0028C226.233 67.703 225.953 66.9775 226.127 66.3777C226.301 65.7877 226.872 65.5459 227.394 65.8457L233.043 69.1055C233.566 69.4054 233.846 70.1309 233.672 70.7306C233.498 71.3207 232.927 71.5625 232.405 71.2626Z" fill="white"/>
<path d="M245.861 79.0298L237.532 74.2223C237.01 73.9224 236.729 73.197 236.903 72.5972C237.078 72.0072 237.648 71.7654 238.171 72.0652L246.499 76.8727C247.021 77.1726 247.302 77.898 247.128 78.4978C246.954 79.0878 246.383 79.3296 245.861 79.0298Z" fill="white"/>
<path d="M221.011 96.4125L215.362 93.1527C214.839 92.8529 214.559 92.1274 214.733 91.5276C214.907 90.9376 215.478 90.6958 216 90.9956L221.649 94.2554C222.172 94.5553 222.452 95.2808 222.278 95.8805C222.104 96.4706 221.533 96.7124 221.011 96.4125Z" fill="white"/>
<path d="M233.005 103.338L224.677 98.5309C224.154 98.231 223.874 97.5056 224.048 96.9058C224.222 96.3158 224.793 96.0739 225.315 96.3738L233.644 101.181C234.166 101.481 234.446 102.207 234.272 102.806C234.098 103.396 233.528 103.638 233.005 103.338Z" fill="white"/>
<path d="M215.487 66.7838L211.956 64.7428C211.434 64.4429 211.154 63.7175 211.328 63.1177C211.502 62.5277 212.073 62.2859 212.595 62.5857L216.126 64.6267C216.648 64.9266 216.928 65.6521 216.754 66.2518C216.58 66.8419 216.009 67.0837 215.487 66.7838Z" fill="white"/>
<path d="M226.099 78.1983L215.314 71.9689C214.791 71.669 214.511 70.9435 214.685 70.3438C214.859 69.7538 215.43 69.5119 215.952 69.8118L226.738 76.0412C227.26 76.3411 227.54 77.0666 227.366 77.6663C227.192 78.2563 226.621 78.4982 226.099 78.1983Z" fill="white"/>
<path d="M216.155 83.0343L212.624 80.9933C212.102 80.6934 211.821 79.968 211.995 79.3682C212.17 78.7782 212.74 78.5364 213.263 78.8362L216.793 80.8772C217.316 81.1771 217.596 81.9026 217.422 82.5023C217.248 83.0923 216.677 83.3342 216.155 83.0343Z" fill="white"/>
<path d="M234.311 114.665L224.889 109.219C224.367 108.92 224.086 108.194 224.261 107.594C224.435 107.004 225.005 106.762 225.528 107.062L234.949 112.508C235.472 112.808 235.752 113.534 235.578 114.133C235.404 114.723 234.833 114.965 234.311 114.665Z" fill="white"/>
<path d="M212.198 91.3243L209.935 90.0184C209.412 89.7186 209.132 88.9931 209.306 88.3934C209.48 87.8033 210.051 87.5615 210.573 87.8614L212.837 89.1672C213.359 89.4671 213.64 90.1926 213.465 90.7923C213.291 91.3823 212.721 91.6242 212.198 91.3243Z" fill="white"/>
<path d="M210.06 100.668L207.246 99.0433C206.723 98.7435 206.443 98.018 206.617 97.4183C206.791 96.8282 207.362 96.5864 207.884 96.8863L210.699 98.5113C211.221 98.8112 211.502 99.5367 211.328 100.136C211.153 100.726 210.583 100.968 210.06 100.668Z" fill="white"/>
<path d="M221.001 106.985L213.582 102.7C213.06 102.4 212.779 101.675 212.953 101.075C213.127 100.485 213.698 100.243 214.22 100.543L221.64 104.828C222.162 105.128 222.442 105.853 222.268 106.453C222.094 107.043 221.524 107.285 221.001 106.985Z" fill="white"/>
<path d="M211.231 106.627L205.901 103.551C205.379 103.251 205.098 102.526 205.273 101.926C205.447 101.336 206.017 101.094 206.54 101.394L211.87 104.47C212.392 104.77 212.672 105.495 212.498 106.095C212.324 106.685 211.753 106.927 211.231 106.627Z" fill="white"/>
<path d="M242.398 119.357L238.974 117.383C238.451 117.084 238.171 116.358 238.345 115.758C238.519 115.168 239.09 114.926 239.612 115.226L243.036 117.2C243.559 117.5 243.839 118.225 243.665 118.825C243.491 119.415 242.92 119.657 242.398 119.357Z" fill="white"/>
<path d="M229.281 90.6084L219.859 85.1625C219.337 84.8626 219.056 84.1371 219.23 83.5374C219.404 82.9474 219.975 82.7055 220.497 83.0054L229.919 88.4513C230.441 88.7512 230.722 89.4766 230.548 90.0764C230.374 90.6664 229.803 90.9083 229.281 90.6084Z" fill="white"/>
<path d="M230.403 85.975L213.979 76.4955C213.456 76.1956 213.176 75.4701 213.35 74.8704C213.524 74.2804 214.095 74.0385 214.617 74.3384L231.042 83.818C231.564 84.1178 231.845 84.8433 231.671 85.443C231.497 86.0331 230.926 86.2749 230.403 85.975Z" fill="#35A5E8"/>
<path d="M220.711 90.947L211.289 85.5011C210.767 85.2012 210.487 84.4758 210.661 83.876C210.835 83.286 211.406 83.0442 211.928 83.344L221.349 88.7899C221.872 89.0898 222.152 89.8153 221.978 90.415C221.804 91.0051 221.233 91.2469 220.711 90.947Z" fill="#35A5E8"/>
<path d="M236.43 94.7386L233.006 92.7653C232.483 92.4654 232.203 91.7399 232.377 91.1402C232.551 90.5501 233.122 90.3083 233.644 90.6082L237.068 92.5815C237.591 92.8813 237.871 93.6068 237.697 94.2065C237.523 94.7966 236.952 95.0384 236.43 94.7386Z" fill="#35A5E8"/>
<path d="M271.272 93.7037L250.997 81.9994C250.475 81.6995 250.194 80.9741 250.368 80.3743C250.542 79.7843 251.113 79.5425 251.635 79.8423L271.91 91.5467C272.432 91.8465 272.713 92.572 272.539 93.1717C272.365 93.7618 271.794 94.0036 271.272 93.7037Z" fill="#35A5E8"/>
<path d="M219.918 101.074L208.591 94.5355C208.068 94.2357 207.788 93.5102 207.962 92.9105C208.136 92.3204 208.707 92.0786 209.229 92.3784L220.556 98.9174C221.079 99.2173 221.359 99.9427 221.185 100.542C221.011 101.133 220.44 101.374 219.918 101.074Z" fill="#3BF80C"/>
<path d="M221.63 65.0425L213.301 60.235C212.779 59.9351 212.499 59.2097 212.673 58.6099C212.847 58.0199 213.418 57.778 213.94 58.0779L222.268 62.8854C222.791 63.1853 223.071 63.9107 222.897 64.5105C222.723 65.1005 222.152 65.3423 221.63 65.0425Z" fill="#3BF80C"/>
<path d="M209.49 110.912L199.846 105.34C199.324 105.04 199.043 104.315 199.217 103.715C199.392 103.125 199.962 102.883 200.485 103.183L210.129 108.755C210.651 109.055 210.931 109.78 210.757 110.38C210.583 110.97 210.012 111.212 209.49 110.912Z" fill="#35A5E8"/>
<path d="M273.544 83.2662L269.414 80.8867C269.027 80.6642 268.824 80.1322 268.959 79.6969C269.085 79.2616 269.501 79.0875 269.888 79.31L274.018 81.6895C274.405 81.912 274.608 82.444 274.473 82.8793C274.347 83.3146 273.931 83.4887 273.544 83.2662Z" fill="white"/>
<path d="M281.418 87.8221L277.288 85.4426C276.901 85.2201 276.698 84.6881 276.833 84.2528C276.959 83.8175 277.375 83.6434 277.762 83.8659L281.892 86.2454C282.279 86.4679 282.482 86.9999 282.347 87.4352C282.221 87.8705 281.805 88.0446 281.418 87.8221Z" fill="white"/>
<path d="M289.292 92.3688L285.162 89.9892C284.775 89.7667 284.572 89.2347 284.707 88.7994C284.833 88.3641 285.249 88.19 285.636 88.4125L289.766 90.7921C290.153 91.0146 290.356 91.5466 290.221 91.9818C290.095 92.4171 289.679 92.5913 289.292 92.3688Z" fill="white"/>
<path d="M293.171 94.6032L293.045 94.5258C292.658 94.3033 292.455 93.7713 292.59 93.336C292.716 92.9008 293.132 92.7266 293.519 92.9491L293.645 93.0265C294.032 93.249 294.235 93.781 294.099 94.2163C293.974 94.6516 293.558 94.8257 293.171 94.6032Z" fill="#F8359E"/>
</g>
<defs>
<linearGradient id="paint0_linear_221_1796" x1="38.6165" y1="205.553" x2="321.417" y2="205.553" gradientUnits="userSpaceOnUse">
<stop stop-color="#004F35"/>
<stop offset="1" stop-color="#00D791"/>
</linearGradient>
<radialGradient id="paint1_radial_221_1796" cx="0" cy="0" r="1" gradientUnits="userSpaceOnUse" gradientTransform="translate(194.826 -3.82934) scale(215.998 215.998)">
<stop stop-color="#312F34"/>
<stop offset="0.47" stop-color="#545C57"/>
<stop offset="0.74" stop-color="#4E5B4E"/>
<stop offset="0.8" stop-color="#131412"/>
</radialGradient>
<radialGradient id="paint2_radial_221_1796" cx="0" cy="0" r="1" gradientUnits="userSpaceOnUse" gradientTransform="translate(62.7211 169.637) scale(236.186 236.186)">
<stop stop-color="#312F34"/>
<stop offset="0.47" stop-color="#545C57"/>
<stop offset="0.68" stop-color="#4E5B4E"/>
<stop offset="0.74" stop-color="#131412"/>
</radialGradient>
<radialGradient id="paint3_radial_221_1796" cx="0" cy="0" r="1" gradientUnits="userSpaceOnUse" gradientTransform="translate(84.4473 122.229) scale(211.8 211.8)">
<stop stop-color="#1F211E"/>
<stop offset="0.47" stop-color="#4A514D"/>
<stop offset="1" stop-color="#1F211E"/>
</radialGradient>
<radialGradient id="paint4_radial_221_1796" cx="0" cy="0" r="1" gradientUnits="userSpaceOnUse" gradientTransform="translate(137.204 41.2275) scale(216.037 216.037)">
<stop stop-color="#312F34"/>
<stop offset="0.47" stop-color="#545C57"/>
<stop offset="0.73" stop-color="#4E5B4E"/>
<stop offset="1" stop-color="#292C28"/>
</radialGradient>
<linearGradient id="paint5_linear_221_1796" x1="160.951" y1="97.9405" x2="334.068" y2="97.9405" gradientUnits="userSpaceOnUse">
<stop stop-color="#292C28"/>
<stop offset="1" stop-color="#4E5B4E"/>
</linearGradient>
<linearGradient id="paint6_linear_221_1796" x1="185.801" y1="99.0044" x2="303.358" y2="99.0044" gradientUnits="userSpaceOnUse">
<stop stop-color="#004F35"/>
<stop offset="1" stop-color="#00D791"/>
</linearGradient>
<clipPath id="clip0_221_1796">
<rect width="424.152" height="287.356" fill="white" transform="translate(-23.0688 0.677979)"/>
</clipPath>
</defs>
</svg>
