<svg width="120" height="30" viewBox="0 0 120 30" fill="none" xmlns="http://www.w3.org/2000/svg">
<mask id="path-1-inside-1_221_1798" fill="white">
<path fill-rule="evenodd" clip-rule="evenodd" d="M97.5249 29.7801C97.3861 29.6405 97.3082 29.4511 97.3082 29.2536L97.308 25.6341H22.4711C22.4447 25.6683 22.416 25.7011 22.3852 25.7321L18.4915 29.6524C18.3819 29.7628 18.2517 29.8503 18.1084 29.9099C17.9651 29.9696 17.8115 30.0002 17.6564 30L1.00464 29.9982C0.808391 29.9982 0.620177 29.9198 0.481406 29.7801C0.342636 29.6405 0.264677 29.4511 0.264677 29.2536L0.263917 7.72257C0.263744 7.56651 0.294168 7.41195 0.353443 7.26774C0.412718 7.12353 0.499682 6.99251 0.609353 6.88217L8.71557 0.309452C8.91254 0.111376 9.1796 8.5453e-05 9.45806 3.05176e-05H21.6427C21.7806 -2.96913e-06 21.9171 0.0273045 22.0445 0.0803925C22.1719 0.133481 22.2877 0.211309 22.3852 0.309432C22.4827 0.407554 22.56 0.524048 22.6128 0.652258C22.6656 0.780467 22.6927 0.917881 22.6927 1.05665V4.27235H100.872L105.759 0.309421C105.956 0.111345 106.223 5.49951e-05 106.502 3.07078e-08H118.686C118.824 -3.34271e-05 118.961 0.027274 119.088 0.0803621C119.215 0.13345 119.331 0.211279 119.429 0.309401C119.526 0.407524 119.604 0.524018 119.656 0.652227C119.709 0.780437 119.736 0.91785 119.736 1.05662V24.9848C119.736 25.2651 119.626 25.5338 119.429 25.732L115.535 29.6524C115.425 29.7627 115.295 29.8503 115.152 29.9099C115.009 29.9696 114.855 30.0002 114.7 30L98.0481 29.9982C97.8519 29.9982 97.6637 29.9198 97.5249 29.7801Z"/>
</mask>
<path d="M97.3082 29.2536H97.552V29.2536L97.3082 29.2536ZM97.5249 29.7801L97.352 29.952V29.952L97.5249 29.7801ZM97.308 25.6341L97.5518 25.6341L97.5518 25.3903H97.308V25.6341ZM22.4711 25.6341V25.3903H22.3515L22.2783 25.4849L22.4711 25.6341ZM22.3852 25.7321L22.2122 25.5602L22.2122 25.5603L22.3852 25.7321ZM18.4915 29.6524L18.6645 29.8242L18.6645 29.8242L18.4915 29.6524ZM17.6564 30L17.6567 29.7562H17.6564L17.6564 30ZM1.00464 29.9982L1.00467 29.7545H1.00464V29.9982ZM0.481406 29.7801L0.308476 29.952H0.308477L0.481406 29.7801ZM0.264677 29.2536H0.508467V29.2536L0.264677 29.2536ZM0.263917 7.72257L0.507708 7.72257L0.507707 7.72231L0.263917 7.72257ZM0.353443 7.26774L0.578929 7.36043H0.578929L0.353443 7.26774ZM0.609353 6.88217L0.455811 6.69281L0.445659 6.70104L0.436445 6.71031L0.609353 6.88217ZM8.71557 0.309452L8.86911 0.498816L8.87924 0.490604L8.88843 0.481358L8.71557 0.309452ZM9.45806 3.05176e-05V-0.24376H9.45801L9.45806 3.05176e-05ZM21.6427 3.05176e-05V0.243821H21.6427L21.6427 3.05176e-05ZM22.0445 0.0803925L21.9508 0.305428L22.0445 0.0803925ZM22.3852 0.309432L22.5581 0.13759V0.13759L22.3852 0.309432ZM22.6927 1.05665L22.4489 1.05659V1.05665H22.6927ZM22.6927 4.27235H22.4489V4.51614H22.6927V4.27235ZM100.872 4.27235V4.51614H100.958L101.025 4.46172L100.872 4.27235ZM105.759 0.309421L105.913 0.498786L105.923 0.490573L105.932 0.481327L105.759 0.309421ZM106.502 3.07078e-08V-0.243791H106.502L106.502 3.07078e-08ZM118.686 3.07078e-08V0.243791L118.686 0.243791L118.686 3.07078e-08ZM119.088 0.0803621L118.994 0.305398L119.088 0.0803621ZM119.429 0.309401L119.602 0.137562L119.429 0.309401ZM119.656 0.652227L119.882 0.559468L119.882 0.559457L119.656 0.652227ZM119.736 1.05662L119.492 1.05656V1.05662H119.736ZM119.429 25.732L119.256 25.5602L119.256 25.5602L119.429 25.732ZM115.535 29.6524L115.708 29.8242L115.708 29.8242L115.535 29.6524ZM114.7 30L114.7 29.7562H114.7L114.7 30ZM98.0481 29.9982L98.0482 29.7544H98.0481V29.9982ZM97.0644 29.2536C97.0644 29.5152 97.1677 29.7665 97.352 29.952L97.6978 29.6083C97.6046 29.5145 97.552 29.3869 97.552 29.2536H97.0644ZM97.0643 25.6341L97.0644 29.2536L97.552 29.2536L97.5518 25.6341L97.0643 25.6341ZM97.308 25.3903H22.4711V25.8779H97.308V25.3903ZM22.2783 25.4849C22.258 25.5113 22.2359 25.5364 22.2122 25.5602L22.5581 25.9039C22.5961 25.8657 22.6314 25.8254 22.664 25.7833L22.2783 25.4849ZM22.2122 25.5603L18.3185 29.4806L18.6645 29.8242L22.5582 25.9039L22.2122 25.5603ZM18.3186 29.4806C18.2315 29.5682 18.1282 29.6376 18.0147 29.6849L18.202 30.135C18.3751 30.063 18.5322 29.9573 18.6645 29.8242L18.3186 29.4806ZM18.0147 29.6849C17.9011 29.7321 17.7795 29.7564 17.6567 29.7562L17.6561 30.2438C17.8435 30.244 18.029 30.207 18.202 30.135L18.0147 29.6849ZM17.6564 29.7562L1.00467 29.7545L1.00462 30.242L17.6564 30.2438L17.6564 29.7562ZM1.00464 29.7545C0.873545 29.7545 0.747505 29.7021 0.654335 29.6083L0.308477 29.952C0.492848 30.1375 0.743236 30.242 1.00464 30.242V29.7545ZM0.654336 29.6083C0.561113 29.5145 0.508467 29.3869 0.508467 29.2536H0.020886C0.020886 29.5153 0.124159 29.7665 0.308476 29.952L0.654336 29.6083ZM0.508467 29.2536L0.507707 7.72257L0.0201261 7.72258L0.020886 29.2536L0.508467 29.2536ZM0.507707 7.72231C0.50757 7.5981 0.531786 7.47512 0.578929 7.36043L0.127957 7.17506C0.0565496 7.34879 0.0199188 7.53493 0.0201262 7.72284L0.507707 7.72231ZM0.578929 7.36043C0.62607 7.24574 0.695192 7.14163 0.78226 7.05403L0.436445 6.71031C0.304172 6.84339 0.199366 7.00133 0.127957 7.17506L0.578929 7.36043ZM0.762894 7.07154L8.86911 0.498816L8.56202 0.120087L0.455811 6.69281L0.762894 7.07154ZM8.88843 0.481358C9.03983 0.329118 9.24475 0.243863 9.45811 0.243821L9.45801 -0.24376C9.11444 -0.243692 8.78526 -0.106367 8.5427 0.137546L8.88843 0.481358ZM9.45806 0.243821H21.6427V-0.24376H9.45806V0.243821ZM21.6427 0.243821C21.7484 0.243796 21.8531 0.264716 21.9508 0.305428L22.1383 -0.144643C21.9812 -0.210107 21.8128 -0.243801 21.6426 -0.24376L21.6427 0.243821ZM21.9508 0.305428C22.0485 0.346141 22.1373 0.405868 22.2123 0.481273L22.5581 0.13759C22.438 0.0167506 22.2954 -0.0791793 22.1383 -0.144643L21.9508 0.305428ZM22.2123 0.481273C22.2872 0.556683 22.3467 0.646293 22.3873 0.745023L22.8383 0.559493C22.7734 0.401803 22.6782 0.258426 22.5581 0.13759L22.2123 0.481273ZM22.3873 0.745023C22.428 0.843763 22.4489 0.949638 22.4489 1.05659L22.9364 1.05671C22.9365 0.886123 22.9031 0.717172 22.8383 0.559493L22.3873 0.745023ZM22.4489 1.05665V4.27235H22.9364V1.05665H22.4489ZM22.6927 4.51614H100.872V4.02856H22.6927V4.51614ZM105.606 0.120057L100.718 4.08299L101.025 4.46172L105.913 0.498786L105.606 0.120057ZM106.502 -0.243791C106.158 -0.243723 105.829 -0.106398 105.586 0.137516L105.932 0.481327C106.083 0.329088 106.288 0.243833 106.502 0.243791L106.502 -0.243791ZM118.686 -0.243791H106.502V0.243791H118.686V-0.243791ZM119.182 -0.144673C119.025 -0.210138 118.856 -0.243832 118.686 -0.243791L118.686 0.243791C118.792 0.243765 118.897 0.264686 118.994 0.305398L119.182 -0.144673ZM119.602 0.137562C119.482 0.0167204 119.339 -0.0792098 119.182 -0.144673L118.994 0.305398C119.092 0.34611 119.181 0.405837 119.256 0.481241L119.602 0.137562ZM119.882 0.559457C119.817 0.401773 119.722 0.258397 119.602 0.137562L119.256 0.481241C119.331 0.55665 119.39 0.646262 119.431 0.744998L119.882 0.559457ZM119.98 1.05667C119.98 0.886092 119.947 0.717146 119.882 0.559468L119.431 0.744986C119.471 0.843728 119.492 0.949608 119.492 1.05656L119.98 1.05667ZM119.98 24.9848V1.05662H119.492V24.9848H119.98ZM119.602 25.9038C119.844 25.6598 119.98 25.3292 119.98 24.9848H119.492C119.492 25.2009 119.407 25.4079 119.256 25.5602L119.602 25.9038ZM115.708 29.8242L119.602 25.9038L119.256 25.5602L115.362 29.4806L115.708 29.8242ZM115.246 30.135C115.419 30.0629 115.576 29.9573 115.708 29.8242L115.362 29.4806C115.275 29.5682 115.172 29.6376 115.058 29.6848L115.246 30.135ZM114.7 30.2438C114.887 30.244 115.072 30.207 115.246 30.135L115.058 29.6848C114.945 29.7321 114.823 29.7563 114.7 29.7562L114.7 30.2438ZM98.0481 30.242L114.7 30.2438L114.7 29.7562L98.0482 29.7544L98.0481 30.242ZM97.352 29.952C97.5363 30.1375 97.7867 30.242 98.0481 30.242V29.7544C97.917 29.7544 97.791 29.702 97.6978 29.6083L97.352 29.952Z" fill="#00D992" mask="url(#path-1-inside-1_221_1798)"/>
<path d="M37.5776 17.5974V16.8553H38.5053V17.2947L38.9252 17.7244H41.1615L41.5912 17.2849V15.8787L41.1615 15.4588H38.5444L37.5971 14.5018V12.6562L38.5444 11.7089H41.4935L42.4407 12.6562V13.4081H41.5228V12.9589L41.0931 12.5292H38.9545L38.5248 12.9589V14.2089L38.9545 14.6385H41.5716L42.5189 15.5858V17.5779L41.5521 18.5447H38.5248L37.5776 17.5974ZM43.7893 11.7089H48.379V12.5292H44.7268V14.7069H48.0958V15.5174H44.7268V17.7244H48.379V18.5447H43.7893V11.7089ZM54.5687 16.3963V18.5447H53.6313V16.6307L52.8207 15.7615H50.4868V18.5447H49.5493V11.7089H53.5824L54.5297 12.6562V14.785L53.7777 15.5369L54.5687 16.3963ZM50.4868 14.9608H53.1625L53.602 14.5311V12.9394L53.1625 12.5097H50.4868V14.9608ZM55.3063 11.7089H56.2731L58.1969 17.4217H58.2164L60.1402 11.7089H61.107L58.6851 18.5447H57.7281L55.3063 11.7089ZM62.0814 11.7089H63.0189V18.5447H62.0814V11.7089ZM68.7107 13.535V13.0956L68.1444 12.5292H65.9764L65.371 13.1347V17.1189L65.9764 17.7244H68.1444L68.7107 17.158V16.7186H69.6482V17.49L68.5936 18.5447H67.3143L67.1288 19.0037H67.7049L68.1932 19.4919V20.2731L67.6854 20.7809H66.1718V20.2048H67.3338L67.4998 20.0388V19.7263L67.3338 19.5505H66.3475V19.199L66.6014 18.5447H65.5272L64.4335 17.451V12.8026L65.5272 11.7089H68.5936L69.6482 12.7636V13.535H68.7107ZM70.6704 17.451V12.8026L71.7641 11.7089H74.9867L76.0804 12.8026V17.451L74.9867 18.5447H71.7641L70.6704 17.451ZM74.5375 17.7244L75.1429 17.1189V13.1347L74.5375 12.5292H72.2133L71.6079 13.1347V17.1189L72.2133 17.7244H74.5375ZM77.2971 17.5974V16.8553H78.2248V17.2947L78.6447 17.7244H80.881L81.3107 17.2849V15.8787L80.881 15.4588H78.2639L77.3166 14.5018V12.6562L78.2639 11.7089H81.213L82.1603 12.6562V13.4081H81.2423V12.9589L80.8126 12.5292H78.674L78.2444 12.9589V14.2089L78.674 14.6385H81.2912L82.2384 15.5858V17.5779L81.2716 18.5447H78.2444L77.2971 17.5974Z" fill="#00D992"/>
</svg>
