<svg width="120" height="31" viewBox="0 0 120 31" fill="none" xmlns="http://www.w3.org/2000/svg">
<path d="M9.19434 0.69873H21.3789C21.4701 0.698719 21.5605 0.71229 21.6475 0.73877L21.7334 0.77002C21.8178 0.805177 21.8964 0.85254 21.9668 0.910645L22.0352 0.972168C22.0997 1.03713 22.1544 1.11116 22.1973 1.19189L22.2363 1.2749C22.283 1.38837 22.3067 1.51044 22.3066 1.6333V4.97119H100.65L100.685 4.94385L105.572 0.980957L105.581 0.972168C105.733 0.819017 105.933 0.724942 106.146 0.703613L106.237 0.69873H118.422C118.513 0.698708 118.604 0.712182 118.691 0.73877L118.777 0.77002C118.862 0.805215 118.94 0.852499 119.011 0.910645L119.078 0.972168C119.143 1.03714 119.197 1.11114 119.24 1.19189L119.279 1.2749C119.326 1.38837 119.351 1.51044 119.351 1.6333V25.561C119.351 25.7781 119.275 25.9875 119.14 26.1538L119.078 26.2231L115.185 30.1431C115.111 30.2174 115.026 30.2803 114.935 30.3296L114.841 30.3745C114.712 30.4279 114.574 30.4547 114.436 30.4546L97.7842 30.4526C97.6613 30.4526 97.5423 30.4159 97.4414 30.3481L97.3477 30.271C97.2317 30.1543 97.1661 29.9959 97.166 29.8306V26.0894H22.1475L22.1104 26.1362L22.0352 26.2231L18.1406 30.1431C18.0669 30.2173 17.9832 30.2804 17.8916 30.3296L17.7979 30.3745C17.6694 30.428 17.5315 30.4547 17.3926 30.4546L0.741211 30.4526L0.620117 30.4409C0.540883 30.425 0.465722 30.3933 0.398438 30.3481L0.303711 30.271C0.187825 30.1543 0.123135 29.9958 0.123047 29.8306L0.12207 8.29932L0.126953 8.19482C0.137022 8.09058 0.162273 7.98823 0.202148 7.89111C0.254835 7.76293 0.331702 7.64572 0.428711 7.54736L8.52832 0.980957L8.45117 0.88623L8.5293 0.980957L8.53809 0.972168C8.69049 0.818911 8.89026 0.724856 9.10254 0.703613L9.19434 0.69873Z" fill="#181818" stroke="#454545" stroke-width="0.243791"/>
<path d="M35.3997 12.1729H39.4328L40.38 13.1201V15.3857L39.423 16.3427H36.3371V19.0086H35.3997V12.1729ZM39.0128 15.5419L39.4523 15.1122V13.4033L39.0128 12.9736H36.3371V15.5419H39.0128Z" fill="white"/>
<path d="M46.5701 16.8602V19.0086H45.6326V17.0946L44.8221 16.2255H42.4882V19.0086H41.5507V12.1729H45.5838L46.531 13.1201V15.2489L45.7791 16.0009L46.5701 16.8602ZM42.4882 15.4247H45.1639L45.6033 14.995V13.4033L45.1639 12.9736H42.4882V15.4247Z" fill="white"/>
<path d="M47.8902 17.9149V13.2666L48.9839 12.1729H52.2065L53.3002 13.2666V17.9149L52.2065 19.0086H48.9839L47.8902 17.9149ZM51.7573 18.1883L52.3627 17.5829V13.5986L51.7573 12.9931H49.4331L48.8277 13.5986V17.5829L49.4331 18.1883H51.7573Z" fill="white"/>
<path d="M54.5657 17.9149V13.2666L55.6595 12.1729H58.7258L59.7804 13.2275V13.999H58.843V13.5595L58.2766 12.9931H56.1087L55.5032 13.5986V17.5829L56.1087 18.1883H58.2766L58.843 17.6219V17.1825H59.7804V17.954L58.7258 19.0086H55.6595L54.5657 17.9149Z" fill="white"/>
<path d="M60.9003 12.1729H65.49V12.9931H61.8377V15.1708H65.2068V15.9813H61.8377V18.1883H65.49V19.0086H60.9003V12.1729Z" fill="white"/>
<path d="M66.5138 18.0614V17.3192H67.4415V17.7586L67.8614 18.1883H70.0977L70.5274 17.7489V16.3427L70.0977 15.9228H67.4806L66.5333 14.9657V13.1201L67.4806 12.1729H70.4297L71.377 13.1201V13.872H70.459V13.4228L70.0294 12.9931H67.8907L67.4611 13.4228V14.6728L67.8907 15.1025H70.5079L71.4551 16.0497V18.0418L70.4883 19.0086H67.4611L66.5138 18.0614Z" fill="white"/>
<path d="M72.579 18.0614V17.3192H73.5067V17.7586L73.9267 18.1883H76.1629L76.5926 17.7489V16.3427L76.1629 15.9228H73.5458L72.5986 14.9657V13.1201L73.5458 12.1729H76.4949L77.4422 13.1201V13.872H76.5242V13.4228L76.0946 12.9931H73.9559L73.5263 13.4228V14.6728L73.9559 15.1025H76.5731L77.5203 16.0497V18.0418L76.5535 19.0086H73.5263L72.579 18.0614Z" fill="white"/>
<path d="M78.6931 17.9149V13.2666L79.7868 12.1729H83.0094L84.1031 13.2666V17.9149L83.0094 19.0086H79.7868L78.6931 17.9149ZM82.5602 18.1883L83.1656 17.5829V13.5986L82.5602 12.9931H80.236L79.6305 13.5986V17.5829L80.236 18.1883H82.5602Z" fill="white"/>
</svg>
