<svg width="2560" height="890" viewBox="0 0 2560 890" fill="none" xmlns="http://www.w3.org/2000/svg">
<g clip-path="url(#clip0_218_368)">
<g clip-path="url(#clip1_218_368)">
<g opacity="0.12">
<line x1="350.222" y1="526.389" x2="2208" y2="526.389" stroke="#00D992"/>
<line x1="350.222" y1="412.611" x2="2208" y2="412.612" stroke="#00D992"/>
<line x1="350.222" y1="867.722" x2="2208" y2="867.722" stroke="#00D992"/>
<line x1="144" y1="298.833" x2="2414.22" y2="298.833" stroke="#00D992"/>
<line x1="350.222" y1="753.944" x2="2208" y2="753.945" stroke="#00D992"/>
<line x1="350.222" y1="640.167" x2="2208" y2="640.167" stroke="#00D992"/>
<line x1="-0.000434832" y1="128.167" x2="2560" y2="128.167" stroke="#00D992"/>
<line x1="145.277" y1="1483.33" x2="145.277" y2="-171.778" stroke="#00D992"/>
<line x1="1176.39" y1="1095.78" x2="1176.39" y2="638.888" stroke="#00D992"/>
<line x1="1795.06" y1="1095.78" x2="1795.06" y2="638.888" stroke="#00D992"/>
<line x1="763.944" y1="1095.78" x2="763.944" y2="638.888" stroke="#00D992"/>
<line x1="2413.72" y1="1483.33" x2="2413.72" y2="-171.778" stroke="#00D992"/>
<line x1="557.722" y1="1323.33" x2="557.722" y2="414.889" stroke="#00D992"/>
<line x1="2207.5" y1="1483.33" x2="2207.5" y2="126.889" stroke="#00D992"/>
<line x1="351.5" y1="1483.33" x2="351.5" y2="126.889" stroke="#00D992"/>
<line x1="1382.61" y1="1095.78" x2="1382.61" y2="638.888" stroke="#00D992"/>
<line x1="2001.28" y1="1323.33" x2="2001.28" y2="414.889" stroke="#00D992"/>
<g clip-path="url(#clip2_218_368)">
<mask id="path-18-inside-1_218_368" fill="white">
<path d="M2412.44 297.556H2624V982H2412.44V297.556Z"/>
</mask>
<line x1="2305.32" y1="378.128" x2="2652.84" y2="216.077" stroke="#00D992"/>
<line x1="2305.32" y1="789.486" x2="2652.84" y2="627.435" stroke="#00D992"/>
<line x1="2305.32" y1="583.807" x2="2652.84" y2="421.756" stroke="#00D992"/>
<line x1="2305.32" y1="995.165" x2="2652.84" y2="833.114" stroke="#00D992"/>
<line x1="2305.32" y1="407.511" x2="2652.84" y2="245.46" stroke="#00D992"/>
<line x1="2305.32" y1="818.869" x2="2652.84" y2="656.818" stroke="#00D992"/>
<line x1="2305.32" y1="613.189" x2="2652.84" y2="451.139" stroke="#00D992"/>
<line x1="2305.32" y1="1024.55" x2="2652.84" y2="862.497" stroke="#00D992"/>
<line x1="2305.32" y1="436.894" x2="2652.84" y2="274.843" stroke="#00D992"/>
<line x1="2305.32" y1="848.251" x2="2652.84" y2="686.201" stroke="#00D992"/>
<line x1="2305.32" y1="642.572" x2="2652.84" y2="480.522" stroke="#00D992"/>
<line x1="2305.32" y1="466.276" x2="2652.84" y2="304.225" stroke="#00D992"/>
<line x1="2305.32" y1="877.634" x2="2652.84" y2="715.583" stroke="#00D992"/>
<line x1="2305.32" y1="671.955" x2="2652.84" y2="509.904" stroke="#00D992"/>
<line x1="2305.32" y1="495.659" x2="2652.84" y2="333.608" stroke="#00D992"/>
<line x1="2305.32" y1="907.017" x2="2652.84" y2="744.966" stroke="#00D992"/>
<line x1="2305.32" y1="701.338" x2="2652.84" y2="539.287" stroke="#00D992"/>
<line x1="2305.32" y1="525.041" x2="2652.84" y2="362.991" stroke="#00D992"/>
<line x1="2305.32" y1="936.399" x2="2652.84" y2="774.349" stroke="#00D992"/>
<line x1="2305.32" y1="730.721" x2="2652.84" y2="568.67" stroke="#00D992"/>
<line x1="2305.32" y1="554.424" x2="2652.84" y2="392.374" stroke="#00D992"/>
<line x1="2305.32" y1="965.782" x2="2652.84" y2="803.732" stroke="#00D992"/>
<line x1="2305.32" y1="760.103" x2="2652.84" y2="598.052" stroke="#00D992"/>
</g>
<path d="M2412.44 298.056H2624V297.056H2412.44V298.056ZM2624 981.5H2412.44V982.5H2624V981.5Z" fill="#00D992" mask="url(#path-18-inside-1_218_368)"/>
<g clip-path="url(#clip3_218_368)">
<mask id="path-43-inside-2_218_368" fill="white">
<path d="M-65.7778 297.556H145.778V982H-65.7778V297.556Z"/>
</mask>
<line x1="-172.903" y1="378.128" x2="174.616" y2="216.077" stroke="#00D992"/>
<line x1="-172.903" y1="789.486" x2="174.616" y2="627.435" stroke="#00D992"/>
<line x1="-172.903" y1="583.807" x2="174.616" y2="421.756" stroke="#00D992"/>
<line x1="-172.903" y1="995.165" x2="174.616" y2="833.114" stroke="#00D992"/>
<line x1="-172.903" y1="407.511" x2="174.616" y2="245.46" stroke="#00D992"/>
<line x1="-172.903" y1="818.869" x2="174.616" y2="656.818" stroke="#00D992"/>
<line x1="-172.903" y1="613.189" x2="174.616" y2="451.139" stroke="#00D992"/>
<line x1="-172.903" y1="1024.55" x2="174.616" y2="862.497" stroke="#00D992"/>
<line x1="-172.903" y1="436.894" x2="174.616" y2="274.843" stroke="#00D992"/>
<line x1="-172.903" y1="848.251" x2="174.616" y2="686.201" stroke="#00D992"/>
<line x1="-172.903" y1="642.572" x2="174.616" y2="480.522" stroke="#00D992"/>
<line x1="-172.903" y1="466.276" x2="174.616" y2="304.225" stroke="#00D992"/>
<line x1="-172.903" y1="877.634" x2="174.616" y2="715.583" stroke="#00D992"/>
<line x1="-172.903" y1="671.955" x2="174.616" y2="509.904" stroke="#00D992"/>
<line x1="-172.903" y1="495.659" x2="174.616" y2="333.608" stroke="#00D992"/>
<line x1="-172.903" y1="907.017" x2="174.616" y2="744.966" stroke="#00D992"/>
<line x1="-172.903" y1="701.338" x2="174.616" y2="539.287" stroke="#00D992"/>
<line x1="-172.903" y1="525.041" x2="174.616" y2="362.991" stroke="#00D992"/>
<line x1="-172.903" y1="936.399" x2="174.616" y2="774.349" stroke="#00D992"/>
<line x1="-172.903" y1="730.721" x2="174.616" y2="568.67" stroke="#00D992"/>
<line x1="-172.903" y1="554.424" x2="174.616" y2="392.374" stroke="#00D992"/>
<line x1="-172.903" y1="965.782" x2="174.616" y2="803.732" stroke="#00D992"/>
<line x1="-172.903" y1="760.103" x2="174.616" y2="598.052" stroke="#00D992"/>
</g>
<path d="M-65.7778 298.056H145.778V297.056H-65.7778V298.056ZM145.778 981.5H-65.7778V982.5H145.778V981.5Z" fill="#00D992" mask="url(#path-43-inside-2_218_368)"/>
</g>
</g>
<path opacity="0.2" d="M2232.91 86.3166L2266.02 216.608L2169.75 310.415L2169.51 310.349L2169.41 310.733L2072.83 404.818L1976.14 499.029L1975.94 499.231L1976.01 499.51L2009.23 630.353L2042.45 761.195L2075.63 891.766L1979.36 985.574L1849.95 949.081L1816.83 818.649L1816.84 818.618L1816.81 818.487L1783.58 687.676L1750.32 556.825L1717.17 426.244L1813.65 332.253L1910.34 238.042L2007.05 143.842L2103.53 49.8322L2232.91 86.3166Z" stroke="white"/>
</g>
<defs>
<clipPath id="clip0_218_368">
<rect width="2560" height="890" fill="white"/>
</clipPath>
<clipPath id="clip1_218_368">
<rect width="2560" height="1820.44" fill="white" transform="translate(0 -314)"/>
</clipPath>
<clipPath id="clip2_218_368">
<path d="M2412.44 297.556H2624V982H2412.44V297.556Z" fill="white"/>
</clipPath>
<clipPath id="clip3_218_368">
<path d="M-65.7778 297.556H145.778V982H-65.7778V297.556Z" fill="white"/>
</clipPath>
</defs>
</svg>
