<svg width="16" height="16" viewBox="0 0 16 16" fill="none" xmlns="http://www.w3.org/2000/svg">
<path id="IconWPP" fill-rule="evenodd" clip-rule="evenodd" d="M7.87109 0.477539C6.55065 0.47741 5.25449 0.832404 4.11839 1.50533C2.98229 2.17825 2.04808 3.14434 1.41364 4.30237C0.779197 5.4604 0.467875 6.76774 0.51229 8.08743C0.556706 9.40711 0.955226 10.6906 1.66609 11.8033L0.414708 14.6989C0.368908 14.8048 0.354182 14.9216 0.372246 15.0356C0.390311 15.1496 0.440422 15.2562 0.516733 15.3428C0.593044 15.4294 0.692409 15.4925 0.803235 15.5248C0.914061 15.557 1.03178 15.5571 1.14265 15.525L4.70935 14.4903C5.70678 14.9639 6.79798 15.2072 7.90215 15.2019C9.00631 15.1967 10.0952 14.9432 11.0881 14.4602C12.081 13.9771 12.9525 13.2769 13.6382 12.4114C14.3238 11.5459 14.806 10.5373 15.0491 9.46021C15.2921 8.38311 15.2897 7.26514 15.0422 6.18907C14.7946 5.113 14.3082 4.10641 13.6189 3.24381C12.9296 2.38121 12.0551 1.6847 11.0601 1.20586C10.0652 0.727013 8.97527 0.478097 7.87109 0.477539ZM8.98451 10.0739C8.68262 10.2525 8.02122 10.3068 6.76415 9.04978C5.50709 7.79271 5.56146 7.13212 5.74 6.82942C6.19446 6.78316 6.63025 6.47884 7.0344 6.07469C7.33385 5.77524 7.0912 5.04891 6.49391 4.45162C5.89581 3.85352 5.16949 3.61169 4.87084 3.91033C2.94588 5.83448 3.90999 8.35916 5.68238 10.1324C7.47912 11.9291 9.9332 12.9143 11.9044 10.9439C12.2031 10.6444 11.9612 9.91812 11.3631 9.32083C10.765 8.72273 10.0387 8.48089 9.74005 8.77954C9.3351 9.18368 9.03077 9.61948 8.98532 10.0739" fill="#00D992"/>
</svg>
