<svg width="34" height="35" viewBox="0 0 34 35" fill="none" xmlns="http://www.w3.org/2000/svg">
<path d="M32.0078 0.639648H1.99219C0.893695 0.639648 0 1.53334 0 2.63184V29.1943C0 30.2928 0.893695 31.1865 1.99219 31.1865H15.0408L16.9206 33.0664C17.18 33.3258 17.6003 33.3258 17.8598 33.0664L18.4949 32.4313C18.989 32.7044 19.5122 32.9213 20.0547 33.0778V33.9756C20.0547 34.3423 20.3521 34.6396 20.7188 34.6396H23.6406C24.0073 34.6396 24.3047 34.3423 24.3047 33.9756V33.0778C24.8472 32.9212 25.3704 32.7044 25.8645 32.4312L26.4996 33.0664C26.759 33.3257 27.1793 33.3257 27.4388 33.0664L29.3186 31.1865H32.0078C33.1063 31.1865 34 30.2928 34 29.1943V21.5576C34 21.1909 33.7026 20.8936 33.3359 20.8936C32.9692 20.8936 32.6719 21.1909 32.6719 21.5576V29.1943C32.6719 29.5605 32.374 29.8584 32.0078 29.8584H29.302L28.8697 29.4261C29.1429 28.9319 29.3597 28.4087 29.5163 27.8662H30.4141C30.7808 27.8662 31.0781 27.5689 31.0781 27.2021V24.2803C31.0781 23.9135 30.7808 23.6162 30.4141 23.6162H29.5163C29.3597 23.0737 29.1429 22.5505 28.8697 22.0563L29.5048 21.4212C29.7641 21.1619 29.7641 20.7414 29.5048 20.4821L27.4388 18.416C27.1795 18.1567 26.7592 18.1567 26.4996 18.416L25.8645 19.0511C25.3703 18.778 24.8471 18.5612 24.3047 18.4046V17.5068C24.3047 17.1401 24.0073 16.8428 23.6406 16.8428H20.7188C20.3521 16.8428 20.0547 17.1401 20.0547 17.5068V18.4046C19.5122 18.5612 18.989 18.7781 18.4949 19.0512L17.8598 18.4161C17.6004 18.1568 17.18 18.1568 16.9206 18.4161L14.8545 20.4822C14.5952 20.7415 14.5952 21.1619 14.8545 21.4213L15.4897 22.0564C15.2165 22.5506 14.9997 23.0738 14.8432 23.6163H13.9453C13.5786 23.6163 13.2812 23.9136 13.2812 24.2803V27.2022C13.2812 27.569 13.5786 27.8663 13.9453 27.8663H14.8432C14.9997 28.4088 15.2166 28.932 15.4897 29.4262L15.0574 29.8585H1.99219C1.62602 29.8585 1.32812 29.5606 1.32812 29.1944V7.28027H32.6719V15.5811C32.6719 15.9478 32.9692 16.2451 33.3359 16.2451C33.7026 16.2451 34 15.9478 34 15.5811V2.63184C34 1.53334 33.1063 0.639648 32.0078 0.639648ZM15.3609 26.5381H14.6094V24.9443H15.3609C15.513 24.9443 15.6604 24.8921 15.7786 24.7965C15.8968 24.7008 15.9786 24.5675 16.0103 24.4187C16.1697 23.6697 16.4653 22.9564 16.8825 22.3143C16.9653 22.1867 17.0017 22.0346 16.9857 21.8833C16.9698 21.7321 16.9024 21.591 16.7949 21.4834L16.2632 20.9517L17.3901 19.8247L17.9219 20.3565C18.0294 20.464 18.1706 20.5314 18.3219 20.5473C18.4731 20.5632 18.6252 20.5268 18.7528 20.444C19.3949 20.0268 20.1083 19.7312 20.8573 19.5719C21.006 19.5401 21.1393 19.4584 21.235 19.3401C21.3306 19.2219 21.3828 19.0745 21.3828 18.9224V18.1709H22.9766V18.9224C22.9766 19.0745 23.0287 19.2219 23.1244 19.3401C23.2201 19.4584 23.3534 19.5401 23.5021 19.5719C24.2511 19.7312 24.9644 20.0269 25.6066 20.444C25.7342 20.5268 25.8863 20.5632 26.0375 20.5473C26.1887 20.5314 26.3299 20.464 26.4375 20.3565L26.9692 19.8247L28.0962 20.9517L27.5644 21.4834C27.4569 21.591 27.3895 21.7321 27.3736 21.8833C27.3577 22.0346 27.3941 22.1867 27.4768 22.3143C27.8941 22.9564 28.1897 23.6697 28.349 24.4187C28.3807 24.5675 28.4625 24.7008 28.5807 24.7965C28.6989 24.8922 28.8464 24.9443 28.9985 24.9443H29.75V26.5381H28.9985C28.8464 26.5381 28.6989 26.5903 28.5807 26.6859C28.4625 26.7816 28.3807 26.915 28.349 27.0637C28.1897 27.8127 27.8941 28.526 27.4768 29.1682C27.3941 29.2958 27.3577 29.4479 27.3736 29.5991C27.3896 29.7503 27.4569 29.8915 27.5644 29.999L28.0962 30.5308L26.9692 31.6577L26.4375 31.126C26.3299 31.0185 26.1887 30.9511 26.0375 30.9352C25.8863 30.9192 25.7342 30.9557 25.6066 31.0384C24.9645 31.4556 24.2511 31.7512 23.5021 31.9106C23.3534 31.9423 23.2201 32.0241 23.1244 32.1423C23.0287 32.2605 22.9766 32.4079 22.9766 32.56V33.3115H21.3828V32.56C21.3828 32.4079 21.3306 32.2605 21.235 32.1423C21.1393 32.0241 21.006 31.9423 20.8573 31.9106C20.1083 31.7512 19.3949 31.4556 18.7528 31.0384C18.6252 30.9557 18.4731 30.9193 18.3219 30.9352C18.1706 30.9511 18.0295 31.0185 17.9219 31.126L17.3901 31.6577L16.2632 30.5308L16.7949 29.999C16.9025 29.8915 16.9698 29.7503 16.9858 29.5991C17.0017 29.4479 16.9653 29.2957 16.8825 29.1682C16.4653 28.526 16.1697 27.8127 16.0103 27.0637C15.9786 26.915 15.8968 26.7816 15.7786 26.686C15.6604 26.5903 15.513 26.5381 15.3609 26.5381ZM1.32812 5.95215V2.63184C1.32812 2.26567 1.62602 1.96777 1.99219 1.96777H32.0078C32.374 1.96777 32.6719 2.26567 32.6719 2.63184V5.95215H1.32812Z" fill="#00D992"/>
<path d="M29.75 3.2959H15.4062C15.0395 3.2959 14.7422 3.5932 14.7422 3.95996C14.7422 4.32672 15.0395 4.62402 15.4062 4.62402H29.75C30.1167 4.62402 30.4141 4.32672 30.4141 3.95996C30.4141 3.5932 30.1167 3.2959 29.75 3.2959ZM7.17187 3.2959C6.99722 3.2959 6.82589 3.36695 6.70238 3.49047C6.5788 3.61398 6.50781 3.78531 6.50781 3.95996C6.50781 4.13461 6.5788 4.30594 6.70238 4.42945C6.82596 4.55297 6.99722 4.62402 7.17187 4.62402C7.34652 4.62402 7.51785 4.55297 7.6413 4.42945C7.76488 4.30594 7.83593 4.13461 7.83593 3.95996C7.83593 3.78531 7.76488 3.61398 7.6413 3.49047C7.51651 3.36638 7.34785 3.29647 7.17187 3.2959ZM4.24999 3.2959C4.07535 3.2959 3.90402 3.36695 3.7805 3.49047C3.65692 3.61398 3.58593 3.78531 3.58593 3.95996C3.58593 4.13461 3.65692 4.30594 3.7805 4.42945C3.90408 4.55297 4.07535 4.62402 4.24999 4.62402C4.42464 4.62402 4.59597 4.55297 4.71942 4.42945C4.843 4.30594 4.91406 4.13461 4.91406 3.95996C4.91406 3.78531 4.843 3.61398 4.71942 3.49047C4.59464 3.36638 4.42597 3.29647 4.24999 3.2959ZM10.0937 3.2959C9.9191 3.2959 9.74777 3.36695 9.62425 3.49047C9.50074 3.61398 9.42968 3.78531 9.42968 3.95996C9.42968 4.13461 9.50067 4.30594 9.62425 4.42945C9.74783 4.55297 9.9191 4.62402 10.0937 4.62402C10.2684 4.62402 10.4397 4.55297 10.5632 4.42945C10.6868 4.30594 10.7578 4.13461 10.7578 3.95996C10.7578 3.78531 10.6868 3.61398 10.5632 3.49047C10.4384 3.36638 10.2697 3.29647 10.0937 3.2959ZM22.1797 30.0688C24.566 30.0688 26.5073 28.1275 26.5073 25.7412C26.5073 23.355 24.566 21.4136 22.1797 21.4136C19.7934 21.4136 17.8521 23.3549 17.8521 25.7412C17.8521 28.1275 19.7934 30.0688 22.1797 30.0688ZM22.1797 22.7417C23.8336 22.7417 25.1792 24.0873 25.1792 25.7412C25.1792 27.3951 23.8336 28.7407 22.1797 28.7407C20.5258 28.7407 19.1802 27.3952 19.1802 25.7412C19.1802 24.0872 20.5258 22.7417 22.1797 22.7417ZM19.1558 11.9298H20.7362C21.1029 11.9298 21.4003 11.6325 21.4003 11.2658C21.4003 10.899 21.1029 10.6017 20.7362 10.6017H19.1558C18.7891 10.6017 18.4917 10.899 18.4917 11.2658C18.4917 11.6325 18.789 11.9298 19.1558 11.9298ZM29.75 10.6017H24.0059C23.6392 10.6017 23.3418 10.899 23.3418 11.2658C23.3418 11.6325 23.6392 11.9298 24.0059 11.9298H29.75C30.1167 11.9298 30.4141 11.6325 30.4141 11.2658C30.4141 10.899 30.1167 10.6017 29.75 10.6017ZM19.1558 15.1172H25.9049C26.2716 15.1172 26.5689 14.8199 26.5689 14.4531C26.5689 14.0864 26.2716 13.7891 25.9049 13.7891H19.1558C18.7891 13.7891 18.4917 14.0864 18.4917 14.4531C18.4917 14.8199 18.789 15.1172 19.1558 15.1172ZM29.75 13.7891H28.6398C28.2731 13.7891 27.9758 14.0864 27.9758 14.4531C27.9758 14.8199 28.2731 15.1172 28.6398 15.1172H29.75C30.1167 15.1172 30.4141 14.8199 30.4141 14.4531C30.4141 14.0864 30.1167 13.7891 29.75 13.7891ZM4.24999 24.9443H4.25278C4.61948 24.9443 4.91545 24.647 4.91545 24.2803C4.91545 23.9135 4.61669 23.6162 4.24999 23.6162C3.8833 23.6162 3.58593 23.9135 3.58593 24.2803C3.58593 24.647 3.8833 24.9443 4.24999 24.9443ZM11.1765 24.2803C11.1765 23.9135 10.8791 23.6162 10.5124 23.6162H7.2414C6.8747 23.6162 6.57733 23.9135 6.57733 24.2803C6.57733 24.647 6.8747 24.9443 7.2414 24.9443H10.5124C10.8791 24.9443 11.1765 24.647 11.1765 24.2803ZM4.24999 28.1318H8.21226C8.57895 28.1318 8.87632 27.8345 8.87632 27.4678C8.87632 27.101 8.57895 26.8037 8.21226 26.8037H4.24999C3.8833 26.8037 3.58593 27.101 3.58593 27.4678C3.58593 27.8345 3.8833 28.1318 4.24999 28.1318ZM15.0641 13.0186L13.5851 10.4569C13.4018 10.1394 12.9959 10.0306 12.678 10.2138L11.9873 10.6126C11.698 10.4028 11.3879 10.2235 11.0618 10.0774V9.28069C11.0618 8.91393 10.7644 8.61663 10.3978 8.61663H7.43969C7.07299 8.61663 6.77562 8.91393 6.77562 9.28069V10.0774C6.44954 10.2235 6.1394 10.4028 5.85012 10.6126L5.15943 10.2138C4.84167 10.0305 4.43573 10.1393 4.25232 10.4569L2.77332 13.0186C2.72969 13.0941 2.70137 13.1775 2.68997 13.2639C2.67858 13.3504 2.68433 13.4382 2.7069 13.5225C2.72947 13.6067 2.76842 13.6857 2.82152 13.7549C2.87462 13.8241 2.94083 13.8821 3.01637 13.9257L3.70739 14.3246C3.67127 14.6798 3.67127 15.0377 3.70739 15.3929L3.01637 15.7918C2.94083 15.8354 2.87462 15.8935 2.82152 15.9626C2.76842 16.0318 2.72947 16.1108 2.7069 16.195C2.68433 16.2793 2.67858 16.3671 2.68997 16.4536C2.70137 16.5401 2.72969 16.6234 2.77332 16.6989L4.25232 19.2606C4.43573 19.5783 4.84187 19.6871 5.15943 19.5037L5.85012 19.1049C6.13936 19.3147 6.44951 19.4941 6.77562 19.6401V20.4368C6.77562 20.8036 7.07299 21.1009 7.43969 21.1009H10.3978C10.7644 21.1009 11.0618 20.8036 11.0618 20.4368V19.6401C11.3879 19.494 11.698 19.3147 11.9873 19.1049L12.678 19.5037C12.9958 19.687 13.4018 19.5782 13.5851 19.2606L15.0641 16.6989C15.2475 16.3812 15.1386 15.9752 14.821 15.7918L14.13 15.3928C14.1662 15.0376 14.1662 14.6797 14.13 14.3246L14.821 13.9256C15.1386 13.7424 15.2474 13.3363 15.0641 13.0186ZM12.7558 14.1026C12.8044 14.3509 12.8291 14.6054 12.8291 14.8589C12.8291 15.1124 12.8044 15.3668 12.7558 15.6152C12.7292 15.751 12.7458 15.8917 12.8031 16.0177C12.8604 16.1437 12.9556 16.2486 13.0755 16.3178L13.5818 16.6102L12.7669 18.0217L12.2599 17.729C12.1398 17.6598 12.0012 17.6298 11.8632 17.6432C11.7253 17.6567 11.5951 17.713 11.4907 17.8042C11.1085 18.1394 10.6642 18.3963 10.1831 18.5605C10.052 18.6053 9.93814 18.6899 9.85755 18.8026C9.77696 18.9153 9.73363 19.0504 9.73362 19.1889V19.773H8.10368V19.1889C8.10367 19.0504 8.06033 18.9153 7.97973 18.8026C7.89912 18.6899 7.78529 18.6053 7.65418 18.5605C7.17301 18.3963 6.72871 18.1394 6.34644 17.8042C6.24211 17.713 6.11187 17.6567 5.97396 17.6433C5.83606 17.6298 5.69739 17.6598 5.57739 17.7291L5.07038 18.0218L4.25544 16.6103L4.76185 16.3179C4.88172 16.2487 4.97696 16.1438 5.03427 16.0178C5.09157 15.8918 5.10808 15.7511 5.08147 15.6153C5.03292 15.3669 5.00822 15.1124 5.00822 14.859C5.00822 14.6055 5.03286 14.351 5.08147 14.1027C5.10806 13.9668 5.09154 13.8261 5.03424 13.7001C4.97694 13.5741 4.8817 13.4692 4.76185 13.4L4.25544 13.1076L5.07038 11.6961L5.57739 11.9888C5.69738 12.0581 5.83605 12.0881 5.97397 12.0747C6.11188 12.0612 6.24213 12.0049 6.34644 11.9137C6.72873 11.5785 7.17302 11.3216 7.65418 11.1574C7.78529 11.1126 7.89912 11.028 7.97973 10.9153C8.06033 10.8026 8.10367 10.6675 8.10368 10.529V9.94489H9.73362V10.529C9.73363 10.6675 9.77696 10.8026 9.85755 10.9153C9.93814 11.028 10.052 11.1126 10.1831 11.1574C10.6642 11.3215 11.1085 11.5785 11.4907 11.9137C11.5951 12.0049 11.7253 12.0611 11.8632 12.0746C12.0011 12.0881 12.1398 12.0581 12.2599 11.9889L12.7669 11.6962L13.5818 13.1077L13.0755 13.4001C12.9556 13.4692 12.8604 13.5741 12.8031 13.7001C12.7457 13.8261 12.7292 13.9668 12.7558 14.1026Z" fill="#00D992"/>
<path d="M8.91869 12.6011C7.6737 12.6011 6.66087 13.6139 6.66087 14.8589C6.66087 16.1039 7.6737 17.1167 8.91869 17.1167C10.1637 17.1167 11.1765 16.1039 11.1765 14.8589C11.1765 13.6139 10.1637 12.6011 8.91869 12.6011ZM8.91869 15.7886C8.40603 15.7886 7.989 15.3715 7.989 14.8589C7.989 14.3462 8.40603 13.9292 8.91869 13.9292C9.43134 13.9292 9.84837 14.3462 9.84837 14.8589C9.84837 15.3715 9.43128 15.7886 8.91869 15.7886ZM33.3359 17.9053C33.1613 17.9053 32.99 17.9763 32.8664 18.0998C32.7429 18.2234 32.6719 18.3947 32.6719 18.5693C32.6719 18.744 32.7429 18.9153 32.8664 19.0388C32.99 19.1623 33.1613 19.2334 33.3359 19.2334C33.5106 19.2334 33.6819 19.1623 33.8054 19.0388C33.9289 18.9153 34 18.744 34 18.5693C34 18.3947 33.9289 18.2234 33.8054 18.0998C33.6806 17.9758 33.5119 17.9058 33.3359 17.9053Z" fill="#00D992"/>
</svg>
