<svg width="36" height="32" viewBox="0 0 36 32" fill="none" xmlns="http://www.w3.org/2000/svg">
<path d="M17.9395 0.830078C18.9566 0.830115 19.9572 0.99314 20.9131 1.31543L21.0322 1.36914C21.0703 1.39095 21.1065 1.41633 21.1396 1.44531L21.2285 1.54102C21.2552 1.57566 21.2793 1.61296 21.2988 1.65234L21.3447 1.77441C21.3561 1.81647 21.3632 1.85965 21.3662 1.90332L21.3623 2.03418L21.333 2.16211C21.3191 2.20355 21.3009 2.2435 21.2793 2.28125L21.2031 2.38867C21.1454 2.4547 21.0746 2.50892 20.9961 2.54785C20.9177 2.58662 20.8324 2.60932 20.7451 2.61523C20.7015 2.61817 20.6574 2.61691 20.6143 2.61133L20.4863 2.58203C19.6685 2.30627 18.8117 2.16605 17.9395 2.16602C13.5468 2.16602 9.97266 5.74016 9.97266 10.1328C9.97267 14.5255 13.5468 18.0996 17.9395 18.0996C22.332 18.0994 25.9062 14.5254 25.9062 10.1328C25.9062 7.68111 24.7755 5.37394 22.8594 3.86719L22.4658 3.57617C22.3568 3.50065 22.2738 3.39491 22.2256 3.27344L22.1885 3.14648C22.1568 2.97223 22.1961 2.79215 22.2969 2.64648L22.3818 2.54688C22.4761 2.45579 22.5957 2.39395 22.7266 2.37012L22.8574 2.35938C22.9884 2.36156 23.1172 2.40196 23.2266 2.47754L23.5078 2.67969C23.7666 2.87343 24.0146 3.08116 24.252 3.30078H33.1738C34.2747 3.30078 35.1699 4.19607 35.1699 5.29688V24.584C35.1698 25.6847 34.2747 26.5801 33.1738 26.5801H22.3047V30.1328H23.6387C24.0077 30.1328 24.3066 30.4318 24.3066 30.8008C24.3064 31.1696 24.0076 31.4688 23.6387 31.4688H12.2393C11.8705 31.4686 11.5715 31.1695 11.5713 30.8008C11.5713 30.4319 11.8704 30.133 12.2393 30.1328H13.5732V26.5801H2.82617C1.72534 26.5801 0.830153 25.6847 0.830078 24.584V5.29688C0.830078 4.19607 1.7253 3.30078 2.82617 3.30078H8.76562C9.13454 3.30089 9.43359 3.59981 9.43359 3.96875C9.43353 4.33763 9.1345 4.63661 8.76562 4.63672H2.82617C2.46232 4.63672 2.16602 4.93303 2.16602 5.29688V20.8018H27.5566C27.9255 20.802 28.2246 21.1018 28.2246 21.4707C28.2244 21.8394 27.9253 22.1385 27.5566 22.1387H2.16602V24.584C2.16605 24.9478 2.46235 25.2441 2.82617 25.2441H33.1738C33.5377 25.2441 33.8339 24.9478 33.834 24.584V22.1387H30.0645C29.6956 22.1386 29.3967 21.8395 29.3965 21.4707C29.3965 21.1017 29.6955 20.8018 30.0645 20.8018H33.834V5.29688C33.834 4.93303 33.5377 4.63672 33.1738 4.63672H25.4424C26.5955 6.21158 27.2422 8.13051 27.2422 10.1328C27.2422 15.2624 23.069 19.4354 17.9395 19.4355C12.8097 19.4355 8.63673 15.2625 8.63672 10.1328C8.63672 5.00307 12.8097 0.830078 17.9395 0.830078ZM14.9092 30.1328H20.9688V26.5801H14.9092V30.1328Z" fill="#00D992" stroke="#00D992" stroke-width="0.34"/>
<path d="M4.21826 19.0139H9.7251C9.8126 19.0139 9.8833 19.0846 9.8833 19.1721C9.88315 19.2595 9.81251 19.3303 9.7251 19.3303H4.21826C4.13085 19.3303 4.06021 19.2595 4.06006 19.1721C4.06006 19.0846 4.13076 19.0139 4.21826 19.0139ZM4.21826 16.7629H7.16943C7.25692 16.7629 7.3276 16.8337 7.32764 16.9211C7.32764 17.0086 7.25694 17.0793 7.16943 17.0793H4.21826C4.13076 17.0793 4.06006 17.0086 4.06006 16.9211C4.06009 16.8337 4.13078 16.7629 4.21826 16.7629ZM16.8394 14.7766C16.9336 14.882 16.9907 15.0188 16.9907 15.1692C16.9906 15.4952 16.726 15.76 16.3999 15.76C16.0738 15.76 15.8092 15.4952 15.8091 15.1692L15.8188 15.0618C15.8384 14.9563 15.8868 14.8574 15.9595 14.7766L16.4009 14.2854L16.8394 14.7766ZM20.2788 14.7766C20.3731 14.882 20.4302 15.0188 20.4302 15.1692C20.43 15.4952 20.1654 15.76 19.8394 15.76C19.5134 15.7599 19.2487 15.4952 19.2485 15.1692L19.2593 15.0618C19.2789 14.9564 19.3263 14.8573 19.3989 14.7766L19.8403 14.2854L20.2788 14.7766ZM12.6753 5.50317H13.2085C13.5677 5.50317 13.8832 5.7276 14.0073 6.05396L14.0483 6.19946L14.1528 6.74829L14.2046 7.02563H21.9429C21.9617 7.02564 21.9803 7.02746 21.9985 7.03149L22.0513 7.04907C22.0682 7.05695 22.0843 7.06709 22.0991 7.07837L22.1401 7.11743C22.189 7.17534 22.2097 7.2505 22.1978 7.32544L22.1968 7.33521L21.312 12.0032C21.3086 12.0212 21.3016 12.0384 21.2925 12.054L21.2573 12.0959C21.2289 12.1195 21.1926 12.1321 21.1558 12.1321H15.1685L15.2446 12.5364L15.4487 13.6145L15.5005 13.8918H20.9819C21.0694 13.8918 21.1401 13.9625 21.1401 14.05C21.1401 14.1375 21.0694 14.2083 20.9819 14.2083H15.3696C15.3329 14.2082 15.2974 14.1955 15.269 14.1721C15.2548 14.1603 15.2431 14.1458 15.2339 14.1301L15.2144 14.0793L13.7378 6.25806L13.7124 6.16821C13.6906 6.11015 13.6589 6.05628 13.6187 6.00903L13.5522 5.9436L13.4761 5.89087C13.4222 5.86001 13.3634 5.83817 13.3022 5.82739L13.2095 5.81958H12.6753C12.5879 5.81952 12.5171 5.74882 12.5171 5.66138C12.5171 5.57391 12.5878 5.50323 12.6753 5.50317ZM14.7925 10.1409L15.0571 11.5383L15.1089 11.8157H16.9575L16.9312 11.4504L16.8286 10.053L16.8052 9.73755H14.7163L14.7925 10.1409ZM17.1499 10.1028L17.2524 11.4993L17.2749 11.8157H18.9058L18.9282 11.4993L19.0308 10.1028L19.0571 9.73755H17.1235L17.1499 10.1028ZM19.3521 10.053L19.2495 11.4504L19.2231 11.8157H21.0249L21.0776 11.5383L21.3423 10.1409L21.4194 9.73755H19.3745L19.3521 10.053ZM30.5688 6.66821C30.5897 6.66821 30.6105 6.67213 30.6294 6.67993L30.6812 6.71509C30.7106 6.74471 30.727 6.78463 30.7271 6.82642V8.41626H32.3169C32.4043 8.41633 32.4751 8.487 32.4751 8.57446C32.4751 8.66189 32.4043 8.73259 32.3169 8.73267H30.7271V10.3225C30.7269 10.4099 30.6562 10.4807 30.5688 10.4807C30.4815 10.4806 30.4108 10.4098 30.4106 10.3225V8.73267H28.8208C28.7335 8.73244 28.6626 8.6618 28.6626 8.57446C28.6626 8.4871 28.7335 8.41649 28.8208 8.41626H30.4106V6.82642L30.4224 6.76587L30.4575 6.71509L30.5083 6.67993L30.5688 6.66821ZM14.3403 7.74634L14.605 9.14282L14.6567 9.42017H16.7827L16.7554 9.05493L16.6538 7.65747L16.6304 7.34204H14.2642L14.3403 7.74634ZM16.9751 7.70728L17.0767 9.10474L17.1001 9.42017H19.0806L19.104 9.10474L19.2056 7.70728L19.2319 7.34204H16.9478L16.9751 7.70728ZM19.5269 7.65747L19.4253 9.05493L19.3979 9.42017H21.479L21.5317 9.14282L21.7964 7.74634L21.8735 7.34204H19.5503L19.5269 7.65747Z" fill="#00D992" stroke="#00D992" stroke-width="0.681264"/>
</svg>
