<svg width="36" height="35" viewBox="0 0 36 35" fill="none" xmlns="http://www.w3.org/2000/svg">
<path d="M1 10.5119H32.4788M11.5329 15.8272L10.1499 21.6145M14.7178 21.0918L16.6746 18.8951C16.7608 18.7992 16.7608 18.6426 16.6746 18.5466L14.7178 16.3499M6.9648 21.0918L5.00795 18.8951C4.9217 18.7992 4.9217 18.6426 5.00795 18.5466L6.9648 16.3499M19.4486 26.9301H20.2498C20.4175 27.6629 20.7083 28.362 21.1097 28.9976L20.5436 29.5614C20.2086 29.8982 20.2086 30.4483 20.5436 30.7831L21.4368 31.6759C21.7718 32.0127 22.3222 32.0127 22.6591 31.6759L23.2232 31.112C23.8521 31.5056 24.5514 31.8012 25.2958 31.9696V32.7742C25.2958 33.25 25.6855 33.6396 26.1597 33.6396H27.4231C27.8971 33.6396 28.2869 33.25 28.2869 32.7742V31.9715C29.0226 31.8043 29.7247 31.5137 30.3633 31.112L30.9295 31.6759C31.2644 32.0127 31.8148 32.0127 32.1518 31.6759L33.043 30.7831C33.3799 30.4483 33.3799 29.8982 33.043 29.5614L32.4789 28.9976C32.8789 28.3615 33.1689 27.6625 33.3369 26.9301H34.1341C34.6101 26.9301 34.9999 26.5405 34.9999 26.0668V24.8039C34.9999 24.3302 34.6101 23.9405 34.1341 23.9405H33.3408C33.1733 23.2037 32.8818 22.5006 32.4789 21.8613L33.043 21.2955C33.3799 20.9607 33.3799 20.4106 33.043 20.0738L32.1518 19.183C31.8148 18.8462 31.2644 18.8462 30.9295 19.183L30.3633 19.7468C29.7267 19.3475 29.0195 19.0499 28.2634 18.8815V18.0964C28.2634 17.6206 27.8736 17.231 27.3976 17.231H26.1361C25.6601 17.231 25.2723 17.6206 25.2723 18.0964V18.8932C24.539 19.0644 23.8398 19.3576 23.2037 19.7606L22.6415 19.2006C22.3066 18.8639 21.7561 18.8639 21.4192 19.2006L20.5279 20.0914C20.191 20.4282 20.191 20.9783 20.5279 21.3132L21.096 21.8829C20.7003 22.5166 20.4136 23.2121 20.2478 23.9405H19.4486C18.9726 23.9405 18.5847 24.3302 18.5847 24.8039V26.0668C18.5847 26.5405 18.9726 26.9301 19.4486 26.9301ZM19.4486 26.9301L13.8403 26.9301M7.66403 26.9301H3.5739C2.15973 26.9301 1 25.546 1 23.8564V4.37207C1 2.68058 2.15765 1.29834 3.5739 1.29834H29.9049C31.3211 1.29834 32.4788 2.68252 32.4788 4.37207V19.51M10.759 26.9301H10.7739M6.77073 7.57114C7.67573 7.57114 8.41419 6.83503 8.41419 5.93052C8.41419 5.026 7.67573 4.28989 6.77073 4.28989C5.86773 4.28989 5.1292 5.026 5.1292 5.93052C5.1292 6.83503 5.86773 7.57114 6.77073 7.57114ZM21.037 4.28989H27.2192C28.1222 4.28989 28.8607 5.028 28.8607 5.93052C28.8607 6.8331 28.1222 7.57114 27.2192 7.57114H21.037C20.134 7.57114 19.3955 6.8331 19.3955 5.93052C19.3955 5.028 20.134 4.28989 21.037 4.28989ZM12.8315 7.57114C13.7365 7.57114 14.475 6.83503 14.475 5.93052C14.475 5.026 13.7365 4.28989 12.8315 4.28989C11.9285 4.28989 11.19 5.026 11.19 5.93052C11.19 6.83503 11.9285 7.57114 12.8315 7.57114ZM26.7922 21.8751C28.7588 21.8751 30.3534 23.4689 30.3534 25.4364C30.3534 27.4021 28.7588 28.9958 26.7922 28.9958C24.8236 28.9958 23.229 27.4021 23.229 25.4364C23.229 23.4689 24.8236 21.8751 26.7922 21.8751Z" stroke="#00D992" stroke-width="1.45122" stroke-miterlimit="10" stroke-linecap="round" stroke-linejoin="round"/>
</svg>
